<?xml version="1.0" encoding="utf-8"?>
<!-- Generator: Adobe Illustrator 16.0.4, SVG Export Plug-In . SVG Version: 6.00 Build 0)  -->
<!DOCTYPE svg PUBLIC "-//W3C//DTD SVG 1.1//EN" "http://www.w3.org/Graphics/SVG/1.1/DTD/svg11.dtd">
<svg version="1.1" id="_x31_0-C" xmlns="http://www.w3.org/2000/svg" xmlns:xlink="http://www.w3.org/1999/xlink" x="0px" y="0px"
	 width="174.3px" height="52px" viewBox="0 0 174.3 52" style="enable-background:new 0 0 174.3 52;" xml:space="preserve">
<g>
	<g>
		<path style="fill:#00205B;" d="M15.3,30.2c-0.3,0-0.6,0.3-0.5,0.5c0,0.2,0.4,0.4,0.6,0.3C16,31.1,16,30.1,15.3,30.2z"/>
		<polygon style="fill:#00205B;" points="14.6,33.1 14.1,33.1 13.5,34.1 13.5,34.1 13.5,33.1 13,33.1 13,35.5 13.5,35.5 13.5,34.8 
			13.7,34.5 14.2,35.5 14.7,35.5 14,34.1 		"/>
		<polygon style="fill:#00205B;" points="15.8,34 15.8,34 15.5,33.1 14.9,33.1 15.5,34.5 15.5,35.5 16,35.5 16,34.5 16.6,33.1 
			16.1,33.1 		"/>
		<path style="fill:#00205B;" d="M18.4,33.4c-0.1-0.1-0.1-0.2-0.3-0.3C18,33.1,17.9,33,17.7,33c-0.2,0-0.3,0-0.4,0.1
			c-0.1,0.1-0.2,0.1-0.3,0.3c-0.1,0.1-0.1,0.2-0.1,0.4c0,0.1,0,0.3,0,0.5s0,0.4,0,0.5c0,0.2,0,0.3,0.1,0.4c0.1,0.1,0.1,0.2,0.3,0.2
			c0.1,0.1,0.3,0.1,0.4,0.1c0.2,0,0.3,0,0.4-0.1c0.1-0.1,0.2-0.1,0.3-0.2c0.1-0.1,0.1-0.2,0.1-0.4c0-0.1,0-0.3,0-0.5s0-0.4,0-0.5
			C18.5,33.6,18.4,33.5,18.4,33.4z M18,34.7c0,0.1,0,0.2-0.1,0.3c0,0.1-0.1,0.1-0.1,0.2c0,0-0.1,0.1-0.2,0.1c-0.1,0-0.1,0-0.2-0.1
			c-0.1,0-0.1-0.1-0.1-0.2c0-0.1,0-0.2,0-0.3c0-0.1,0-0.2,0-0.4c0-0.2,0-0.3,0-0.4c0-0.1,0-0.2,0-0.3c0-0.1,0-0.1,0.1-0.2
			c0,0,0.1,0,0.2,0c0.1,0,0.1,0,0.2,0s0.1,0.1,0.1,0.2c0,0.1,0,0.2,0.1,0.3c0,0.1,0,0.2,0,0.4C18,34.5,18,34.6,18,34.7z"/>
		<polygon style="fill:#00205B;" points="18.8,33.5 19.3,33.5 19.3,35.5 19.8,35.5 19.8,33.5 20.3,33.5 20.3,33.1 18.8,33.1 		"/>
		<path style="fill:#00205B;" d="M22,33.4c-0.1-0.1-0.1-0.2-0.2-0.3c-0.1-0.1-0.2-0.1-0.4-0.1c-0.2,0-0.3,0-0.4,0.1
			c-0.1,0.1-0.2,0.1-0.2,0.3c-0.1,0.1-0.1,0.2-0.1,0.4c0,0.1,0,0.3,0,0.5s0,0.4,0,0.5c0,0.2,0.1,0.3,0.1,0.4
			c0.1,0.1,0.1,0.2,0.2,0.2c0.1,0.1,0.3,0.1,0.4,0.1c0.2,0,0.3,0,0.4-0.1c0.1-0.1,0.2-0.1,0.2-0.2c0.1-0.1,0.1-0.2,0.1-0.4
			c0-0.1,0-0.3,0-0.5s0-0.4,0-0.5C22.1,33.6,22,33.5,22,33.4z M21.6,34.7c0,0.1,0,0.2,0,0.3c0,0.1-0.1,0.1-0.1,0.2
			c0,0-0.1,0.1-0.2,0.1c-0.1,0-0.1,0-0.2-0.1c0,0-0.1-0.1-0.1-0.2c0-0.1,0-0.2,0-0.3c0-0.1,0-0.2,0-0.4c0-0.2,0-0.3,0-0.4
			c0-0.1,0-0.2,0-0.3c0-0.1,0.1-0.1,0.1-0.2c0,0,0.1,0,0.2,0c0.1,0,0.1,0,0.2,0c0.1,0,0.1,0.1,0.1,0.2c0,0.1,0,0.2,0,0.3
			c0,0.1,0,0.2,0,0.4C21.6,34.5,21.6,34.6,21.6,34.7z"/>
		<path style="fill:#00205B;" d="M31.1,34.8c0,0.1,0,0.2,0,0.3c0,0.1-0.1,0.1-0.2,0.1s-0.1,0-0.2-0.1c0-0.1,0-0.2,0-0.3v-0.1h-0.4
			v0.1c0,0.1,0,0.2,0,0.3c0,0.1,0,0.2,0.1,0.2c0,0.1,0.1,0.1,0.2,0.1c0.1,0,0.2,0.1,0.3,0.1c0.2,0,0.4-0.1,0.5-0.2
			c0.1-0.1,0.2-0.3,0.2-0.5v-1.7h-0.5V34.8z"/>
		<path style="fill:#00205B;" d="M32.5,33.1l-0.6,2.4h0.5l0.1-0.5h0.6l0.1,0.5h0.5l-0.6-2.4H32.5z M32.6,34.6l0.2-1.1l0,0l0.2,1.1
			H32.6z"/>
		<path style="fill:#00205B;" d="M35.5,33.5c0-0.1-0.1-0.2-0.1-0.2c-0.1-0.1-0.1-0.1-0.2-0.2c-0.1,0-0.2-0.1-0.3-0.1H34v2.4h0.5v-1
			h0.3c0.1,0,0.2,0,0.3,0c0.1,0,0.2-0.1,0.2-0.1c0.1-0.1,0.1-0.1,0.2-0.2c0-0.1,0.1-0.2,0.1-0.3C35.5,33.7,35.5,33.6,35.5,33.5z
			 M35,34.1c-0.1,0.1-0.1,0.1-0.2,0.1h-0.2v-0.7h0.2c0.1,0,0.2,0,0.3,0.1c0,0.1,0.1,0.2,0.1,0.3C35.1,33.9,35,34,35,34.1z"/>
		<path style="fill:#00205B;" d="M36.2,33.1l-0.6,2.4h0.5l0.1-0.5h0.6l0.1,0.5h0.5l-0.6-2.4H36.2z M36.2,34.6l0.2-1.1h0l0.2,1.1
			H36.2z"/>
		<polygon style="fill:#00205B;" points="38.8,34.7 38.8,34.7 38.2,33.1 37.7,33.1 37.7,35.5 38.1,35.5 38.1,33.8 38.1,33.8 
			38.7,35.5 39.3,35.5 39.3,33.1 38.8,33.1 		"/>
		<path style="fill:#00205B;" d="M23.8,35.4c0.1,0,0.2-0.1,0.2-0.2v-1.5h1.2v1.5c0,0.1,0.1,0.2,0.2,0.2s0.2-0.1,0.2-0.2v-1.5H27v1.5
			c0,0.1,0.1,0.2,0.2,0.2c0.1,0,0.2-0.1,0.2-0.2v-1.5h1.3v1.5c0,0.1,0.1,0.2,0.2,0.2c0.1,0,0.2-0.1,0.2-0.2v-1.7
			c0-0.1-0.1-0.2-0.2-0.2h-2.3v-0.8c0-0.1-0.1-0.2-0.2-0.2c-0.1,0-0.2,0.1-0.2,0.2v0.8h-2.3c-0.1,0-0.2,0.1-0.2,0.2v1.7
			C23.6,35.3,23.7,35.4,23.8,35.4z"/>
		<path style="fill:#00205B;" d="M23.8,38h1c0.1,0,0.2-0.1,0.2-0.2s-0.1-0.2-0.2-0.2h-0.9v-0.4h0.9c0.1,0,0.2-0.1,0.2-0.2
			S24.9,37,24.8,37h-0.9v-0.4h0.9c0.1,0,0.2-0.1,0.2-0.2c0-0.1-0.1-0.2-0.2-0.2h-0.9V36c0-0.1-0.1-0.2-0.2-0.2
			c-0.1,0-0.2,0.1-0.2,0.2v1.9C23.6,38,23.7,38,23.8,38z"/>
		<path style="fill:#00205B;" d="M28.8,35.8c-0.1,0-0.2,0.1-0.2,0.2v0.3h-0.9c-0.1,0-0.2,0.1-0.2,0.2c0,0.1,0.1,0.2,0.2,0.2h0.9V37
			h-0.9c-0.1,0-0.2,0.1-0.2,0.2s0.1,0.2,0.2,0.2h0.9v0.4h-0.9c-0.1,0-0.2,0.1-0.2,0.2s0.1,0.2,0.2,0.2h1c0.1,0,0.2-0.1,0.2-0.2V36
			C29,35.9,28.9,35.8,28.8,35.8z"/>
		<path style="fill:#00205B;" d="M27.2,36.9c0-0.1,0-0.1-0.1-0.1l-0.5-0.4l0.5-0.4c0.1-0.1,0.1-0.2,0-0.2c-0.1-0.1-0.2-0.1-0.2,0
			l-0.6,0.4l-0.6-0.4c-0.1-0.1-0.2,0-0.2,0c-0.1,0.1,0,0.2,0,0.2l0.5,0.4l-0.5,0.4c0,0-0.1,0.1-0.1,0.1c0,0.1,0,0.1,0.1,0.1l0.5,0.4
			l-0.5,0.4c-0.1,0.1-0.1,0.2,0,0.2c0,0.1,0.1,0.1,0.1,0.1c0,0,0.1,0,0.1,0l0.6-0.5l0.6,0.5c0,0,0,0,0.1,0s0.1,0,0.1-0.1
			c0.1-0.1,0-0.2,0-0.2l-0.5-0.4l0.5-0.4C27.2,37,27.2,37,27.2,36.9z M26.3,37.2l-0.4-0.3l0.4-0.3l0.4,0.3L26.3,37.2z"/>
		<path style="fill:#00205B;" d="M28.8,38.6h-5c-0.1,0-0.2,0.1-0.2,0.2v2.9c0,0.1,0.1,0.2,0.2,0.2c0.1,0,0.2-0.1,0.2-0.2v-2.7h4.7
			v2.7c0,0.1,0.1,0.2,0.2,0.2c0.1,0,0.2-0.1,0.2-0.2v-2.8C28.9,38.6,28.9,38.6,28.8,38.6z"/>
		<path style="fill:#00205B;" d="M28.1,39.2c-0.1,0-0.2,0.1-0.2,0.2v1.3h-1.5v-0.4h1c0.1,0,0.2-0.1,0.2-0.2v-0.8
			c0-0.1-0.1-0.2-0.2-0.2h-2.3c-0.1,0-0.2,0.1-0.2,0.2v0.8c0,0.1,0.1,0.2,0.2,0.2h1v0.4h-1.5v-1.3c0-0.1-0.1-0.2-0.2-0.2
			c-0.1,0-0.2,0.1-0.2,0.2v1.5c0,0.1,0.1,0.2,0.2,0.2h1.7v0.4h-1.7c-0.1,0-0.2,0.1-0.2,0.2c0,0.1,0.1,0.2,0.2,0.2h1.9
			c0.1,0,0.2-0.1,0.2-0.2V41h1.7c0.1,0,0.2-0.1,0.2-0.2v-1.5C28.3,39.3,28.2,39.2,28.1,39.2z M25.3,40v-0.4h2V40H25.3z"/>
		<path style="fill:#00205B;" d="M26,0C11.7,0,0,11.6,0,26s11.7,26,26,26c14.4,0,26-11.6,26-26S40.4,0,26,0z M44,44
			c-4.6,4.6-11,7.4-18,7.4c-7,0-13.4-2.8-18-7.4c-4.6-4.6-7.4-11-7.4-18c0-7,2.9-13.4,7.4-18c4.6-4.6,11-7.4,18-7.4
			c7,0,13.4,2.8,18,7.4c4.6,4.6,7.5,11,7.5,18C51.5,33,48.6,39.4,44,44z"/>
		<path style="fill:#00205B;" d="M26,1.4C12.4,1.4,1.4,12.4,1.4,26s11,24.7,24.6,24.7c13.6,0,24.7-11,24.7-24.7S39.6,1.4,26,1.4z
			 M43.2,43.2c-4.4,4.4-10.5,7.1-17.2,7.1c-6.7,0-12.8-2.7-17.2-7.1C4.5,38.8,1.7,32.7,1.7,26c0-6.7,2.7-12.8,7.1-17.2
			C13.3,4.5,19.3,1.7,26,1.7c6.7,0,12.8,2.7,17.2,7.1c4.4,4.4,7.1,10.5,7.1,17.2C50.3,32.7,47.6,38.8,43.2,43.2z"/>
		<polygon style="fill:#00205B;" points="7.2,25.4 5.8,25.3 5.2,24.6 7.3,23.3 7.4,22.6 4.9,24.2 3.4,22.3 3.4,23.1 5.1,25.2 
			3.2,25.1 3.2,25.6 7.1,25.9 		"/>
		<polygon style="fill:#00205B;" points="7.9,20.8 8.1,20.3 6.5,19.9 4.7,17.8 4.5,18.4 6,20 3.9,20.5 3.7,21.1 6.4,20.4 		"/>
		<path style="fill:#00205B;" d="M7,17.4c0.5,0.3,1,0.4,1.5,0.3c0.5-0.1,0.9-0.4,1.2-0.9c0.3-0.6,0.4-1.1,0.1-1.7
			c-0.2-0.5-0.5-0.8-1.1-1.1c-0.5-0.3-0.9-0.4-1.4-0.3c-0.6,0.1-1,0.4-1.3,1c-0.3,0.6-0.4,1.2-0.1,1.7C6.2,16.8,6.5,17.2,7,17.4z
			 M6.5,14.9c0.2-0.4,0.5-0.6,0.9-0.7c0.4-0.1,0.8,0,1.2,0.2c0.4,0.2,0.7,0.5,0.9,0.8c0.2,0.4,0.2,0.7-0.1,1.1
			c-0.2,0.4-0.6,0.7-0.9,0.7c-0.4,0-0.7,0-1.1-0.3c-0.5-0.3-0.8-0.6-0.9-0.9C6.3,15.6,6.3,15.3,6.5,14.9z"/>
		<polygon style="fill:#00205B;" points="9.3,11.2 11.9,13.6 12.2,13.2 9.6,10.8 10.5,9.9 10.2,9.5 8,11.9 8.4,12.2 		"/>
		<path style="fill:#00205B;" d="M13.5,11.2c0.5,0.1,1,0,1.5-0.4c0.5-0.4,0.8-0.9,0.8-1.4c0-0.5-0.2-1-0.5-1.5
			c-0.3-0.4-0.7-0.7-1.1-0.9c-0.5-0.2-1.1-0.1-1.7,0.4c-0.5,0.4-0.8,0.9-0.8,1.5c0,0.5,0.2,0.9,0.5,1.4C12.7,10.7,13.1,11,13.5,11.2
			z M12.9,7.8c0.3-0.2,0.7-0.3,1.1-0.2c0.4,0.1,0.7,0.3,0.9,0.7c0.3,0.4,0.4,0.7,0.4,1.1s-0.1,0.7-0.5,1c-0.4,0.3-0.8,0.4-1.1,0.3
			c-0.4-0.1-0.7-0.3-0.9-0.7c-0.3-0.5-0.5-0.9-0.4-1.2C12.4,8.3,12.6,8,12.9,7.8z"/>
		<path style="fill:#00205B;" d="M19.1,7.8c0.4,0.4,0.9,0.5,1.5,0.3c0.6-0.2,1-0.6,1.1-1.1c0-0.3,0-0.7-0.1-1.1l-0.7-2.1l-0.5,0.2
			l0.7,2.3c0.1,0.3,0.1,0.5,0.1,0.7c-0.1,0.3-0.3,0.6-0.8,0.7c-0.4,0.1-0.7,0-0.9-0.2c-0.2-0.2-0.3-0.4-0.4-0.6l-0.7-2.3L18,4.6
			l0.6,2.1C18.7,7.2,18.9,7.6,19.1,7.8z"/>
		<polygon style="fill:#00205B;" points="24,7.3 23.8,4.1 26,7.1 26.6,7.1 26.4,3.2 25.9,3.2 26,6.4 23.9,3.3 23.2,3.3 23.5,7.3 		
			"/>
		<polygon style="fill:#00205B;" points="29.1,3.4 28.6,3.4 28.1,7.3 28.6,7.3 		"/>
		<polygon style="fill:#00205B;" points="31.7,8 34.2,4.7 33.6,4.5 31.6,7.4 31.5,3.8 30.9,3.7 31.2,7.9 		"/>
		<polygon style="fill:#00205B;" points="36.5,10.3 36.8,9.9 34.7,8.7 35.3,7.5 37.2,8.6 37.4,8.2 35.5,7.1 36.1,6.1 38.2,7.2 
			38.4,6.8 35.9,5.4 34,8.9 		"/>
		<path style="fill:#00205B;" d="M38,11.4l1.1-1.3L40,11c0.2,0.1,0.3,0.3,0.3,0.4c0.1,0.2,0,0.4-0.1,0.6l-0.4,0.5
			c-0.1,0.1-0.2,0.2-0.2,0.2c0,0.1,0,0.1-0.1,0.1l0.5,0.5l0.1-0.1c0-0.1,0-0.2,0-0.3c0-0.1,0.1-0.2,0.2-0.3l0.3-0.4
			c0.1-0.2,0.2-0.3,0.2-0.5c0-0.1,0-0.3-0.1-0.4c0.2,0.1,0.4,0.1,0.5,0c0.2,0,0.3-0.2,0.5-0.3c0.3-0.3,0.4-0.7,0.2-1.1
			c-0.1-0.2-0.2-0.4-0.5-0.6l-1.3-1.2l-2.7,2.9L38,11.4z M40.4,8.9l0.9,0.9c0.1,0.1,0.2,0.2,0.3,0.3c0.1,0.2,0,0.4-0.2,0.6
			c-0.2,0.2-0.4,0.3-0.5,0.3c-0.2,0-0.3-0.1-0.5-0.3l-0.9-0.8L40.4,8.9z"/>
		<path style="fill:#00205B;" d="M41.9,15.2c-0.2-0.4-0.3-0.7-0.2-1c0.1-0.2,0.2-0.3,0.4-0.4l-0.3-0.4c-0.4,0.2-0.6,0.5-0.6,0.9
			c-0.1,0.4,0,0.8,0.3,1.2c0.2,0.3,0.5,0.6,0.8,0.7c0.3,0.2,0.7,0.1,1-0.1c0.3-0.2,0.4-0.5,0.5-0.8c0-0.2,0-0.4-0.1-0.6l-0.2-0.5
			c-0.1-0.3-0.2-0.6-0.2-0.7c0-0.2,0.1-0.3,0.2-0.4c0.2-0.1,0.3-0.1,0.5-0.1c0.2,0,0.4,0.2,0.5,0.4c0.2,0.3,0.3,0.6,0.2,0.8
			c0,0.1-0.2,0.3-0.3,0.4l0.3,0.4c0.4-0.3,0.6-0.6,0.6-0.9c0-0.3-0.1-0.7-0.3-1c-0.2-0.4-0.5-0.6-0.8-0.7c-0.3-0.1-0.6,0-0.9,0.2
			c-0.3,0.2-0.4,0.4-0.4,0.7c0,0.2,0.1,0.4,0.2,0.7l0.2,0.5c0.1,0.3,0.2,0.5,0.2,0.6c0,0.1-0.1,0.3-0.3,0.4c-0.2,0.2-0.5,0.2-0.8,0
			C42.1,15.5,42,15.4,41.9,15.2z"/>
		<polygon style="fill:#00205B;" points="43.3,18.4 46.9,16.8 46.7,16.3 43.1,17.9 		"/>
		<polygon style="fill:#00205B;" points="44.1,20.7 44.3,21.2 47.6,20.3 48,21.6 48.4,21.4 47.6,18.3 47.1,18.5 47.5,19.8 		"/>
		<polygon style="fill:#00205B;" points="44.8,24.5 44.9,25 46.5,24.9 48.9,26.2 48.9,25.6 46.9,24.6 48.7,23.3 48.7,22.7 
			46.4,24.4 		"/>
		<polygon style="fill:#00205B;" points="7.8,35.8 7,34 8.1,33.5 9,35.5 9.4,35.3 8.3,32.9 4.7,34.5 4.9,35 6.5,34.2 7.3,36 		"/>
		<path style="fill:#00205B;" d="M11.1,37.5c-0.4-0.5-0.9-0.8-1.5-0.8c-0.5,0-0.9,0.2-1.3,0.5c-0.5,0.4-0.8,0.8-0.9,1.3
			c-0.1,0.5,0,1,0.4,1.5c0.4,0.5,0.9,0.8,1.5,0.8c0.5,0,1-0.2,1.4-0.5c0.4-0.3,0.7-0.7,0.8-1.1C11.6,38.6,11.5,38.1,11.1,37.5z
			 M11,38.9c-0.1,0.4-0.3,0.7-0.7,1c-0.4,0.3-0.7,0.4-1.1,0.5c-0.4,0-0.7-0.1-1-0.5c-0.3-0.4-0.4-0.8-0.3-1.1
			C8,38.3,8.2,38,8.5,37.8c0.4-0.3,0.8-0.5,1.2-0.5c0.4,0,0.7,0.2,0.9,0.5C11,38.2,11.1,38.5,11,38.9z"/>
		<path style="fill:#00205B;" d="M15,41.5l-1.5,1.9c-0.2,0.2-0.4,0.4-0.5,0.5c-0.3,0.1-0.7,0.1-1-0.2c-0.3-0.2-0.4-0.5-0.4-0.8
			c0-0.2,0.1-0.4,0.3-0.7l1.5-1.9L13,39.9l-1.4,1.7c-0.3,0.4-0.5,0.7-0.5,1c-0.1,0.5,0.1,1,0.6,1.4c0.5,0.4,1,0.5,1.5,0.3
			c0.3-0.1,0.6-0.4,0.9-0.8l1.4-1.7L15,41.5z"/>
		<polygon style="fill:#00205B;" points="17.4,46.5 17,42.8 16.5,42.5 14.8,46.1 15.2,46.3 16.6,43.4 17,47.2 17.6,47.4 19.3,43.8 
			18.8,43.6 		"/>
		<path style="fill:#00205B;" d="M22.1,44.6l-1.5-0.3l-0.8,3.9l1.5,0.3c0.7,0.1,1.2,0,1.6-0.6c0.2-0.3,0.4-0.6,0.5-1.1
			c0.1-0.5,0.1-1-0.1-1.4C23,45,22.6,44.7,22.1,44.6z M22.7,46.8c0,0.1-0.1,0.3-0.1,0.4c-0.1,0.2-0.2,0.4-0.4,0.6
			c-0.2,0.2-0.4,0.3-0.6,0.3c-0.1,0-0.3,0-0.4,0l-0.9-0.2l0.6-3l0.9,0.2c0.4,0.1,0.7,0.3,0.8,0.6C22.8,45.9,22.8,46.3,22.7,46.8z"/>
		<polygon style="fill:#00205B;" points="25.5,48.5 25.5,47.2 27.7,47.1 27.6,46.7 25.5,46.7 25.5,45.5 27.8,45.5 27.8,45 24.9,45 
			25,49 27.9,48.9 27.9,48.5 		"/>
		<path style="fill:#00205B;" d="M31.9,44.7c-0.4-0.3-0.8-0.4-1.4-0.3L29,44.8l0.9,3.8l1.5-0.4c0.7-0.2,1-0.6,1.2-1.2
			c0.1-0.4,0.1-0.8,0-1.2C32.5,45.4,32.2,45,31.9,44.7z M32.1,47.2c-0.1,0.2-0.2,0.4-0.4,0.5c-0.1,0.1-0.2,0.1-0.4,0.2l-0.9,0.2
			l-0.7-3l0.9-0.2c0.4-0.1,0.8,0,1,0.2c0.2,0.2,0.4,0.6,0.6,1c0,0.1,0,0.3,0.1,0.4C32.2,46.8,32.2,47,32.1,47.2z"/>
		<path style="fill:#00205B;" d="M36.5,42c0.1,0.3,0.1,0.5,0.1,0.7c-0.1,0.1-0.3,0.3-0.5,0.6l0.2,0.3L37,43l1.5,2.3l0.4-0.3
			l-2.1-3.2L36.5,42z"/>
		<path style="fill:#00205B;" d="M41.5,40.5c-0.1,0-0.3,0-0.5,0.1c0-0.2,0.1-0.3,0.1-0.4c0-0.2-0.1-0.4-0.3-0.5
			c-0.2-0.2-0.4-0.3-0.7-0.3c-0.3,0-0.6,0.1-0.8,0.4c-0.3,0.3-0.4,0.5-0.4,0.8c0,0.3,0.1,0.5,0.3,0.8c0.2,0.2,0.3,0.3,0.5,0.3
			c0.1,0,0.2,0,0.4-0.1c-0.1,0.2-0.1,0.4-0.1,0.6c0,0.2,0.1,0.4,0.3,0.5c0.3,0.3,0.6,0.4,0.9,0.4c0.3,0,0.6-0.2,0.9-0.4
			c0.3-0.3,0.5-0.6,0.5-0.9c0-0.3-0.1-0.6-0.4-0.8C41.9,40.6,41.7,40.5,41.5,40.5z M39.9,41.1c-0.2,0-0.3,0-0.4-0.2
			c-0.1-0.1-0.2-0.3-0.2-0.4c0-0.2,0.1-0.3,0.2-0.5c0.2-0.2,0.3-0.3,0.5-0.2c0.2,0,0.3,0.1,0.4,0.2c0.1,0.1,0.2,0.3,0.2,0.4
			c0,0.2-0.1,0.3-0.2,0.5C40.3,41,40.1,41.1,39.9,41.1z M41.8,42.3c-0.2,0.2-0.4,0.3-0.6,0.3c-0.2,0-0.4-0.1-0.5-0.2
			c-0.2-0.2-0.2-0.3-0.2-0.5c0-0.2,0.1-0.4,0.3-0.5c0.2-0.2,0.4-0.3,0.6-0.3c0.2,0,0.4,0.1,0.6,0.2c0.2,0.2,0.2,0.4,0.2,0.6
			C42,41.9,41.9,42.1,41.8,42.3z"/>
		<path style="fill:#00205B;" d="M43.9,36.9c-0.3-0.2-0.7-0.4-1-0.5c-0.5-0.1-1,0.1-1.3,0.5c-0.2,0.3-0.3,0.7-0.2,1
			c0.1,0.3,0.3,0.6,0.6,0.8c0.3,0.2,0.6,0.3,0.9,0.2c0.3,0,0.6-0.2,0.8-0.5c0.1-0.2,0.2-0.3,0.2-0.5c0-0.2,0-0.3-0.1-0.5
			c0.4,0.4,0.7,0.7,0.8,1c0.1,0.2,0,0.5-0.1,0.6c-0.1,0.1-0.2,0.2-0.3,0.2c-0.2,0.1-0.4,0.1-0.6-0.1l-0.3,0.4
			c0.2,0.2,0.5,0.2,0.8,0.2c0.3,0,0.5-0.2,0.7-0.5c0.3-0.5,0.3-1-0.1-1.5C44.6,37.5,44.3,37.2,43.9,36.9z M43.4,38.2
			c-0.1,0.2-0.3,0.3-0.5,0.3c-0.2,0-0.4,0-0.6-0.2c-0.2-0.2-0.4-0.3-0.4-0.5c-0.1-0.2,0-0.4,0.1-0.6c0.1-0.2,0.3-0.3,0.5-0.3
			c0.2,0,0.4,0,0.7,0.2c0.2,0.2,0.4,0.4,0.4,0.6C43.6,37.9,43.5,38.1,43.4,38.2z"/>
		<path style="fill:#00205B;" d="M45.5,34.3c-0.3-0.3-0.5-0.6-0.7-0.9c-0.2-0.3-0.3-0.6-0.4-0.7l-0.4-0.2L43,35l0.4,0.2l0.9-2
			c0.2,0.4,0.4,0.8,0.7,1.2c0.5,0.7,1.1,1.2,1.7,1.6l0.2-0.5c-0.3-0.2-0.6-0.4-0.7-0.5C46,34.8,45.7,34.6,45.5,34.3z"/>
		<path style="fill:#00205B;" d="M43.3,23.7c-0.1-0.4-0.1-0.8-0.2-1.2c0,0,0,0,0-0.1c-0.1-0.5-0.2-1-0.4-1.6
			C40.5,13.7,33.9,8.5,26,8.5C16.4,8.5,8.5,16.4,8.5,26c0,0.3,0,0.5,0,0.8C9,36.1,16.6,43.5,26,43.5c9.7,0,17.5-7.8,17.5-17.5
			c0-0.4,0-0.7-0.1-1.1c0-0.1,0-0.3,0-0.4C43.4,24.2,43.4,24,43.3,23.7z M42.9,24.5c0.3,0.1,0.2,0.4,0,0.5c-0.1,0.1-0.4,0-0.4-0.2
			S42.7,24.4,42.9,24.5z M42.6,23.5c0.5,0.7-0.6,0.2-0.8-0.1C41.7,23.1,42.3,23.1,42.6,23.5z M42.5,25.6c0.1,0.2-0.3,0.3-0.5,0
			C41.9,25.3,42.3,25,42.5,25.6z M41.8,24.8c-0.3,0.2-0.6-0.1-0.6-0.3c0.1-0.3,0.3-0.6,0.6-0.4C42.2,24.5,42.1,24.6,41.8,24.8z
			 M42.3,22.7c-0.3,0-0.5-0.2-0.6-0.6c-0.1-0.5,0.4-0.4,0.6-0.1C42.5,22.2,42.6,22.7,42.3,22.7z M41.5,18.8c0.3,0.1,0.2,0.4,0,0.4
			s-0.4,0-0.4-0.2S41.3,18.8,41.5,18.8z M41.5,20.4c0.1-0.4,0.2-0.5,0.4-0.2c0.2,0.4,0.5,0.4,0.2,0.8c-0.2,0.3-0.5,0.3-0.8,0.1
			C40.9,21,41.4,20.8,41.5,20.4z M41,21.6c0.1,0.2,0,0.4,0,0.6c0,0.2,0,0.4,0.1,0.6c0.1,0.3-0.1,0.4-0.2,0.2
			c-0.1-0.1-0.2-0.2-0.3-0.2c-0.1,0-0.2-0.2-0.1-0.4c0.1-0.2,0-0.4-0.1-0.6c-0.1-0.2,0.1-0.5,0.2-0.5C40.8,21.4,40.9,21.4,41,21.6z
			 M41.1,24c-0.1,0.2-0.2,0.3-0.5,0.2c-0.4-0.1-0.4-0.6-0.1-0.7C40.7,23.4,41.1,23.8,41.1,24z M40.8,20.1c-0.1,0.3-0.6,0.2-0.8,0.1
			c-0.2,0-0.3-0.3-0.1-0.6c0.1-0.2,0.3-0.3,0.5-0.3C40.7,19.5,40.9,19.8,40.8,20.1z M39.2,22.9c-0.4,0.2-0.5-0.1-0.5-0.7
			c0-0.7,0.7-0.4,0.8-0.1C39.8,22.5,39.6,22.7,39.2,22.9z M39.5,23.7c-0.2,0.1-0.6,0.2-0.5-0.1c0-0.3,0.3-0.4,0.5-0.3
			C39.9,23.4,39.6,23.6,39.5,23.7z M30.7,23.8c-0.4,0-0.9-0.3-0.9-0.3c-0.3-0.3-0.4-0.7-0.5-1.1c0-0.4,0-0.9,0-1.2c0,0,0,0,0,0
			c0.1-0.1,0.2-0.3,0.4-0.3c0,0,0.4-0.1,0.5,0.3c0,0.1,0.1,0.3,0.1,0.4c-0.2,0.2-0.3,0.5-0.2,0.8c0.1,0.2,0.3,0.2,0.5-0.1
			c0.1-0.1,0.1-0.3,0.1-0.4c0,0,0,0,0,0c0.5-0.1,0.6-0.2,0.8,0.1c0.2,0.4,0.4,0.4,0.7,0.4c0.1,0,0.2,0,0.3,0
			c-0.1,0.1-0.1,0.2-0.2,0.3c-0.2,0.6-0.3,0.7-0.6,0.9S31,23.8,30.7,23.8z M31.7,24.5c0.1,0.1-0.2,0.2-0.3,0.2s-0.2,0.2-0.4,0.2
			c-0.3,0-0.3-0.4-0.2-0.5c0-0.1,0.2-0.2,0.4-0.2C31.2,24.3,31.7,24.3,31.7,24.5z M24.2,23.5c0.1,0.1,0.1,0.3,0,0.4
			c-0.1,0.1-0.2,0.2-0.1,0.3c0,0.1,0.1,0.2,0,0.3c-0.1,0.1,0,0.3,0.1,0.3c0.1,0.1,0.2,0.5,0,0.5c-0.2,0.1-0.3,0.3-0.2,0.5
			c0.1,0.1,0.1,0.3,0,0.4c-0.1,0.1-0.1,0.2,0,0.3c0,0.2,0.1,0.6-0.2,0.5c-0.3,0-0.2-0.4-0.4-0.5s-0.4-0.1-0.5-0.3
			c-0.1-0.2-0.2-0.5,0.1-0.7c0.3-0.2,0.5-0.1,0.5-0.4c0-0.3-0.2-0.4-0.4-0.4c-0.2,0.1-0.5-0.3-0.8,0c-0.1,0.1-0.7,0.5-0.9-0.3
			c-0.2-0.7,0.4-1.1,0.6-0.9c0,0,0.3,0.2,0.5,0.2c0.2-0.1,0.3-0.1,0.6,0.1c0.3,0.2,0.6,0,0.6-0.3c0-0.3,0.2-0.4,0.1-0.7
			c0-0.3,0.2-0.4,0.4-0.3c0.2,0.1,0.3,0.4,0.1,0.6C24.2,23.3,24.1,23.4,24.2,23.5z M20,23.7c0.1-0.4,0.4-0.4,0.6-0.3
			c0.1,0.1,0.1,0.2,0,0.5c-0.2,0.3,0,0.6-0.2,0.6C20,24.5,19.9,24,20,23.7z M20,22.2c0.1-0.1,0.2,0,0.4,0.1c0.2,0.2-0.1,0.4-0.2,0.3
			C20,22.5,19.8,22.3,20,22.2z M20.4,21.7c-0.2-0.1-1,0.1-1,0.1s-0.3,0.2-0.1,0.5c0.1,0.2,0.2,0.3,0.2,0.4c-0.1,0-0.4-0.2-0.6-0.2
			c-0.1-0.1-0.3-0.1-0.5-0.2c0-0.1,0-0.1,0-0.2c0-0.3-0.1-0.9,0.1-1.1c0.3-0.3,0.6-0.4,0.7-0.2c0,0,0,0.1,0.1,0.1c0,0-0.1,0-0.1,0
			c-0.3,0.2-0.5,0.7-0.2,0.7c0.2,0,0.5-0.1,0.7-0.3c0.1,0.1,0.3,0.2,0.5,0.1c0.6,0,0.8-0.3,1-0.5c0.2-0.2,0.5-0.3,0.7,0
			c0,0,0,0,0.1,0.1h0c0,0,0.1,0.1,0.1,0.4c0,0.2,0,0.4,0.2,0.4c0.1,0.1,0.4,0.1,0.6-0.1v0c0,0,0.3-0.2,0.4,0c0,0.2,0,0.4,0,0.5
			c0,0.1,0,0.1,0,0.2c0,0,0,0,0,0c-0.1,0.4-0.1,0.5-0.5,0.6c-0.3,0-0.8-0.2-1.4-0.3l0,0c0,0-0.4-0.1-0.5-0.4
			C20.7,22.1,20.6,21.8,20.4,21.7z M19.3,23.9c-0.1,0-0.5-0.1-0.6-0.3c0-0.2,0.2-0.3,0.4-0.2C19.8,23.6,19.5,23.9,19.3,23.9z
			 M15,22.6c-0.2,0.2-0.2,0.4-0.3,0.5c-0.1,0.1-0.3,0.1-0.3,0c0-0.1-0.1-0.1-0.3-0.1c-0.2,0-0.3,0-0.3-0.1c-0.1-0.1-0.1-0.3,0-0.4
			c0.1-0.1,0.3-0.1,0.4-0.1c0.2,0,0.3-0.1,0.5-0.2s0.3-0.1,0.4,0C15.3,22.3,15.2,22.5,15,22.6z M15,24.3c-0.1,0.1-0.4,0.2-0.6,0
			c-0.2-0.2,0.1-0.5,0.3-0.6c0.2-0.1,0.3-0.1,0.4,0.1C15.3,23.9,15.2,24.1,15,24.3z M12,21.1c0,0.1,0,0.2-0.1,0.2
			c-0.1,0-0.2,0.1-0.2,0.2c-0.1,0.1-0.2,0.1-0.3,0.1c-0.1,0-0.1-0.1-0.2-0.2s-0.1-0.3,0-0.4c0.1-0.1,0.2-0.1,0.3-0.1
			C11.7,20.8,12,21,12,21.1z M12,20.2c0.1,0.1,0,0.4-0.2,0.3c-0.2,0-0.2-0.3-0.3-0.4S11.7,19.8,12,20.2z M11.5,22.2
			c0.2,0,0.3-0.1,0.5-0.2c0.2-0.2,0.3,0,0.2,0.1c0,0.1-0.1,0.2-0.1,0.3c0,0.1-0.2,0.2-0.3,0.2c-0.2,0-0.3,0.1-0.4,0.2
			c-0.2,0.1-0.4,0-0.4-0.1c-0.1-0.1,0-0.2,0.1-0.3C11.1,22.2,11.3,22.2,11.5,22.2z M11.7,23.4c0,0.2-0.2,0.3-0.4,0.3
			c-0.2,0-0.3-0.1-0.2-0.3c0.1-0.2,0.2-0.2,0.4-0.2C11.6,23.2,11.8,23.2,11.7,23.4z M11,25.3c0.1-0.1,0.2-0.2,0.3-0.2
			c0.2,0,0.3,0,0.3,0c0.1,0.1,0.1,0.3-0.1,0.4c-0.1,0.1-0.4,0.1-0.5,0.1C10.9,25.6,10.9,25.3,11,25.3z M11.5,24.5
			c-0.1,0-0.4,0-0.4-0.1c-0.1-0.1,0-0.2,0.1-0.3c0.1-0.1,0.3-0.1,0.4-0.1c0.1-0.1,0.2-0.2,0.3-0.2c0.1-0.1,0.3-0.1,0.4-0.1
			c0.1,0,0.2,0.1,0.1,0.3c0,0.1-0.1,0.2-0.3,0.4C11.9,24.5,11.6,24.5,11.5,24.5z M12.1,24.8c0-0.1,0.1-0.2,0.4-0.1
			c0.2,0,0.3,0,0.3-0.1c0,0,0.2-0.1,0.2,0.1c0,0.2-0.2,0.3-0.3,0.4c-0.1,0.1-0.3,0.2-0.5,0.1C12.1,25.1,12.1,24.9,12.1,24.8z
			 M12.8,23.3c-0.3,0.1-0.4-0.1-0.5-0.2c-0.1-0.1-0.1-0.3,0.1-0.4c0.1-0.1,0.2-0.2,0.3-0.3c0.1-0.1,0.3-0.1,0.5-0.1
			c0.1,0,0.1,0.3,0.2,0.5C13.2,23,13,23.2,12.8,23.3z M12.5,21c0-0.2,0.1-0.2,0.2-0.2c0,0,0.5,0.1,0.7,0.2c0.2,0.1,0.1,0.3,0,0.5
			c-0.1,0.2-0.3,0.1-0.6,0.2c-0.2,0-0.2-0.2-0.2-0.3S12.6,21.2,12.5,21z M13.5,20.2c-0.1,0.2-0.3,0.1-0.5,0.1
			c-0.1,0-0.2-0.2-0.1-0.3c0.1-0.1,0.2-0.2,0.3-0.2C13.4,19.8,13.6,20,13.5,20.2z M13.1,17.7c-0.3,0.1-0.4-0.1-0.4-0.3
			c0-0.2,0.1-0.4,0.4-0.3C13.5,17.3,13.4,17.6,13.1,17.7z M12.8,18.8c0,0.1,0.1,0.1,0,0.3c0,0.2-0.2,0.1-0.4,0
			c-0.2-0.1-0.3-0.4-0.2-0.6c0.1-0.2,0.2-0.1,0.4-0.1C12.7,18.4,12.8,18.7,12.8,18.8z M13.1,23.8c0.1-0.3,0.2-0.4,0.5-0.5
			c0.2,0,0.3,0.1,0.3,0.2c0,0.1-0.2,0.5-0.4,0.6C13.2,24.3,13,24.1,13.1,23.8z M14,19.6c0-0.1,0.1-0.3,0.4-0.1
			c0.2,0.3,0.3,0.5,0.5,0.7c0.2,0.2,0.1,0.6-0.1,0.6c-0.2,0-0.4,0-0.5-0.2c-0.1-0.1-0.1-0.2-0.2-0.3c-0.1-0.1-0.1-0.2-0.1-0.3
			C14,19.9,14,19.8,14,19.6z M15,18.5c0,0,0.3,0.1,0.5,0.2c0.2,0.1,0.2,0.3-0.1,0.5c-0.2,0.2-0.2,0.4-0.3,0.5
			c-0.2,0.1-0.3-0.2-0.2-0.3c0-0.1,0-0.3-0.1-0.5C14.7,18.6,14.9,18.4,15,18.5z M14,21.6c0.1,0,0.3-0.1,0.5-0.2
			c0.2-0.1,0.3,0,0.3,0.1c0,0.1-0.1,0.2-0.3,0.2c-0.1,0-0.2,0.1-0.3,0.2c-0.1,0.2-0.3,0.1-0.4,0C13.8,21.8,13.7,21.6,14,21.6z
			 M15.3,21.2c0.2-0.1,0.3-0.3,0.3-0.4c0-0.1,0.1-0.3,0.3-0.2c0.3,0.2,0,0.6,0,0.6c-0.1,0.2,0,0.4-0.2,0.4c-0.2,0-0.4,0-0.5-0.1
			C15.1,21.5,15.1,21.4,15.3,21.2z M16.5,20c-0.2,0.1-0.4,0-0.4,0c-0.2-0.1-0.3-0.1-0.3-0.3c0-0.1,0-0.2,0.2-0.3
			c0.2-0.1,0.2-0.2,0.3,0C16.4,19.7,16.7,19.9,16.5,20z M16.8,20.8c0.2,0.1,0.1,0.5-0.2,0.5c-0.2,0-0.2-0.3-0.1-0.4
			C16.6,20.8,16.7,20.8,16.8,20.8z M15.7,22.8c0.1-0.1,0.3-0.1,0.5,0c0.2,0.1,0.2,0.1,0.2,0.2c0,0.1-0.3,0.1-0.4,0.2
			c-0.1,0.1-0.1,0.1-0.3,0.1c-0.1,0-0.2,0-0.2-0.2S15.6,22.9,15.7,22.8z M16.1,21.9c0.1-0.1,0.2-0.1,0.4-0.1c0.2,0,0.5,0.2,0.5,0.3
			c0,0.1-0.1,0.2-0.5,0.2S16,22,16.1,21.9z M16.8,19.1c0-0.1,0.2-0.2,0.4-0.1c0,0,0.4,0.1,0.5,0.2c0,0.1-0.2,0.2-0.3,0.2
			c-0.1,0-0.1,0.2-0.4,0.2C16.8,19.5,16.8,19.2,16.8,19.1z M17,16.3c0.1-0.2,0.2-0.2,0.4-0.1c0.1,0.1,0.2,0.6,0.1,0.8
			c0,0.2-0.3,0.3-0.5,0.2C16.7,17,16.9,16.5,17,16.3z M17.3,21c0.2-0.1,0.4-0.1,0.4,0.1c0,0.1,0,0.2,0,0.2c0,0.2,0,0.3-0.2,0.4
			c-0.2,0.1-0.3,0.1-0.4,0c-0.1-0.1,0-0.2,0-0.3C17.2,21.3,17.2,21.2,17.3,21z M17.4,22.5c0.2-0.1,0.4-0.3,0.4-0.5
			c0-0.1,0.2-0.2,0.3-0.1c0.1,0.2,0,0.5-0.1,0.6c-0.1,0.2-0.2,0.3-0.5,0.3c-0.2,0-0.4,0.1-0.4-0.1C17,22.7,17.2,22.6,17.4,22.5z
			 M17.8,20.3c-0.2,0.1-0.4-0.1-0.4-0.2c-0.1-0.1,0-0.2,0.1-0.3c0.1-0.1,0.2-0.1,0.3-0.1c0,0,0.3,0.1,0.4,0.2c0.1,0,0.1,0.2-0.1,0.2
			C18,20.1,18,20.3,17.8,20.3z M17.6,18.4c0-0.4,0.2-0.6,0.5-0.6c0.5,0.1,0.4,0.4,0.2,0.7C18.1,18.7,17.6,18.8,17.6,18.4z
			 M18.3,15.8c0.2,0.1,0.2,0.4,0,0.7s-0.4,0-0.4-0.4C18,15.8,18.1,15.7,18.3,15.8z M18.4,14.4c0.3-0.4,0.8,0.1,1,0.4
			c0.2,0.3,0,0.5-0.7,0.5C18.1,15.4,18.2,14.8,18.4,14.4z M19.1,16.6c0.4,0,0.2,0.4,0.1,0.7c-0.3,1.2-0.6,0.1-0.6,0.1
			C18.2,17,18.7,16.6,19.1,16.6z M18.8,19.9c0.1-0.2,0.2-0.2,0.3-0.1c0.2,0.1,0.3,0.3,0,0.5C18.9,20.4,18.7,20.1,18.8,19.9z
			 M20.9,15.9c-0.1,0.2-0.4,0.4-0.7,0.2c-0.3-0.2,0-0.5,0.1-0.7c0.1-0.2,0.3-0.2,0.5,0C20.9,15.5,21,15.7,20.9,15.9z M20.9,19.1
			c0,0.4-0.3,0.4-0.6,0.2c-0.2-0.2-0.1-0.8-0.1-1.1s0.2-0.3,0.4-0.1C21,18.3,20.9,18.7,20.9,19.1z M20.5,16.7
			c0.3,0.1,0.3,0.3,0.2,0.5c-0.1,0.2-0.3,0.2-0.5,0C19.9,16.9,20.2,16.6,20.5,16.7z M20.4,20.2c0.3-0.1,0.5,0.1,0.5,0.4
			c0,0.2-0.2,0.3-0.4,0.4c-0.2,0.1-0.4,0-0.5-0.3C20,20.5,20.2,20.4,20.4,20.2z M21.6,17c-0.3,0.1-0.3-0.6-0.2-0.9
			c0.1-0.4,0.4-0.4,0.6-0.1C22.3,16.6,21.9,17,21.6,17z M21.5,19.3c-0.2-0.1-0.1-0.5,0.1-0.6c0.1,0,0.3,0,0.3,0.2
			C21.9,19.2,21.7,19.4,21.5,19.3z M25.1,16.2c0.4,0.6-0.3,0.9-0.6,0.9c-0.3,0,0-0.5,0.1-0.8C24.6,15.9,24.9,15.9,25.1,16.2z
			 M24.7,14.5c0.3-0.2,0.4,0.2,0.6,0.5c0.1,0.3,0.1,0.4-0.3,0.4c-0.4,0-0.4-0.1-0.4-0.4C24.6,14.8,24.5,14.7,24.7,14.5z M24.4,17.4
			c0.1,0,0.2,0.2,0.2,0.3c-0.1,0.2-0.2,0.2-0.4,0.2c-0.2,0-0.2-0.2-0.1-0.4C24.1,17.3,24.2,17.3,24.4,17.4z M23.3,15.9
			c-0.5,0,0-0.8,0.2-1c0.2-0.3,0.4-0.1,0.5,0.2C24.2,15.8,23.8,15.8,23.3,15.9z M23.8,17c-0.1,0.3-0.4,0.3-0.8-0.1
			c-0.3-0.4,0.5-0.7,0.7-0.6C24,16.4,24,16.7,23.8,17z M23.6,18.7c-0.3,0.1-0.4-0.1-0.4-0.3c0-0.2,0.2-0.4,0.4-0.3
			C24,18.2,23.9,18.6,23.6,18.7z M22.9,19.8c0.3,0.1,0.2,0.5,0.1,0.6c-0.1,0.1-0.5,0-0.5-0.3S22.6,19.8,22.9,19.8z M22.5,18.3
			c0.1,0,0.2,0,0.3,0.2c0.1,0.3-0.2,0.5-0.4,0.4C22.3,18.8,22.4,18.4,22.5,18.3z M22.8,17.7c-0.1,0-0.3-0.1-0.3-0.2
			c0-0.1,0.1-0.2,0.3-0.2c0.2,0,0.3,0.2,0.3,0.3C23.1,17.6,23,17.7,22.8,17.7z M22.8,14.2c-0.6-0.1-0.5-0.4-0.3-0.7
			c0.2-0.3,0.5-0.5,0.7-0.3C23.9,13.7,23.4,14.3,22.8,14.2z M22.6,14.6c0.2,0,0.3,0.1,0.4,0.3c0.1,0.2-0.1,0.4-0.3,0.5
			c-0.2,0.1-0.4,0-0.5-0.2c-0.1-0.2,0-0.4,0.1-0.5C22.3,14.7,22.4,14.6,22.6,14.6z M24.3,21.9C24.1,22,24,21.8,24,21.7
			c0-0.1,0.1-0.3,0.2-0.3C24.5,21.5,24.4,21.7,24.3,21.9z M24.3,20.2c-0.1-0.2,0-0.5,0.2-0.4c0.3,0.2,0.2,0.6,0.1,0.7
			C24.5,20.5,24.3,20.3,24.3,20.2z M24.6,19.2c-0.4,0.1-0.4-0.3-0.4-0.5c0.1-0.3,0.2-0.4,0.4-0.3c0.1,0,0.1,0.1,0.4,0.2
			C25.2,18.7,25,19.1,24.6,19.2z M25.2,17.4c0.2-0.3,0.5-0.2,0.6,0c0.2,0.5-0.3,0.8-0.6,0.7C24.8,18.1,25,17.7,25.2,17.4z
			 M28.3,15.5c0.1,0.4,0,0.6-0.2,0.8c-0.1,0.1-0.2-0.1-0.3-0.4l0,0c0,0-0.1-0.4-0.5-0.3c-0.4,0.1-0.5-0.4-0.4-0.8
			c0-0.4,0.2-0.6,0.4-0.5c0.4,0.1,0.3,0.6,0.3,0.7c0,0.1,0.3,0.1,0.3,0.1l0,0C27.9,15.1,28.2,15,28.3,15.5z M38.1,17.3
			c0.1,0.2,0.2,0.4,0.1,0.5c-0.1,0.2-0.4,0.2-0.6,0.1c-0.2-0.1-0.4-0.4-0.2-0.7C37.5,16.9,38,17.1,38.1,17.3z M37.7,15.8
			c0.1-0.1,0.3-0.1,0.3,0.1c0,0.2,0,0.3-0.2,0.4c0,0-0.2,0.1-0.3,0C37.5,16.1,37.6,15.9,37.7,15.8z M37.6,19.5
			c0.1-0.1,0.3-0.2,0.4,0.1c0.2,0.4,0,0.7-0.3,0.6C37.3,20,37.5,19.6,37.6,19.5z M37.4,18.9c-0.4,0.3-0.6,0-0.6-0.4
			c0-0.4,0.2-0.4,0.5-0.4C37.7,18.3,37.8,18.6,37.4,18.9z M37.1,16.3c-0.1,0.4-0.4,0.1-0.7,0c-0.3-0.1-0.2-0.4,0-0.7
			c0.2-0.4,0.6-0.5,0.8-0.1C37.6,15.8,37.2,15.9,37.1,16.3z M36.2,15.2c-0.2,0.1-0.4-0.1-0.4-0.3s0.2-0.2,0.4-0.1
			C36.3,14.9,36.3,15.1,36.2,15.2z M36.1,16.8c0.3,0,0.4,0.1,0.4,0.4c0,0,0.1,0.3-0.2,0.3c-0.3,0-0.5-0.1-0.6-0.3
			C35.7,17,35.8,16.8,36.1,16.8z M35.2,19.5c-0.2-0.2,0-0.5,0.2-0.4c0.5,0.2,0.8,0.6,0.6,1.2c-0.2,0.5-0.6,0.4-0.5,0.1
			C35.5,20,35.4,19.7,35.2,19.5z M35,21.8c0.1-0.1,0.3-0.1,0.3,0c0.1,0.3-0.1,0.4-0.3,0.3C34.8,22.1,34.9,21.9,35,21.8z M34.8,21.4
			c-0.2-0.1,0-0.3,0.1-0.3c0.1-0.1,0.3,0,0.3,0.1C35.3,21.4,35,21.5,34.8,21.4z M35.8,18.1c0,0.3-0.2,0.5-0.8,0.3
			c-0.5-0.2,0-0.9,0.3-0.9C35.6,17.4,35.7,17.7,35.8,18.1z M34.9,19.9c0.3,0.5,0,0.9-0.4,1c-0.5,0.1-0.5-0.3-0.3-0.4
			c0.2-0.1,0.2-0.2,0.3-0.5C34.6,19.6,34.8,19.7,34.9,19.9z M34.2,18.5c0,0.2-0.2,0.3-0.6,0.1c-0.3-0.2-0.5-0.5-0.4-0.8
			c0.1-0.3,0.3-0.4,0.5-0.3C34.3,17.7,34.2,18.3,34.2,18.5z M33.2,16.9c-0.1,0.1-0.3,0.1-0.5,0.2c-0.1,0.1-0.2,0.2-0.3,0.3
			c-0.1,0.1-0.3,0.2-0.4,0.2c-0.1,0-0.2-0.1-0.2-0.3c0-0.1,0.1-0.3,0.3-0.5c0.2-0.2,0.5-0.3,0.7-0.3c0.2,0,0.4,0,0.5,0.1
			C33.4,16.7,33.3,16.8,33.2,16.9z M32,15c0.2-0.2,0.4,0,0.4,0.2c0,0,0.3,0.5-0.2,0.8c-0.5,0.3-0.3-0.2-0.3-0.2
			C32.1,15.5,31.8,15.2,32,15z M31.9,14.4c-0.3-0.3,0-0.5,0.2-0.7c0.3-0.1,0.4-0.1,0.6,0.1C33.2,14.3,32.2,14.6,31.9,14.4z
			 M32.1,13.4c-0.6,0-0.5-0.2-0.2-0.8c0.3-0.5,0.6-0.2,0.8-0.1C33,12.8,32.6,13.3,32.1,13.4z M31.8,19.8c0.3,0.3-0.1,0.8-0.4,0.7
			c-0.3-0.1-0.2-0.5-0.1-0.7C31.5,19.6,31.6,19.6,31.8,19.8z M30.1,20.2c-0.4-0.3,0.5-0.9,0.8-1.2c0.3-0.3,0.5,0,0.3,0.2
			c-0.2,0.2-0.3,0.3-0.3,0.6C30.9,20.5,30.4,20.5,30.1,20.2z M29.8,16.7c-0.3-0.3,0.1-0.5,0.3-0.6c0.2-0.1,0.5,0,0.6,0.1
			c0.2,0.1,0.2,0.4-0.1,0.6C30.4,17.1,30.1,17,29.8,16.7z M30.7,18.3c-0.3,0.1-0.4-0.3-0.3-0.6c0.1-0.3,0.3-0.3,0.5-0.3
			c0.3-0.1,0.2,0,0.5,0.2c0.3,0.2,0.3,0.6,0,0.6C31.1,18.2,31,18.2,30.7,18.3z M31.4,15.8c-0.2,0.1-0.4-0.1-0.5-0.2
			c-0.1-0.1,0.1-0.3,0.1-0.4c0.1-0.2,0.4-0.2,0.5,0C31.6,15.5,31.6,15.7,31.4,15.8z M30.6,12.8c-0.4-0.1-0.3-0.6-0.2-0.8
			c0.1-0.3,0.3-0.3,0.6-0.2c0.3,0.1,0.4,0.2,0.3,0.6C31.4,12.7,31,12.8,30.6,12.8z M30.7,13.5c0.4,0,0.7-0.2,0.5,0.5
			c-0.1,0.7-0.4,0.5-0.7,0.3c-0.3-0.2-0.6-0.4-0.5-0.7S30.4,13.5,30.7,13.5z M30.2,14.6c0,0,0.3,0.1,0.3,0.5c0,0.4-0.2,0.6-0.4,0.8
			c-0.3,0.1-0.3-0.5-0.3-0.8C29.8,14.7,29.9,14.6,30.2,14.6z M29.6,13.3c-0.3,0-0.4-0.1-0.3-0.5s0.4-0.4,0.5-0.2
			C30.2,13.3,29.6,13.3,29.6,13.3z M29.3,14.4c0,0.3-0.1,0.5-0.4,0.5c-0.3-0.1-0.5-0.1-0.5-0.3c0-0.2,0.2-0.2,0.3-0.5
			c0-0.2,0-0.5,0.3-0.4C29.4,13.8,29.4,14.3,29.3,14.4z M29.2,16.3c-0.2,0.2-0.5-0.2-0.4-0.6c0.1-0.4,0.3-0.5,0.4-0.3
			C29.5,15.6,29.5,16.1,29.2,16.3z M28.5,13.2c-0.3-0.1-0.4-0.6-0.2-0.8c0.2-0.1,0.3-0.1,0.5,0.1C29,12.8,28.7,13.3,28.5,13.2z
			 M28.3,17.8c-0.2,0.1-0.3,0.4-0.6,0.5c-0.3,0.1-0.1-0.6,0.1-0.9c0.2-0.3,0.5-0.2,0.6,0C28.5,17.4,28.6,17.7,28.3,17.8z M27.1,16.9
			c0.1-0.1,0.2-0.1,0.3,0.1c0,0,0.1,0.1-0.1,0.4c-0.1,0.3-0.3,0.5-0.6,0.4c-0.3,0-0.2-0.4,0-0.5C26.9,17.1,26.9,17,27.1,16.9z
			 M25.9,16.8c-0.4,0-0.4-0.5-0.2-0.7c0.2-0.2,0.3-0.2,0.6-0.1c0.2,0.1,0.3,0.2,0.3,0.5S26.3,16.8,25.9,16.8z M25.9,14.1
			c0.2-0.2,0.3-0.1,0.4-0.1c0.1,0.1,0.2,0.6,0,0.9c-0.2,0.3-0.5,0.2-0.6-0.1C25.7,14.6,25.7,14.3,25.9,14.1z M25.8,13.6
			c-0.4,0.2-0.5-0.2-0.3-0.7s0.2-0.4,0.7-0.5c0.4-0.1,0.4,0.1,0.5,0.5C26.7,13.3,26.2,13.4,25.8,13.6z M25.2,20.2
			c0-0.2,0.1-0.1,0.2-0.1c0.1,0,0.2,0.2,0.2,0.4c0,0.3-0.2,0.5-0.3,0.5c-0.1,0-0.2-0.2-0.2-0.3S25.2,20.3,25.2,20.2z M25.5,18.7
			c-0.2-0.2,0.1-0.3,0.3-0.4c0.2-0.1,0.3-0.1,0.4,0.1c0.3,0.3,0.3,0.4,0.3,0.5c0,0.1-0.2,0.1-0.5,0.2C25.6,19.2,25.6,18.9,25.5,18.7
			z M26.1,19.9c0-0.2,0.1-0.2,0.2-0.3c0.2-0.1,0.3,0,0.4,0.1c0.1,0.1,0.2,0.3,0.3,0.3c0.2,0.1,0.3,0,0.3,0.2c0,0.2-0.3,0.3-0.5,0.3
			c-0.2,0-0.4,0-0.6-0.2C26.1,20.3,26.1,20.1,26.1,19.9z M26.9,19.2c-0.1-0.3,0-0.6,0.3-0.5c0.3,0.1,0.3,0.2,0.6,0.2
			c0.3,0,0.3,0.2,0.3,0.3c-0.1,0.1-0.2,0.1-0.5,0.2C27.4,19.6,27.1,19.5,26.9,19.2z M27.9,20.5c0.2-0.3,0.1-0.7,0.4-0.8
			c0.4-0.2,0.6,0.1,0.6,0.4c0.1,0.3,0.2,0.5-0.4,0.8C28,21.2,27.7,20.7,27.9,20.5z M28.7,19c-0.3-0.3-0.3-0.7-0.1-0.9
			c0.2-0.2,0.3-0.1,0.4,0.1c0,0,0.1,0.3,0.2,0.6C29.2,19.1,29,19.3,28.7,19z M29,16.9c0.2-0.2,0.5,0.1,0.6,0.4c0,0,0.1,0.4,0.1,0.7
			c0,0.3-0.1,0.4-0.4,0.1C29,17.7,28.8,17.2,29,16.9z M29.3,19.4c0.1-0.1,0.2-0.3,0.3-0.5c0-0.2,0.2-0.3,0.3-0.2
			c0.2,0.3-0.1,0.7-0.3,0.8S29.2,19.5,29.3,19.4z M32.5,23.8c0.2,0,0.3,0.2,0.2,0.4c-0.2,0.2-0.5,0.1-0.5-0.1S32.2,23.8,32.5,23.8z
			 M32.1,21.6c-0.1-0.2-0.1-0.4,0-0.8c0.1-0.4,0.3-0.6,0.6-0.3c0.3,0.3,0.1,0.9,0.1,0.9C32.7,21.8,32.2,21.8,32.1,21.6z M32.3,19.2
			c0-0.4,0.2-0.6,0.4-0.5c0.6,0.2,0.5,0.6,0.2,1S32.2,19.6,32.3,19.2z M33.3,19.6c0.1-0.2,0.3-0.2,0.3-0.1c0.6,0.6,0,0.9-0.4,0.8
			C32.9,20.2,33.2,19.9,33.3,19.6z M33.3,20.6c0.3,0.1,0.2,0.3,0.1,0.4c-0.2,0.1-0.3-0.1-0.3-0.2C33.1,20.8,33.2,20.6,33.3,20.6z
			 M33.2,23.9c0,0,0.3-1,0.5-1.3c0,0,0-0.1,0.1-0.1c0.1,0,0.3,0,0.4,0c0.5-0.1,0.6-0.2,0.8,0.1c0.2,0.4,0.6,0.7,1.1,0.6h0
			c-0.1,0-0.2,0.1-0.3,0.1c-0.7,0.3-0.7,0.3-1.3,0.4c-0.6,0.1-0.3,0.1-1.1,0.2C33.3,23.9,33.3,23.9,33.2,23.9L33.2,23.9z M35.7,22.4
			c0.1-0.3,0.6-0.4,0.7-0.2c0,0,0.1,0.2,0,0.4C36.3,22.8,35.6,22.7,35.7,22.4z M36.3,21.3c-0.3,0.1-0.4-0.1-0.4-0.3
			c0-0.2,0.2-0.4,0.4-0.3C36.7,20.8,36.6,21.2,36.3,21.3z M36.5,19.9c-0.2-0.2,0-0.6,0.4-0.3c0.7,0.7,0.3,1.2,0.1,1
			C36.8,20.6,36.7,20.2,36.5,19.9z M37.1,21.2c0.3-0.2,0.3-0.4,0.6-0.4c0.2,0,0.3,0.2,0.4,0.4c0.1,0.2,0,0.4-0.4,0.4
			c-0.4,0-0.7,0.1-0.9,0C36.7,21.5,36.8,21.4,37.1,21.2z M38.1,22.2c0.4,0.1,0.4,0.5,0,0.5c-0.5,0-0.9,0-0.8-0.2
			C37.3,22.3,37.7,22.1,38.1,22.2z M37.9,23.1c0,0,0.4-0.1,0.5,0.2c0.1,0.2-0.1,0.4-0.5,0.3S37.7,23.2,37.9,23.1z M38.4,16.8
			c0-0.3-0.1-0.9,0.3-0.6c0.4,0.3,0.9,1.4,0.1,1.1C38.5,17.3,38.4,17.1,38.4,16.8z M39,20c0.4,0.5,0.3,1.1,0,1.1
			c-0.4,0.1-0.4-0.6-0.5-1C38.4,19.7,38.8,19.8,39,20z M38.9,18.9c0.2-0.1,0.3-0.1,0.5,0.1c0.2,0.3,0,0.8-0.3,0.7
			C38.8,19.6,38.7,19,38.9,18.9z M39.5,21c0-0.4,0.2-0.3,0.4-0.2c0.3,0.1,0.3,0.4,0,0.6C39.6,21.7,39.5,21.4,39.5,21z M40.3,16.6
			c0.2,0.1,0.3,0.4,0,0.6s-0.7-0.2-0.6-0.4C39.8,16.5,40,16.4,40.3,16.6z M40.7,18.2c0.2,0.3,0,0.5-0.5,0.3c-0.2-0.1-0.5-0.1-1-0.1
			c-0.6,0-0.5-0.4-0.3-0.5c0.3-0.1,0.4-0.1,0.7-0.2C40.4,17.5,40.6,18,40.7,18.2z M39.2,15.6c0.1-0.1,0.2,0,0.3,0.2
			c0.1,0.2-0.2,0.5-0.4,0.4C39,16,39.1,15.6,39.2,15.6z M37.1,13.8c0.7-0.1,0.7,0.1,0.7,0.3c0,0.2-0.4,0.1-0.4,0.3s0.4,0.5,0.6,0.3
			c0.2-0.2,0.6-0.3,0.8,0c0.2,0.3-0.4,0.7-0.8,0.6c-0.2-0.1-0.3-0.2-0.9-0.4C36.5,14.6,36.4,14,37.1,13.8z M35.7,13.3
			c0.1-0.1,0-0.3,0.1-0.4c0-0.1,0.2-0.3,0.4-0.3c0.2,0,0.3,0.2,0.4,0.4c0.1,0.2,0.1,0.4-0.1,0.7c-0.2,0.2-0.4,0.1-0.6,0.1
			C35.7,13.7,35.6,13.5,35.7,13.3z M35.2,16.4c-0.4-0.1-0.7-0.3-0.5-0.5c0.2-0.1,0.5-0.3,0.8-0.1C36.1,16.1,35.6,16.4,35.2,16.4z
			 M35.3,13.8c0,0.1,0.1,0.3,0.2,0.3c0.1,0.1,0,0.3-0.1,0.4c-0.2,0.1-0.2,0.3-0.2,0.5c0,0.2-0.3,0.4-0.4,0.3c-0.1,0-0.2-0.1-0.2-0.3
			c0-0.2,0.1-0.4,0.3-0.6c0.1-0.2,0.1-0.3,0.1-0.6C35,13.6,35.2,13.6,35.3,13.8z M34.5,12c0.2-0.4,0.5-0.6,0.6-0.4
			c0.2,0.4-0.3,1.1-0.3,1.1C34.5,13.3,34.3,12.4,34.5,12z M34.8,16.7c0.4,0.2,0.3,0.7-0.2,0.8c-0.4,0-0.7-0.5-0.5-0.7
			C34.4,16.5,34.5,16.5,34.8,16.7z M34,11.2c0.1,0.1,0.3,0.5,0,0.8c-0.3,0.3-0.6,0-0.6-0.4C33.3,11.3,33.6,11,34,11.2z M33.6,12.8
			c0.2-0.1,0.4,0,0.4,0.1c0.1,0.2,0.1,0.7-0.2,0.9c-0.3,0.2-0.6,0-0.6-0.3C33.3,13.2,33.4,13,33.6,12.8z M33.8,15.2
			c0.2,0.5-0.2,0.5-0.4,0.8c-0.2,0.2-0.6,0.2-0.5-0.1c0.1-0.2,0.1-0.5,0.1-0.7c-0.1-0.2-0.1-0.4,0.1-0.5
			C33.3,14.5,33.6,14.7,33.8,15.2z M32.4,10.5c0.3-0.2,0.5,0,0.6,0.1c0.1,0.2,0.1,0.8-0.3,1.1C32.4,12,32,11.8,32,11.4
			C32,11,32.1,10.7,32.4,10.5z M31.3,10c0,0,0.1-0.1,0.3-0.1c0.2,0,0.3,0.1,0.3,0.3c0.1,0.2-0.1,0.4-0.2,0.4c-0.2,0.1-0.4,0-0.5-0.2
			C31.1,10.3,31.2,10.1,31.3,10z M31.1,10.8c0.1,0.1,0.2,0.3,0,0.3c-0.2,0.1-0.3,0.1-0.5-0.1c0,0-0.2-0.1,0-0.3
			C30.7,10.7,30.9,10.8,31.1,10.8z M30.1,9.6c0.3,0,0.6,0,0.6,0.3c0,0.3,0,0.4-0.2,0.6c-0.3,0.2-0.6,0.5-0.7,0.1
			C29.7,10.2,29.7,9.6,30.1,9.6z M29.7,11.2c0.3,0.4,0.1,0.6-0.2,0.9c-0.3,0.3-0.4-0.1-0.6-0.4c-0.2-0.3-0.2-0.4,0.2-0.6
			C29.5,10.9,29.6,10.9,29.7,11.2z M28.9,9.3c0.2,0,0.3,0.1,0.4,0.2c0.2,0.2,0,0.4-0.1,0.3C29,9.8,28.8,10,28.6,10
			c-0.2,0-0.2-0.1-0.3-0.3C28.2,9.5,28.7,9.3,28.9,9.3z M28.4,10.4c0.2,0.1,0.2,0.2,0.1,0.3c0,0.2-0.2,0.3-0.3,0.5
			c-0.1,0.1-0.1,0.3-0.1,0.4c0,0.2-0.2,0.3-0.2,0.4c-0.1,0-0.2,0-0.3-0.1c-0.1-0.1-0.1-0.3-0.1-0.6c0-0.3,0.3-0.5,0.4-0.7
			C28.1,10.5,28.3,10.4,28.4,10.4z M27.5,9.2c0.1-0.1,0.3-0.1,0.3,0.1c0,0.2,0,0.3-0.2,0.4c0,0-0.2,0.1-0.3,0
			C27.3,9.5,27.4,9.3,27.5,9.2z M27.3,13.2c0.1-0.3,0.3-0.5,0.5-0.3c0.4,0.3,0.2,0.9-0.1,0.9C27.3,13.9,27.3,13.5,27.3,13.2z
			 M26.1,11c0,0,0.7-0.4,0.4-0.5c-0.3-0.1-0.2-0.9-0.1-1.2c0.1-0.3,0.3-0.3,0.5-0.1C27.1,9.2,27,9.7,27,9.9c0,0.3,0,0.3-0.1,0.5
			c-0.1,0.2-0.1,0.2,0.2,0.3c0.3,0.1-0.1,0.6-0.3,0.7c-0.2,0.1-0.3,0.6-0.7,0.4C25.8,11.6,25.9,11.1,26.1,11z M25.3,9.1
			c0.2-0.2,0.5-0.2,0.5,0.1c0.1,0.3,0.1,0.5-0.1,0.7c-0.2,0.2-0.3,0.1-0.4,0C25.3,9.8,25.2,9.4,25.3,9.1z M25.3,10.4
			c0.1,0.1,0.1,0.3-0.1,0.6c-0.2,0.3-0.2,0.4-0.1,0.9c0.1,0.4-0.1,0.8-0.4,0.5c-0.4-0.3-0.5-0.7-0.3-0.9c0.2-0.2,0.2-0.5,0.4-0.8
			C24.9,10.3,25.2,10.2,25.3,10.4z M24.3,9.1c0.3-0.2,0.4,0.3,0.4,0.5s-0.1,0.3-0.2,0.3C23.7,9.9,24,9.3,24.3,9.1z M24.6,12.8
			c0.4,0.5,0.3,0.7-0.2,0.6c-0.5-0.1-0.9-0.3-0.6-0.6S24.4,12.6,24.6,12.8z M23.7,11.9c-0.1,0.1-0.2,0.4-0.3,0.6
			c-0.1,0.2-0.2,0.2-0.4,0.1c-0.2-0.1-0.1-0.3,0.1-0.4c0.2-0.1,0.1-0.3,0.2-0.4c0-0.3,0.3-0.4,0.4-0.3
			C23.7,11.5,23.9,11.6,23.7,11.9z M23.4,9.3c0.2,0.1,0.2,0.2,0.2,0.4c0,0,0,0.2-0.2,0.2c-0.2-0.1-0.3-0.3-0.3-0.4
			C23.2,9.3,23.3,9.2,23.4,9.3z M23.2,10.6c0.4,0.1,0.3,0.4,0.1,0.6c-0.2,0.2-0.3-0.1-0.4-0.2C22.9,10.8,23,10.5,23.2,10.6z
			 M22.7,12c-0.1,0.1-0.4,0-0.4-0.2c0-0.2,0.1-0.3,0.3-0.2C22.9,11.6,22.8,11.9,22.7,12z M22.1,9.7c0.1-0.1,0.4-0.3,0.5,0.1
			c0,0.2,0.2,0.6,0,0.6c-0.2,0.1-0.4,0-0.4-0.1C22.1,10.1,22,9.8,22.1,9.7z M21.2,9.6c0.2-0.2,0.4,0.2,0.5,0.4c0,0,0.1,0.4,0,0.7
			c0,0.3-0.2,0.4-0.4,0C21.1,10.4,21,9.8,21.2,9.6z M21.6,11.9c0,0,0.1,0.2,0.4,0.4c0.4,0.3-0.1,0.6-0.3,0.5c-0.2,0-0.3-0.1-0.6,0.1
			c-0.3,0.2-0.7,0.3-0.7-0.2c0-0.5,0.4-0.6,0.6-0.7C21.1,11.9,21.5,11.7,21.6,11.9z M20.7,10.3c0.6,1.2-0.2,1.4-0.2,1.1
			c0-0.3-0.2-0.8-0.2-1.1C20.1,9.9,20.4,9.9,20.7,10.3z M19.8,14.3c0.1-0.4,0.2-0.3,0.4-0.4c0.4-0.2,0.8-0.1,1.1,0.1
			c0.3,0.2-0.1,0.4-0.2,0.7c-0.2,0.3-0.3,0-0.7,0.1S19.8,14.7,19.8,14.3z M19.7,19c-0.3,0.5-0.7,0.2-0.9-0.1
			c-0.1-0.3,0.2-0.7,0.6-0.6C19.8,18.4,19.9,18.7,19.7,19z M19.3,10.5c0.1-0.1,0.2-0.2,0.3-0.1c0.1,0.1,0.1,0.2,0.1,0.4
			c0,0-0.1,0.2-0.3,0.1C19.3,10.9,19.3,10.7,19.3,10.5z M19.2,11.8c0.1-0.1,0.3-0.1,0.4,0.1c0,0,0.2,0.5,0.2,0.8
			c0,0.2-0.2,0.3-0.5,0.3c-0.3,0-0.3-0.2-0.5-0.5c-0.2-0.2,0-0.3,0.2-0.4C19.1,12.1,19.1,12,19.2,11.8z M18.8,10.8
			c0.1,0.2,0.1,0.5-0.1,0.7c-0.2,0.2-0.6-0.3-0.5-0.5C18.2,10.8,18.6,10.6,18.8,10.8z M18.4,13.1c0.4,0.1,0.6,0.4,0.3,0.7
			c-0.3,0.3-0.4-0.1-0.5-0.3C18.1,13.3,18.1,13,18.4,13.1z M17.4,11.4c0.6-0.1,0.8,0.7,0.6,0.9c-0.2,0.3-0.6,0.3-0.7,0
			C17.2,12.1,16.8,11.5,17.4,11.4z M17.3,14.9c-0.1,0.3-0.2,0.6-0.5,0.7c-0.3,0.1-0.3-0.2-0.3-0.5c0-0.3,0-0.5,0.1-0.7
			c0.1-0.2,0.2-0.2,0.3-0.2C17.5,14.1,17.4,14.6,17.3,14.9z M16.6,12.3c0.3,0.4,0.5,0.8,0,0.9c-0.5,0-0.5-0.3-0.5-0.5
			C16.1,12,16.3,11.9,16.6,12.3z M16.2,17.4c0.2,0.1,0.3,0.7-0.1,0.6c-0.3-0.1-0.5,0.1-0.7,0c-0.2-0.1-0.1-0.3,0.2-0.5
			C16,17.3,16.2,17.4,16.2,17.4z M16,16.6c0,0.2,0,0.3-0.4,0.4c-0.4,0.1-0.1-0.5,0-0.8c0.1-0.3,0.3-0.2,0.4-0.1
			C15.9,16.2,16,16.4,16,16.6z M15,13.3c0.1-0.2,0.3-0.2,0.6-0.1c0.4,0.2,0.3,0.8-0.1,0.8C15.2,14.1,14.9,13.5,15,13.3z M15.6,14.8
			c0.1,0.1,0.3,0.5,0,0.8c-0.3,0.3-0.7,0-0.7-0.4C14.9,14.8,15.2,14.5,15.6,14.8z M14.5,13.8c0.3,0.1,0.2,0.4,0,0.5
			c-0.1,0.1-0.4,0-0.4-0.2C14.2,13.9,14.3,13.8,14.5,13.8z M14.1,16.8c0-0.2,0.2-0.4,0.1-0.8c-0.1-0.4-0.1-0.5,0.2-0.2
			c0.3,0.2,0.3,0.5,0.3,0.5c0.1,0.3,0.1,0.5-0.3,0.6C14.1,17,14.1,16.9,14.1,16.8z M14,17.8c0.2,0,0.2,0.2,0.2,0.5
			c0,0.2-0.1,0.2-0.3,0.5c-0.2,0.2-0.3-0.2-0.3-0.3c-0.1-0.2,0-0.3,0.1-0.4C13.7,17.8,13.8,17.8,14,17.8z M12.9,15.3
			c0.1-0.2,0.3-0.2,0.5-0.1c0.3,0.2,0.3,0.7-0.1,0.7C13,15.9,12.8,15.4,12.9,15.3z M12.2,16.1c0.2-0.2,0.3-0.2,0.5-0.1
			c0.1,0,0.2,0.2,0.2,0.4c0,0.3-0.1,0.3-0.3,0.3s-0.3,0.1-0.5,0C11.8,16.6,12,16.4,12.2,16.1z M11.9,17.4c0.2,0.1,0.3,0.4,0,0.5
			c-0.3,0.1-0.7-0.2-0.6-0.4C11.4,17.2,11.6,17.2,11.9,17.4z M10.8,18.5c0.1-0.1,0.3,0,0.4,0.1c0.1,0.1,0.4,0.4,0.6,0.6
			c0.2,0.2,0.3,0.2,0.3,0.3c0,0.1-0.3,0.2-0.4-0.1c-0.2-0.2-0.4-0.2-0.5-0.2c-0.1,0-0.4-0.1-0.5-0.3C10.6,18.8,10.7,18.6,10.8,18.5z
			 M10.2,19.8c0.1-0.2,0.4-0.2,0.6,0c0.2,0.2,0.3,0.5,0.1,0.5c-0.2,0.1-0.2,0.3-0.3,0.4c-0.1,0.1-0.4-0.1-0.5-0.3
			C10,20.3,10.1,20,10.2,19.8z M10.1,24.3c-0.2-0.1-0.3-0.2-0.2-0.5s0.3-0.5,0.4-0.6c0.1-0.1,0.2-0.1,0.2,0.1c0,0,0.1,0.2,0.1,0.2
			c0,0.1,0,0.2-0.1,0.3c-0.1,0.1,0,0.2,0,0.3C10.5,24.3,10.3,24.3,10.1,24.3z M10.3,25.4c-0.1,0.2-0.4,0.4-0.6,0.5
			c-0.2,0.1-0.5,0.3-0.6,0.2c-0.2-0.2-0.1-0.5,0.2-0.6c0.2-0.1,0.3-0.4,0.5-0.5C10.2,24.8,10.5,25,10.3,25.4z M9.7,21.2
			c0-0.2,0.1-0.2,0.3,0c0.2,0.2,0.2,0.2,0.3,0.3c0.1,0.1,0.1,0.2,0.1,0.3C10.4,21.9,10.2,22,10,22c-0.2,0-0.4-0.1-0.4-0.3
			C9.5,21.5,9.7,21.4,9.7,21.2z M9.3,22.7c0.1-0.1,0.2-0.1,0.5-0.1c0.2,0,0.3,0.2,0.1,0.3c-0.2,0.1-0.2,0.3-0.3,0.4
			c-0.1,0.1-0.2,0-0.4,0C9,23.2,9.2,22.8,9.3,22.7z M9,24.4c0.1-0.2,0.1-0.2,0.2-0.2c0.2,0,0.2,0.1,0.2,0.2s0.1,0.1,0.1,0.2
			c0,0.1,0,0.1-0.1,0.2c0,0-0.1,0.1-0.3,0.1C9.1,24.7,9,24.5,9,24.4z M43.1,26.4c-0.1,4.6-2,8.7-5,11.7c-3.1,3.1-7.4,5-12.1,5
			s-9-1.9-12.1-5c-2.9-2.9-4.8-6.9-5-11.3c0,0,0-0.1,0-0.1c0.3-0.1,0.6-0.2,0.9-0.4c0.5-0.4,0.7-0.4,1.1-0.3c0.4,0.1,0.6,0,0.9-0.2
			c0.2-0.2,0.3-0.2,0.6-0.3c0.3,0,0.5-0.2,0.8-0.4c0.2-0.2,0.6-0.5,0.9-0.4c0.3,0.1,0.6,0.2,0.8,0.1c0.2-0.1,0.5-0.3,0.7-0.5
			c0.1-0.2,0.4-0.6,0.7-0.7c0.2,0,0.4-0.1,0.7-0.1c0.5,0.1,0.8,0.5,1.3,0.8c0.5,0.3,1,0.5,1.6,0.7c0.5,0.2,1,0.3,1.4,0.5
			c0.4,0.2,0.2,0.1,0.5,0.3c0,0,0.3,0.2,0.3,0.4c0,0.1,0,0.4,0,0.4c-0.1,0.5-0.1,0.9-0.1,1.1c-0.1,0.2-0.1,0.3-0.1,0.6
			c0,0.3-0.1,0.4-0.1,0.6c0,0.2-0.2,0.4-0.2,0.5c-0.1,0.1-0.1,0.4-0.2,0.5c-0.2,0.1-0.4,0.2-0.6,0.2c-0.2,0-0.5,0-0.6,0.1
			c-0.2,0.1-0.4,0.2-0.7,0.2c-0.2,0-0.5,0-0.8,0.1c-0.3,0-0.3,0.1-0.7,0.1c-0.3,0-0.6-0.1-0.8-0.1c-0.2,0-0.4,0-0.6,0.1
			c-0.2,0.1-0.2,0.3-0.1,0.4c0.1,0.1,0.2,0.3,0.5,0.3c0.3,0,0.5,0.1,0.7,0.1c0.2,0,0.7,0,1,0s0.8,0,1.1-0.1c0.3-0.1,0.7-0.2,0.9-0.2
			c0,0,0.3-0.1,0.5,0c0.2,0,0.5,0.1,0.6,0.2c0.1,0,0.7,0.1,0.9,0.1c0.3,0,0.6,0,0.9,0l1.2-0.1c0.6,0,0.5-0.5,0.3-0.6
			c-0.1,0-0.4,0.1-0.6,0.1c0,0-0.6,0.1-0.9-0.2c-0.1-0.1-0.1-0.3,0-0.6s0.1-0.6,0-0.8c-0.1-0.2-0.1-0.4-0.1-0.4
			c0-0.2,0.1-0.3,0.2-0.4c0.3-0.3,0.5-0.3,0.7-0.2c0,0,0.2,0.1,0.2,0.4c-0.1,0.2-0.2,0.3-0.2,0.4c0,0.2,0,0.2,0.1,0.4
			c0.1,0.2,0.1,0.3,0,0.5c-0.2,0.3-0.1,0.5,0.2,0.5c0,0,0.5,0,0.6-0.1c0.2-0.1,0.3-0.3,0.3-0.5c0-0.2-0.2-0.3,0-0.5
			c0.3-0.3,0.2-0.5,0.2-0.8s0.1-0.2,0.1-0.5c0.1-0.2-0.1-0.4-0.3-0.3c-0.1,0.2-0.2-0.5-0.1-0.7c0.1-0.1,0.2-0.2,0.2-0.4
			c0.1-0.2,0.1-0.1,0-0.4c-0.1-0.3-0.2-0.1-0.3-0.2c-0.3-0.1-0.2-0.6-0.1-1c0.1-0.3,0.3,0,0.5,0.4c0.2,0.3,0.2-0.4,0.2-0.7
			c-0.1-0.3,0.1-0.9,0-1.1c-0.1-0.3-0.1-0.6,0-0.9c0.1-0.2,0.1-0.7,0.1-1.1c0.1-0.2,0.3-0.3,0.7-0.3c0,0.1,0,0.3,0,0.4
			c0,0.2-0.1,0.4-0.2,0.6c-0.1,0.2,0,0.5,0.1,0.6c0.1,0.1,0,0.2,0,0.3c-0.1,0.1-0.1,0.3,0,0.4c0.1,0.1,0,0.1,0,0.3
			c0,0.3,0,0.2,0,0.5c0,0.3-0.1,0.6,0.1,0.6c0.2,0,0.4-0.1,0.5,0.1c0.1,0.2,0.1,0.6,0.3,0.5c0.2-0.1,0.3-0.3,0.3-0.6
			c0-0.3-0.2-0.6-0.2-1c0-0.4,0-0.4,0-0.8c0.1-0.4,0.1-0.4,0-0.8c0-0.2-0.1-0.3-0.1-0.5c0.1,0.1,0.3,0.2,0.8,0.2h0c0,0,0,0.1,0,0.1
			c-0.2,0.3-0.2,0.4-0.1,0.6c0.1,0.2,0.4,0.3,0.1,0.6c-0.2,0.2-0.1,0.6,0.3,0.5c0.4-0.1,0.5,0,0.5,0.3c-0.1,0.3,0.2,0.4,0.3,0.3
			c0.8,0,0.8,0.9,0.3,1c-0.5,0.1-0.5,0.2-0.8,0.3c-0.2,0.1-0.3,0.6-0.2,0.8c0.1,0.2,0.2,0.3,0.1,0.5c-0.2,0.2-0.2,0.4-0.1,0.6
			c0.1,0.2,0.2,0.4,0,0.6c-0.2,0.2-0.3,0.7-0.1,0.9c0.2,0.3,0.3,0.6,0.1,0.8c-0.2,0.2-0.2,0.1-0.5,0c-0.3-0.1-0.5,0.1-0.6-0.2
			C27.7,29.3,28,29.4,28,29c0-0.3,0,0,0-0.3c0-0.3,0.3-0.6,0.1-1c-0.1-0.4,0.2-0.5,0.1-0.8s-0.4-0.4-0.5-0.7s-0.1-0.5-0.4-0.5
			c-0.3,0-0.1,1.4-0.1,1.9c-0.1,0.5-0.1,0.7,0,0.9c0.1,0.2,0.1,0.3,0.1,0.5c0,0.4-0.2,0.5-0.1,0.7c0.1,0.2,0,0.3-0.3,0.4
			c-0.3,0-0.5,0.1-0.6,0.4c-0.1,0.2,0.3,0.2,0.4,0.2c0.3-0.1,0.7-0.2,0.8-0.1c0,0,0.4,0.3,0.7,0.3c0.3,0,0.8,0.1,1.1,0.1
			c0.3,0,1.3,0,1.8-0.1c0.5-0.1,1.2-0.3,1.6-0.1c0,0,0.8,0.3,1.1,0.3c0.3,0,1,0,1.4,0c0.3,0,1.2,0.2,1.5,0.1c0.3,0,0.6-0.1,0.5-0.3
			c-0.1-0.2-0.3-0.2-0.7-0.3c-0.4-0.2-0.4-0.3-1.1-0.3s-0.8,0.2-1.1,0.1c-0.3,0-0.5-0.2-0.9-0.4c-0.4-0.2-0.9-0.4-1.2-0.3
			c-0.3,0-1.2,0.2-1.5,0.1c-0.3-0.1-0.8-0.3-1-0.6c-0.2-0.4-0.2-0.6-0.2-0.9c0.2-0.7,0-1.5,0-1.5s0-0.3,0.1-0.5
			c0.1-0.1,0.2-0.5,0.4-0.6c0.3-0.1,0.4-0.2,0.7-0.2c0.4,0,0.7-0.1,1.1-0.2c0.4,0,2-0.3,2.5-0.5c0.5-0.2,0.9-0.4,1.2-0.5
			c0.3-0.1,0.7-0.2,1.1-0.3c0.1,0.3,0.5,0.5,1.3,0.2c0.9-0.4,1.1-0.3,1.4,0.2c0.3,0.5,0.6,0.6,1.1,0.7c0.5,0.1,0.8,0,0.9,0.4
			c0.1,0.3,0.3,0.7,0.8,0.6C42.7,26.1,42.9,26.2,43.1,26.4C43.1,26.3,43.1,26.3,43.1,26.4z"/>
	</g>
	<g>
		<path d="M84.3,38.5c-1.6,0-2.6,0.5-3.2,1.3c-0.6,0.7-0.9,1.6-0.9,2.6c0,1.1,0.3,2,0.9,2.8c0.7,0.8,1.7,1.2,3,1.2
			c1.4,0,2.4-0.3,3.2-1.2c0.6-0.7,1-1.6,1-2.7c0-1-0.1-1.8-0.7-2.5C86.9,39.1,85.8,38.5,84.3,38.5z M86,45c-0.5,0.6-1,0.9-1.8,0.9
			c-0.8,0-1.6-0.5-2-1c-0.5-0.7-0.6-1.4-0.6-2.4c0-1.1,0.3-2,0.7-2.6c0.5-0.6,1-0.9,1.8-0.9c0.9,0,1.6,0.5,1.9,1
			c0.5,0.7,0.6,1.5,0.6,2.5C86.8,43.7,86.5,44.4,86,45z"/>
		<path d="M99.9,38.5c-1.6,0-2.6,0.5-3.2,1.3c-0.6,0.7-0.9,1.6-0.9,2.6c0,1.1,0.3,2,0.9,2.8c0.7,0.8,1.7,1.2,3,1.2
			c1.4,0,2.4-0.3,3.2-1.2c0.6-0.7,1-1.6,1-2.7c0-1-0.1-1.8-0.7-2.5C102.5,39.1,101.4,38.5,99.9,38.5z M101.6,45
			c-0.5,0.6-1,0.9-1.8,0.9c-0.8,0-1.6-0.5-2-1c-0.5-0.7-0.6-1.4-0.6-2.4c0-1.1,0.3-2,0.7-2.6c0.5-0.6,1-0.9,1.8-0.9
			c0.9,0,1.6,0.5,2,1c0.5,0.7,0.6,1.5,0.6,2.5C102.4,43.7,102.1,44.4,101.6,45z"/>
		<path d="M172.7,38.8c-0.6,0-1.2,0-1.2,0v0.1c0,0,0.3,0,0.5,0.2c0.2,0.2,0.1,0.4,0,0.7c-0.2,0.4-0.5,0.9-0.9,1.5
			c-0.5,0.8-0.6,0.8-0.6,0.8s-0.3-0.5-0.9-1.4c-0.4-0.7-0.9-1.3-0.8-1.6c0.1-0.3,0.5-0.3,0.5-0.3v-0.1c0,0-0.3,0-1.4,0
			c-1.1,0-1.2,0-1.2,0l0,0.1c0,0,0.2,0,0.4,0.2s0.3,0.4,0.5,0.6c0.5,0.8,1.9,3.2,1.9,3.2s0,0.6,0,0.8c0,0.4,0,1,0,1.4
			c0,0.4,0,0.6-0.2,0.9c-0.2,0.2-0.5,0.3-0.5,0.3v0.1c0,0,0.3,0,1.4,0c1.1,0,1.4,0,1.4,0v-0.1c0,0-0.3,0-0.5-0.3
			c-0.2-0.3-0.2-0.5-0.2-0.9c0-0.4,0-1,0-1.4l0,0c0-0.1,0-0.8,0-0.8s2-3.2,2.3-3.5c0.4-0.5,0.7-0.5,0.7-0.5v-0.1
			C173.8,38.8,173.4,38.8,172.7,38.8z"/>
		<path d="M80.7,38.8c0,0-0.4,0-1.1,0c-0.6,0-1.2,0-1.2,0v0.1c0,0,0.3,0,0.5,0.2c0.2,0.2,0.1,0.4,0,0.7c-0.2,0.4-0.5,0.9-0.9,1.5
			c-0.5,0.8-0.6,0.8-0.6,0.8s-0.3-0.5-0.9-1.4c-0.4-0.7-0.9-1.3-0.8-1.6c0.1-0.3,0.5-0.3,0.5-0.3v-0.1c0,0-0.3,0-1.4,0
			c-1.1,0-1.2,0-1.2,0l0,0.1c0,0,0.2,0,0.4,0.2c0.2,0.2,0.3,0.4,0.5,0.6c0.5,0.8,1.9,3.2,1.9,3.2s0,0.6,0,0.8c0,0.4,0,1,0,1.4
			c0,0.4,0,0.6-0.2,0.9c-0.2,0.2-0.5,0.3-0.5,0.3v0.1c0,0,0.3,0,1.4,0s1.4,0,1.4,0v-0.1c0,0-0.3,0-0.5-0.3c-0.2-0.3-0.2-0.5-0.2-0.9
			c0-0.4,0-1,0-1.4l0,0c0-0.1,0-0.8,0-0.8s2-3.2,2.3-3.5C80.3,38.8,80.7,38.8,80.7,38.8L80.7,38.8z"/>
		<path d="M133.5,38.8L133.5,38.8c0,0.1,0.3,0.1,0.5,0.3c0.3,0.3,0.1,0.6,0,0.8s-1,2.6-1,2.6l-0.9,2.5l-1.2-3l-1-2.4
			c-0.2-0.7,0.2-0.8,0.2-0.8v-0.1c0,0-0.4,0-1.1,0c-0.8,0-1.3,0-1.3,0v0.1c0,0,0.5,0,0.8,0.7l2.6,6.7h1.4c0,0,2.3-6.2,2.4-6.4
			c0.1-0.2,0.1-0.4,0.3-0.6c0.2-0.3,0.5-0.3,0.5-0.3v-0.1c0,0-0.4,0-1.2,0S133.5,38.8,133.5,38.8z"/>
		<path d="M113.9,38.8L113.9,38.8c0,0.1,0.2,0.1,0.4,0.3c0.2,0.3,0.2,0.5,0.2,0.9c0,0.4,0,1,0,1.4v0.4c0,0.1,0,0.8,0,0.9
			c0,0.5,0,1.5-0.4,2.1c-0.5,0.9-1.5,0.9-2.1,0.8c-0.7,0-1.3-0.4-1.6-1c-0.3-0.5-0.3-1.4-0.3-1.9c0-0.1,0-0.8,0-0.9v-0.4l0,0
			c0-0.4,0-1,0-1.4c0-0.4,0-0.6,0.2-0.9c0.2-0.3,0.4-0.3,0.4-0.3v-0.1c0,0-0.4,0-1.4,0s-1.2,0-1.2,0v0.1c0,0,0.2,0,0.4,0.3
			c0.2,0.3,0.2,0.5,0.2,0.9c0,0.4,0,1,0,1.4V43c0,0.9,0.1,1.6,0.4,2.1c0.3,0.5,0.7,0.8,1.1,1c0.5,0.3,1.3,0.4,2,0.4s1.3-0.2,1.7-0.5
			c0.4-0.3,0.6-0.5,0.8-0.9c0.2-0.4,0.4-1.2,0.4-2.1v-1.5c0-0.4,0-1,0-1.4c0-0.4,0-0.6,0.2-0.9c0.2-0.3,0.4-0.3,0.4-0.3v-0.1
			c0,0-0.5,0-1,0C114.4,38.8,113.9,38.8,113.9,38.8z"/>
		<path d="M124.6,38.8L124.6,38.8c0,0.1,0.2,0.1,0.4,0.3c0.2,0.3,0.2,0.5,0.2,0.9c0,0.4,0,1,0,1.4v2.1c0,0.4,0,1.1,0,1.5
			c0,0.4,0,0.6-0.2,0.9c-0.2,0.2-0.4,0.3-0.4,0.3v0.1c0,0,0.3,0,1.4,0c1.1,0,1.3,0,1.3,0v-0.1c0,0-0.2,0-0.4-0.3
			c-0.2-0.3-0.2-0.5-0.2-0.9c0-0.4,0-1,0-1.5v-2.1c0-0.4,0-1,0-1.4c0-0.4,0-0.6,0.2-0.9c0.2-0.3,0.4-0.3,0.4-0.3v-0.1
			c0,0-0.3,0-1.4,0C124.9,38.8,124.6,38.8,124.6,38.8z"/>
		<path d="M156.5,38.8L156.5,38.8c0,0.1,0.2,0.1,0.5,0.3c0.2,0.3,0.2,0.5,0.2,0.9c0,0.4,0,1,0,1.4v2.1c0,0.4,0,1.1,0,1.5
			c0,0.4,0,0.6-0.2,0.9c-0.2,0.2-0.4,0.3-0.4,0.3v0.1c0,0,0.3,0,1.4,0s1.3,0,1.3,0v-0.1c0,0-0.2,0-0.4-0.3c-0.2-0.3-0.2-0.5-0.2-0.9
			c0-0.4,0-1,0-1.5v-2.1c0-0.4,0-1,0-1.4c0-0.4,0-0.6,0.2-0.9c0.2-0.3,0.5-0.3,0.5-0.3v-0.1c0,0-0.3,0-1.4,0S156.5,38.8,156.5,38.8z
			"/>
		<path d="M95.4,38.7c0,0-0.2,0.1-1,0.1c-0.3,0-4.4,0-4.8,0c-0.8,0-1-0.1-1-0.1h-0.1c0,0,0.1,0.2,0,0.8c0,0.4,0,0.8,0,0.8h0.1
			c0,0,0.2-0.5,0.5-0.8c0.2-0.2,0.5-0.2,0.8-0.2c0.2,0,0.6,0,1,0c0.2,0,0.4,0,0.4,0v3.6c0,0,0,0.3,0,0.6c0,0.4,0,1,0,1.4
			c0,0.4,0,0.6-0.2,0.9c-0.2,0.2-0.4,0.3-0.4,0.3v0.1c0,0,0.3,0,1.4,0c1.1,0,1.3,0,1.3,0v-0.1c0,0-0.2,0-0.5-0.3
			c-0.2-0.3-0.2-0.5-0.2-0.9c0-0.4,0-1,0-1.4c0-0.4,0-0.6,0-0.6l0-3.6c0,0,0.2,0,0.3,0c0,0,0.8,0,1,0c0.3,0,0.6,0,0.8,0.2
			c0.2,0.2,0.5,0.8,0.5,0.8h0.1c0,0,0-0.4,0-0.8C95.4,38.9,95.4,38.7,95.4,38.7L95.4,38.7z"/>
		<path d="M166.4,38.6c0,0-0.2,0.2-1,0.2c-0.3,0-4.4,0-4.8,0c-0.8,0-1-0.2-1-0.2h-0.1c0,0,0.1,0.3,0,0.9c0,0.4,0,0.8,0,0.8h0.1
			c0,0,0.2-0.5,0.5-0.8c0.2-0.2,0.6-0.2,0.8-0.2c0.2,0,0.6,0,1,0c0.2,0,0.4,0,0.4,0v3.6c0,0,0,0.3,0,0.6c0,0.4,0,1,0,1.4
			c0,0.4,0,0.6-0.2,0.9c-0.2,0.2-0.4,0.3-0.4,0.3v0.1c0,0,0.3,0,1.4,0c1.1,0,1.3,0,1.3,0v-0.1c0,0-0.2,0-0.4-0.3
			c-0.2-0.3-0.2-0.5-0.2-0.9c0-0.4,0-1,0-1.4c0-0.4,0-0.6,0-0.6l0-3.6c0,0,0.2,0,0.4,0c0,0,0.8,0,1,0c0.3,0,0.6,0,0.8,0.2
			c0.3,0.2,0.5,0.8,0.5,0.8h0.1c0,0,0-0.4,0-0.8C166.4,38.9,166.5,38.6,166.4,38.6L166.4,38.6z"/>
		<path d="M121.9,38.8L121.9,38.8c0,0.1,0.2,0.1,0.4,0.3c0.2,0.3,0.2,0.5,0.2,0.9c0,0.4,0,1.3,0,1.7v1.1v1.1l-4.1-5.1
			c-0.1,0-0.3,0-0.8,0c-0.2,0-0.3,0-0.5,0c-0.3,0-0.6,0-0.6,0v0.1c0,0,0.2,0,0.4,0.3c0.2,0.3,0.2,0.5,0.2,0.9c0,0.4,0,1,0,1.4v1v1.1
			c0,0.4,0,1,0,1.4c0,0.4,0,0.6-0.2,0.9c-0.2,0.2-0.4,0.3-0.4,0.3v0.1c0,0,0.3,0,1,0c0.6,0,1,0,1,0v-0.1c0,0-0.2,0-0.4-0.3
			c-0.2-0.3-0.2-0.5-0.2-0.9c0-0.4,0-1,0-1.4v-2.1c0-0.3,0-0.7,0-1l4.7,5.8h0.6c0-0.1-0.1-0.5-0.1-1.8v-1.6v-1.1c0-0.4,0-1.3,0-1.7
			c0-0.4,0-0.6,0.2-0.9c0.2-0.3,0.4-0.3,0.4-0.3v-0.1c0,0-0.4,0-1,0C122.2,38.8,121.9,38.8,121.9,38.8z"/>
		<path d="M142.2,44.5c0,0-0.2,0.5-0.6,0.8c-0.3,0.2-0.6,0.2-0.8,0.2c-0.2,0-1,0-1,0c-0.1,0-1.1,0-1.7,0v-2.8c0.4,0,1.2,0,1.6,0
			c0.4,0,0.6,0,0.9,0.2c0.2,0.2,0.3,0.4,0.3,0.4h0.1c0,0,0-0.4,0-1c0-0.7,0-1,0-1h-0.1c0,0,0,0.2-0.3,0.4c-0.3,0.2-0.5,0.2-0.9,0.2
			c-0.4,0-1.2,0-1.6,0v-2.5c0,0,1.2,0,1.4,0c0,0,0.8,0,1,0c0.3,0,0.6,0,0.8,0.2c0.4,0.2,0.6,0.8,0.6,0.8h0.1c0,0,0-0.4,0-0.8
			c0-0.5,0-0.8,0-0.8h-0.1c0,0-0.1,0-0.9,0c-0.3,0-0.8,0-1.1,0c0,0-2.3,0-2.6,0c-1.1,0-1.3,0-1.3,0v0.1c0,0,0.2,0,0.5,0.3
			c0.2,0.3,0.2,0.5,0.2,0.9c0,0.4,0,1,0,1.4v2.1c0,0.4,0,1.1,0,1.5c0,0.4,0,0.6-0.2,0.9c-0.2,0.2-0.4,0.3-0.4,0.3v0.1
			c0,0,0.3,0,1.4,0c0.1,0,2.4,0,2.5,0l0,0c0.2,0,0.3,0,0.3,0c0.3,0,0.8,0,1.1,0c0.8,0,0.9,0,0.9,0h0.1c0,0,0-0.2,0-0.8
			C142.3,45,142.3,44.5,142.2,44.5L142.2,44.5z"/>
		<path d="M154.5,42.4c-0.3-0.1-1.2-0.6-1.6-0.9c-0.8-0.5-1-0.8-1-1.2c0-0.6,0.4-1.1,1.1-1.1c0.6,0,1,0.1,1.4,0.4
			c0.6,0.4,0.9,1,0.9,1h0.1c0,0,0-0.2,0-0.8c0-0.6,0-0.9,0-0.9h-0.1c0,0-0.1,0.3-0.2,0.3c-0.2,0-0.5-0.3-1.1-0.4
			c-1-0.2-1.8-0.1-2.4,0.2c-0.5,0.3-1,0.9-0.9,1.7c0,0.3,0.2,0.8,0.6,1.2c0.4,0.4,1.4,0.9,1.9,1.1c1,0.6,1.3,0.8,1.2,1.5
			c0,0.4-0.4,1.1-1.6,1c-1.7-0.1-2.1-1.7-2.1-1.7h-0.1c0,0,0.1,0.4,0.1,1.1s-0.1,1.3-0.1,1.3h0.1c0,0,0.1-0.2,0.5-0.3
			c0.2,0,0.4,0,0.8,0.2c0.7,0.3,1.7,0.2,2.2,0c0.9-0.3,1.5-1,1.6-1.7C155.8,43.4,155.2,42.8,154.5,42.4z"/>
		<path d="M149,45.3c-0.2-0.2-1.5-2.1-1.7-2.4c0.1,0,0.1,0,0.2,0c1-0.2,1.8-0.9,1.8-2.1c0-1.2-0.8-1.7-1.4-1.9
			c-0.5-0.1-2.4-0.1-3.5-0.1c-0.9,0-1.2,0-1.2,0v0.1c0,0,0.2,0,0.4,0.3c0.2,0.3,0.2,0.5,0.2,0.9c0,0.4,0,1,0,1.4v2.1
			c0,0.4,0,1.1,0,1.5c0,0.4,0,0.6-0.2,0.9c-0.2,0.2-0.5,0.3-0.5,0.3v0.1c0,0,0.3,0,1.4,0c1.1,0,1.3,0,1.3,0v-0.1c0,0-0.2,0-0.5-0.3
			c-0.2-0.3-0.2-0.5-0.2-0.9c0-0.4,0-1.8,0-1.8l0.7,0l2.1,3c0,0.1,0.1,0.1,0.2,0.1h1.5h0.5v-0.1c0,0-0.3,0-0.6-0.2
			C149.4,45.8,149.3,45.6,149,45.3z M145.1,42.4v-3.1c0,0,0.3,0,1.3,0s1.7,0.4,1.8,1.5c0,0.7-0.4,1.3-1,1.5
			C146.3,42.5,145.1,42.4,145.1,42.4z"/>
		<path d="M73.2,45.8c-0.2-0.2-0.9-0.8-1.2-1.1l-2.5-2.8c0,0,2.6-2.3,3.1-2.7c0.1-0.1,0.4-0.3,0.6-0.4v-0.1c-0.3,0-0.8,0-1.2,0
			c-0.8,0-1.3,0-1.3,0v0.1c0,0,0.2,0,0.4,0.1c0.7,0.2-0.2,0.9-0.5,1.2c0,0-0.3,0.3-0.9,0.7c-0.6,0.5-1.4,1.1-1.5,1.1
			c0,0,0-0.6,0-0.6c0-0.4,0-1,0-1.4c0-0.4,0-0.6,0.2-0.9c0.2-0.3,0.4-0.3,0.4-0.3v-0.1c0,0-0.3,0-1.4,0c-1.1,0-1.3,0-1.3,0v0.1
			c0,0,0.2,0,0.5,0.3C67,39.4,67,39.6,67,40c0,0.4,0,1,0,1.4c0,0,0,2.1,0,2.2c0,0,0,0.1,0,0.1c0,0.4,0,0.9,0,1.3
			c0,0.4,0,0.6-0.2,0.9c-0.2,0.3-0.4,0.3-0.4,0.3v0.1c0,0,0.3,0,1.4,0s1.3,0,1.3,0v-0.1c0,0-0.2,0-0.4-0.3c-0.2-0.3-0.2-0.5-0.2-0.9
			c0-0.4,0-0.9,0-1.3c0,0,0-0.1,0-0.1c0-0.1,0-1,0-1l1.3,1.5l1.9,2.1c0,0,0.1,0.1,0.1,0.1h2v-0.1C73.7,46.1,73.5,46.1,73.2,45.8z"/>
	</g>
	<g>
		<path d="M84.3,10h-5.4V7c0.7-0.4,0.8-0.8,0.8-0.8l-4.5-0.4c0,0,0.4,0.2,0.4,0.6l0,3.6H65.3l0.5,0.5h21.8c0.2,0,1.5,0.1,1.8-0.5
			l-3.2-2.1L84.3,10z"/>
		<path d="M74,23.3l-3.9-1.9c0,0.2,0,0.4-0.2,0.8c-0.8,1.2-2.9,3.8-4.9,5.4l0,0.1c1.2-0.3,3.6-0.9,7.8-4
			C73.5,23.7,73.9,23.5,74,23.3z"/>
		<path d="M82,20.4c0,0,0.6,0.1,1.1,0c1.7-0.3,2.1-1,2.1-1v-4.8c0.9-0.4,1.1-0.8,1.1-0.8l-3.3-2.2l-1.2,1.3h-9.1L69,11.7
			c0,0,0.3,0.3,0.3,0.8l0,8.1c0,0,0.9,0,1.7-0.4c1-0.4,1.5-1.1,1.5-1.1h3.2v7.1c0,0.8-0.5,0.8-1.1,0.8c-1.5-0.1-4-0.4-4-0.4l0.1,0.2
			c2.2,0.7,3,1,3.3,1.2c0.5,0.3,0.7,1,0.7,2c0,0,0.8,0.2,1.4,0.2c1.2-0.1,2.9-0.9,2.9-3.4v-7.7H82V20.4z M72.6,18.6v-5.2H82v5.2
			H72.6z"/>
		<path d="M80.4,22.1l0,0.2c1.7,1.2,3.5,3.4,4.3,5.2c0.4,0.3,0.8,0.5,1.2,0.5c1.1,0.1,2.2-0.7,2-2C87.7,24.8,84.9,22.3,80.4,22.1z"
			/>
		<path d="M113.9,8.8h-2.6L108.2,7c0.2,0.1,0.2,0.4,0.2,0.4v1.4v5.8l-1.7-1.1l-1.5,1.6h-1.4c1.5-1.8,2.7-3.4,3.5-5
			c0.7-0.1,0.8-0.5,0.8-0.5l-3.1-1.6c0,0,0,0.3-0.3,0.9c-0.2,0.4-0.4,0.8-0.6,1.3l-1.5-1l-1.4,1.4h-0.4V8.5v0V7.3
			c0.6-0.4,0.7-0.7,0.7-0.7l-3.7-0.4c0,0,0.3,0.2,0.3,0.5v1.7v2.3h-3.4l0.5,0.5H98v4h-4.7l0.5,0.5h6.7c-0.1,0.1-0.2,0.3-0.3,0.4
			c-0.7,0.8-1.4,1.5-2.1,2.2l-2.6-0.8c0.2,0.2,0.2,0.4,0.2,0.4v2.6c-1.3,1.1-2.6,2-3.8,2.6l0,0.4c1.1-0.4,2.4-0.9,3.7-1.7v7.8
			c0,0,0.6,0.1,1.2,0c1.4-0.3,1.6-1,1.6-1v-0.8h4.9v1.6c0,0,0.7,0.1,1.2-0.1c1-0.3,1.5-1,1.5-1v-8.4c0.4-0.1,1-0.5,1-0.7l-2.8-1.9
			l-1.2,1.3h-2.4c0.3-0.3,0.6-0.5,0.8-0.8c0.7-0.7,1.3-1.4,1.9-2h5.1v14.2c0,0,0.6,0.3,1.3,0c1.2-0.4,1.3-1.1,1.3-1.1v-4.8
			c0.8,0.1,2.9,1.3,2.6,3.3c0,0,1.7-0.2,3.1-1.3c1.3-1,1.3-2.9,1.3-3.6c-0.2-2.6-1.7-4.8-4.9-6.9c1.1-1.6,3.1-3.5,4.1-5.1
			c0.5-0.1,1-0.4,1.1-0.7l-2.8-2.7L113.9,8.8z M103.2,27.3h-4.9v-3.9h4.9V27.3z M103.2,19v3.8h-4.9v-2.7c0.5-0.4,1-0.8,1.5-1.2
			H103.2z M100.8,11.3h2.7c-0.7,1.2-1.5,2.6-2.6,4h-0.1V11.3z M112.3,15.6c0.9,1,2.7,2.9,2.9,5.7c0.2,2.1-1,2.9-2.7,2.7
			c-0.6-0.1-1.5-0.2-1.5-0.2V9.2h3.3C114.1,10.8,112.6,14.7,112.3,15.6z"/>
		<path d="M139.3,21.5c-2.3-2.6-3.7-6.2-4-7.5h9.5c0.2,0,1.6,0.1,1.9-0.6l-3.3-2.2l-2.1,2.2h-6.4c0.1-1.2,0.3-3.8,0.3-4.7l0.1-1.6
			c0.8-0.5,1.1-1,1.1-1l-4.9-0.4c0,0,0.2,0.2,0.2,0.7c0,0,0.3,3.1,0,6.9h-9.5l0.5,0.6h8.9c-0.3,2.8-0.8,5.9-2.1,8.5
			c-1.6,3.4-4.7,5.9-7.2,6.9l0.1,0.4c3.8-0.7,7.6-2.7,9.5-5.9c1.5-2.5,2.3-5,2.8-8.4c0.7,4.1,3.4,10.5,7.8,13.3
			c0.7,0.4,1.4,0.7,1.4,0.7s-0.1-0.7,0.1-1.4c0.4-1.4,1.8-1.9,3.1-1.9l0-0.3C143.9,25.4,141.8,24.3,139.3,21.5z"/>
		<path d="M156.2,10.5c0.6,0.5,1.1,0.6,1.5,0.4c0.9-0.3,1.4-1.1,1.1-2.3c-0.4-1.2-2.4-2.3-5.2-2.3l0.1,0.2
			C154.9,7.3,155.8,9,156.2,10.5z"/>
		<path d="M161.4,9.9c0.4,0.7,1.2,0.9,1.7,0.8c1.2-0.2,1.6-1.3,1.2-2.4c-0.6-1.6-3.3-2.6-5.5-2.5l0.1,0.1
			C160.2,6.5,161.3,8.3,161.4,9.9z"/>
		<path d="M171.3,19.2l-1.9,2h-5.3v-1.3l4.3-2.2c0.8,0.1,1.4-0.3,1.6-0.7l-0.7-0.5l3.8-2c0.6,0,1-0.2,1.1-0.5l-3.2-2.5l-0.7,0.8
			h-4.2l4.5-3.9c1.1-0.1,1.2-0.6,1.2-0.6l-5.1-2.2c0.4,0.5-0.8,5.8-1.1,6.7h-11.1c-0.1-0.5-0.3-1.2-0.6-1.8h-0.2c-0.4,2-1,3-1.8,3.6
			c-0.8,0.6-1.2,1.1-1.2,1.9c-0.1,1,0.8,1.7,1.7,1.7c1.3,0,2.4-1.4,2.4-3.6c0-0.5,0-0.8-0.1-1.3h15.7c-0.4,1-1.1,2.7-1.5,3.4
			l-0.3-0.2l-2.1-1.5l-0.8,1h-10.1l0.5,0.5l9.6,0c0,0-0.8,1.5-1.8,3.1l-3.1-0.6C161,18.7,161,19,161,19v1.3v0.9h-10l0.5,0.5h9.6v3.5
			c0,0.8-0.2,1-1.3,0.8c-0.2,0-3.1-0.6-3.7-0.6l0,0.4c2.2,0.4,3.8,0.9,3.9,2.7c0,0.8-0.1,1.1-0.1,1.1s0.9,0,1.5-0.1
			c2.5-0.6,2.9-1.9,2.9-3.3v-4.5h8.5c0.2,0,1.4,0.1,1.7-0.5L171.3,19.2z"/>
	</g>
</g>
</svg>
