<?xml version="1.0" encoding="utf-8"?>
<!-- Generator: Adobe Illustrator 16.0.4, SVG Export Plug-In . SVG Version: 6.00 Build 0)  -->
<!DOCTYPE svg PUBLIC "-//W3C//DTD SVG 1.1//EN" "http://www.w3.org/Graphics/SVG/1.1/DTD/svg11.dtd">
<svg version="1.1" id="_x30_8-C" xmlns="http://www.w3.org/2000/svg" xmlns:xlink="http://www.w3.org/1999/xlink" x="0px" y="0px"
	 width="316.2px" height="54.5px" viewBox="0 0 316.2 54.5" style="enable-background:new 0 0 316.2 54.5;" xml:space="preserve">
<g>
	<g>
		<path style="fill:#231815;" d="M111.8,18.3c-3.6,0.1-5.8,1.1-7.3,3c-1.3,1.6-2,3.6-2,5.9c-0.1,2.5,0.6,4.6,2.1,6.3
			c1.6,1.8,3.9,2.7,6.8,2.7c3.1,0.1,5.5-0.8,7.3-2.7c1.5-1.6,2.2-3.7,2.3-6.3c0.1-2.3-0.3-4.1-1.5-5.6
			C117.9,19.7,115.3,18.2,111.8,18.3z M115.9,33c-1.1,1.4-2.3,2-4,2.1c-1.9,0-3.7-1.2-4.5-2.4c-1-1.7-1.4-3.2-1.4-5.4
			c0-2.5,0.6-4.5,1.7-5.9c1-1.4,2.4-2,4-2.1c2.1,0,3.6,1,4.4,2.4c1,1.7,1.4,3.5,1.4,5.6C117.6,30.1,117,31.6,115.9,33z"/>
		<path style="fill:#231815;" d="M147.4,18.3c-3.6,0.1-5.8,1.1-7.3,3c-1.3,1.6-2,3.6-2,5.9c0,2.5,0.7,4.6,2.1,6.3
			c1.6,1.8,3.9,2.7,6.8,2.7c3.1,0.1,5.6-0.8,7.3-2.7c1.5-1.6,2.2-3.7,2.3-6.3c0-2.3-0.3-4.1-1.5-5.6
			C153.5,19.7,150.9,18.2,147.4,18.3z M151.5,33c-1,1.4-2.3,2-4,2.1c-1.9,0-3.7-1.2-4.5-2.4c-1-1.7-1.4-3.2-1.4-5.4
			c0-2.5,0.6-4.5,1.7-5.9c1-1.4,2.4-2,4-2.1c2.1,0,3.6,1,4.4,2.4c1,1.7,1.4,3.5,1.4,5.6C153.2,30.1,152.6,31.6,151.5,33z"/>
		<path style="fill:#231815;" d="M313.7,18.9c-1.4,0-2.8-0.1-2.8-0.1V19c0,0,0.8,0.1,1.2,0.5c0.5,0.4,0.3,0.9,0,1.6
			c-0.4,0.9-1.1,2-2.1,3.5c-1.1,1.7-1.4,1.9-1.4,1.9s-0.8-1.1-2.1-3.2c-1-1.5-2-3-1.8-3.7c0.2-0.6,1.2-0.6,1.2-0.6v-0.2
			c0,0-0.7,0.1-3.2,0.1c-2.6,0-2.8-0.1-2.8-0.1l0,0.2c0,0,0.4,0,1,0.4c0.5,0.3,0.8,0.8,1,1.3c1.1,1.7,4.3,7.3,4.3,7.3s0,1.5,0,1.7
			c0,1,0,2.3-0.1,3.2c0,0.9,0,1.4-0.5,2c-0.5,0.6-1.1,0.6-1.1,0.6v0.2c0,0,0.7-0.1,3.3-0.1c2.6,0,3.1,0.1,3.1,0.1v-0.2
			c0,0-0.6,0-1.1-0.6c-0.5-0.6-0.5-1.1-0.5-2c-0.1-0.9-0.1-2.3-0.1-3.2h0c0-0.3,0-1.8,0-1.8s4.6-7.2,5.2-7.9c0.8-1,1.7-1,1.7-1v-0.2
			C316.2,18.8,315.3,18.9,313.7,18.9z"/>
		<path style="fill:#231815;" d="M103.8,18.8c0,0-0.9,0.1-2.5,0.1c-1.4,0-2.8-0.1-2.8-0.1V19c0,0,0.8,0.1,1.2,0.5
			c0.5,0.4,0.3,0.9-0.1,1.6c-0.4,0.9-1.1,2-2.1,3.5c-1.1,1.7-1.4,1.9-1.4,1.9s-0.8-1.1-2.1-3.2c-1-1.5-2-3-1.7-3.7
			c0.2-0.6,1.2-0.6,1.2-0.6v-0.2c0,0-0.7,0.1-3.2,0.1c-2.5,0-2.8-0.1-2.8-0.1l0,0.2c0,0,0.4,0,1,0.4c0.5,0.3,0.8,0.8,1,1.3
			c1.1,1.7,4.3,7.3,4.3,7.3s0,1.5,0,1.7c0,1,0,2.3-0.1,3.2c0,0.9,0,1.4-0.5,2c-0.5,0.6-1.1,0.6-1.1,0.6v0.2c0,0,0.7-0.1,3.3-0.1
			c2.6,0,3.1,0.1,3.1,0.1v-0.2c0,0-0.6,0-1.1-0.6c-0.5-0.6-0.5-1.1-0.5-2c-0.1-0.9-0.1-2.3-0.1-3.2h0c0-0.3,0-1.8,0-1.8
			s4.6-7.2,5.2-7.9c0.8-1,1.7-1,1.7-1V18.8z"/>
		<path style="fill:#231815;" d="M224.1,18.8V19c0,0,0.7,0.1,1.1,0.5c0.6,0.6,0.2,1.5,0.1,1.9c-0.1,0.5-2.2,6-2.2,6l-2.1,5.7
			l-2.7-6.9l-2.3-5.5c-0.6-1.5,0.5-1.8,0.5-1.8v-0.2c0,0-0.9,0.1-2.6,0.1c-1.7,0-3.1-0.1-3.1-0.1V19c0,0,1.2,0,1.8,1.5l6,15.2h3.2
			c0,0,5.2-14.1,5.5-14.7c0.2-0.6,0.3-0.9,0.8-1.4c0.5-0.6,1.2-0.6,1.2-0.6v-0.2c0,0-0.9,0.1-2.7,0.1
			C225,18.9,224.1,18.8,224.1,18.8z"/>
		<path style="fill:#231815;" d="M179.5,18.8V19c0,0,0.5,0,0.9,0.6c0.4,0.6,0.4,1.1,0.5,2c0,0.9,0.1,2.3,0.1,3.2v0.9
			c0,0.2,0,1.8,0,2c0,1.2,0,3.4-0.8,4.8c-1.2,1.9-3.4,1.9-4.7,1.9c-1.5-0.1-2.9-0.9-3.6-2.3c-0.6-1.2-0.6-3.1-0.6-4.3
			c0-0.2,0-1.8,0-2v-0.9l0,0c0-1,0-2.3,0.1-3.2c0-0.9,0-1.4,0.5-2c0.4-0.6,0.9-0.6,0.9-0.6v-0.2c0,0-0.9,0.1-3.2,0.1
			c-2.3,0-2.8-0.1-2.8-0.1V19c0,0,0.5,0,0.9,0.6c0.4,0.6,0.4,1.1,0.5,2c0,0.9,0.1,2.3,0.1,3.2v3.6c0,2.1,0.3,3.6,1,4.7
			c0.7,1.2,1.5,1.7,2.4,2.2c1.1,0.6,2.9,1,4.7,0.9c1.7-0.1,3-0.5,3.9-1.1c1-0.7,1.4-1.2,1.9-2c0.6-1,0.8-2.7,0.8-4.8l0-3.5
			c0-1,0-2.3,0.1-3.2c0-0.9,0-1.4,0.5-2c0.4-0.6,0.9-0.6,0.9-0.6v-0.2c0,0-1,0.1-2.3,0.1C180.5,18.9,179.5,18.8,179.5,18.8z"/>
		<path style="fill:#231815;" d="M204,18.8V19c0,0,0.6,0,1,0.6c0.5,0.6,0.5,1.1,0.5,2c0,0.9,0.1,2.3,0.1,3.2v4.8c0,1,0,2.4-0.1,3.4
			c0,0.9,0,1.4-0.5,2c-0.5,0.6-1,0.6-1,0.6v0.2c0,0,0.6-0.1,3.1-0.1c2.5,0,3,0.1,3,0.1v-0.2c0,0-0.6,0-1-0.6c-0.5-0.6-0.5-1.1-0.5-2
			c-0.1-0.9-0.1-2.4-0.1-3.4v-4.8c0-1,0-2.3,0.1-3.2c0-0.9,0-1.4,0.5-2c0.5-0.6,1-0.6,1-0.6v-0.2c0,0-0.6,0.1-3.1,0.1
			C204.5,18.9,204,18.8,204,18.8z"/>
		<path style="fill:#231815;" d="M276.6,18.8V19c0,0,0.6,0,1,0.6c0.5,0.6,0.5,1.1,0.5,2c0,0.9,0.1,2.3,0.1,3.2v4.8c0,1,0,2.4,0,3.4
			c0,0.9,0,1.4-0.5,2c-0.5,0.6-1,0.6-1,0.6v0.2c0,0,0.6-0.1,3.1-0.1c2.5,0,3,0.1,3,0.1v-0.2c0,0-0.6,0-1-0.6c-0.5-0.6-0.5-1.1-0.5-2
			c0-0.9-0.1-2.4-0.1-3.4v-4.8c0-1,0-2.3,0.1-3.2c0-0.9,0-1.4,0.5-2c0.5-0.6,1-0.6,1-0.6v-0.2c0,0-0.6,0.1-3.1,0.1
			C277.1,18.9,276.6,18.8,276.6,18.8z"/>
		<path style="fill:#231815;" d="M137.2,18.6c0,0-0.4,0.3-2.2,0.3c-0.7,0-10.1,0-10.9,0c-1.8,0-2.2-0.3-2.2-0.3h-0.1
			c0,0,0.1,0.5,0.1,1.9c0,0.9-0.1,1.8-0.1,1.8h0.1c0,0,0.5-1.2,1.1-1.8c0.5-0.5,1.3-0.4,1.9-0.5c0.5,0,1.3,0,2.2,0
			c0.5,0,0.9,0,0.9,0v8.2c0,0,0,0.6,0,1.5c0,1,0,2.3-0.1,3.2c0,0.9,0,1.4-0.5,2c-0.5,0.6-1,0.6-1,0.6v0.2c0,0,0.6-0.1,3.2-0.1
			s3,0.1,3,0.1v-0.2c0,0-0.6,0-1-0.6c-0.5-0.6-0.5-1.1-0.5-2c-0.1-0.9-0.1-2.3-0.1-3.2c0-0.8,0-1.5,0-1.5l0-8.2c0,0,0.4,0,0.8,0
			c0,0,1.8,0,2.2,0c0.7,0,1.4,0,1.9,0.5c0.6,0.5,1.1,1.8,1.1,1.8h0.1c0,0-0.1-0.8-0.1-1.8c0-1.5,0.1-1.9,0.1-1.9H137.2z"/>
		<path style="fill:#231815;" d="M299.2,18.4c0,0-0.4,0.5-2.2,0.5c-0.7,0-10.1,0-10.9,0c-1.8,0-2.2-0.5-2.2-0.5h-0.1
			c0,0,0.1,0.7,0.1,2.1c0,0.9-0.1,1.8-0.1,1.8h0.1c0,0,0.5-1.2,1.1-1.8c0.5-0.5,1.3-0.4,1.9-0.5c0.5,0,1.3,0,2.2,0
			c0.5,0,0.9,0,0.9,0v8.2c0,0,0,0.6,0,1.5c0,1,0,2.3-0.1,3.2c-0.1,0.9,0,1.4-0.5,2c-0.5,0.6-1,0.6-1,0.6v0.2c0,0,0.6-0.1,3.2-0.1
			c2.5,0,3,0.1,3,0.1v-0.2c0,0-0.6,0-1-0.6c-0.5-0.6-0.5-1.1-0.5-2c0-0.9-0.1-2.3-0.1-3.2c0-0.8,0-1.5,0-1.5l0-8.2c0,0,0.4,0,0.8,0
			c0,0,1.8,0,2.2,0c0.7,0,1.4,0,1.9,0.5c0.6,0.5,1.1,1.8,1.1,1.8h0.1c0,0-0.1-0.8-0.1-1.8c0-1.5,0.1-2.1,0.1-2.1H299.2z"/>
		<path style="fill:#231815;" d="M197.8,18.8V19c0,0,0.5,0,0.9,0.6c0.5,0.6,0.4,1.1,0.5,2c0,0.9,0.1,3,0.1,4v2.4v2.6l-9.4-11.7
			c-0.3,0-0.7,0.1-1.8,0.1c-0.4,0-0.7,0-1,0c-0.8,0-1.3-0.1-1.3-0.1V19c0,0,0.5,0,0.9,0.6c0.5,0.6,0.4,1.1,0.5,2
			c0,0.9,0.1,2.3,0.1,3.3v2.3v2.5c0,1,0,2.3-0.1,3.3c0,0.9,0,1.4-0.5,2c-0.4,0.6-0.9,0.6-0.9,0.6v0.2c0,0,0.6-0.1,2.3-0.1
			c1.3,0,2.3,0.1,2.3,0.1v-0.2c0,0-0.5,0-0.9-0.6c-0.4-0.6-0.4-1.1-0.5-2c0-0.9-0.1-2.3-0.1-3.3v-4.9c0-0.6,0-1.7,0-2.4l10.8,13.3
			h1.4c-0.1-0.3-0.1-1.2-0.1-4.2v-3.6v-2.4c0-1,0-3,0.1-4c0-0.9,0-1.4,0.5-2c0.4-0.6,0.9-0.6,0.9-0.6v-0.2c0,0-0.8,0.1-2.3,0.1
			C198.5,18.9,197.8,18.8,197.8,18.8z"/>
		<path style="fill:#231815;" d="M244.1,31.8c0,0-0.4,1.2-1.3,1.8c-0.6,0.4-1.3,0.4-1.9,0.5c-0.5,0-2.2,0-2.2,0c-0.3,0-2.5,0-3.9,0
			v-6.4c1,0,2.8,0,3.7,0.1c0.9,0,1.4,0,2,0.5c0.6,0.4,0.6,0.9,0.6,0.9h0.2c0,0-0.1-0.8-0.1-2.3c0-1.6,0.1-2.3,0.1-2.3h-0.2
			c0,0,0,0.5-0.6,0.9c-0.6,0.4-1.1,0.4-2,0.5c-0.9,0-2.7,0.1-3.7,0.1v-5.8c0,0,2.8,0,3.2,0c0,0,1.8,0,2.2,0c0.7,0,1.3,0.1,1.9,0.5
			c0.8,0.5,1.3,1.7,1.3,1.7h0.1c0,0-0.1-0.9-0.1-1.9c0-1.1,0.1-1.8,0.1-1.8h-0.1c0,0-0.1,0.1-2,0.1c-0.7,0-1.7,0-2.5,0
			c0,0-5.3,0-6,0c-2.5,0-3.1-0.1-3.1-0.1V19c0,0,0.6,0,1,0.6c0.5,0.6,0.5,1.1,0.5,2c0.1,0.9,0.1,2.3,0.1,3.2v4.8c0,1,0,2.4,0,3.4
			c0,0.9,0,1.4-0.5,2c-0.5,0.6-1,0.6-1,0.6v0.2c0,0,0.6-0.1,3.1-0.1c0.2,0,5.6,0,5.7,0l0,0c0.5,0,0.8,0,0.8,0c0.8,0,1.8,0,2.5,0
			c1.8,0,2,0.1,2,0.1h0.1c0,0-0.1-0.5-0.1-1.9c0-0.9,0.1-2,0.1-2H244.1z"/>
		<path style="fill:#231815;" d="M272.1,27.1c-0.6-0.3-2.7-1.3-3.8-2c-1.9-1.2-2.2-1.8-2.3-2.7c-0.1-1.3,0.8-2.4,2.4-2.5
			c1.3-0.1,2.2,0.3,3.1,1c1.4,1,2.1,2.4,2.1,2.4h0.3c0,0-0.1-0.5-0.1-1.9c0-1.4,0.1-2.2,0.1-2.2h-0.1c0,0-0.2,0.6-0.6,0.6
			c-0.5,0-1.2-0.6-2.5-0.9c-2.3-0.6-4-0.3-5.5,0.5c-1.2,0.6-2.3,2-2.1,4c0.1,0.8,0.4,1.9,1.5,2.7c1,0.8,3.2,2,4.2,2.6
			c2.3,1.3,3,1.9,2.8,3.4c-0.1,0.9-1,2.5-3.7,2.3c-3.8-0.3-4.8-4-4.8-4H263c0,0,0.1,0.9,0.1,2.5s-0.1,2.9-0.1,2.9h0.3
			c0,0,0.3-0.5,1-0.6c0.4,0,0.8,0.1,1.9,0.5c1.6,0.6,3.8,0.4,5,0c2.1-0.7,3.4-2.3,3.6-4C275.1,29.3,273.6,27.9,272.1,27.1z"/>
		<path style="fill:#231815;" d="M259.6,33.8c-0.4-0.5-3.5-4.8-4-5.5c0.1,0,0.3-0.1,0.4-0.1c2.3-0.6,4.1-2.1,4.1-4.8
			c0-2.6-1.8-3.9-3.2-4.3c-1.2-0.3-5.5-0.2-7.9-0.2c-2.1,0-2.8-0.1-2.8-0.1V19c0,0,0.6,0,1,0.6c0.5,0.6,0.5,1.1,0.5,2
			c0.1,0.9,0.1,2.3,0.1,3.2v4.8c0,1,0,2.4-0.1,3.4c0,0.9,0,1.4-0.5,2c-0.5,0.6-1,0.6-1,0.6v0.2c0,0,0.6-0.1,3.1-0.1
			c2.5,0,3,0.1,3,0.1v-0.2c0,0-0.6,0-1-0.6c-0.5-0.6-0.5-1.1-0.5-2c0-0.9-0.1-4.2-0.1-4.2l1.7-0.1l4.7,6.8c0.1,0.1,0.2,0.2,0.4,0.2
			h3.4h1.2v-0.2c0,0-0.7-0.1-1.3-0.5C260.5,34.7,260.2,34.5,259.6,33.8z M250.8,27.1V20c0,0,0.7,0,2.9,0c2.2,0,4,1,4,3.4
			c0,1.7-0.9,3-2.3,3.4C253.5,27.4,250.8,27.1,250.8,27.1z"/>
		<path style="fill:#231815;" d="M86.5,35c-0.5-0.4-2-1.8-2.6-2.5l-5.8-6.5c0,0,6-5.2,7.1-6.1c0.3-0.2,1-0.8,1.4-0.9v-0.2
			c-0.8,0.1-1.9,0.1-2.7,0.1c-1.9,0-2.9-0.1-2.9-0.1V19c0,0,0.5,0,1,0.2c1.6,0.6-0.5,2.2-1.2,2.7c0,0-0.8,0.6-2,1.7
			c-1.4,1.1-3.1,2.4-3.4,2.6c0,0,0-1.3,0-1.4c0-1,0-2.3,0.1-3.2c0-0.9,0-1.4,0.5-2c0.5-0.6,1-0.6,1-0.6v-0.2c0,0-0.6,0.1-3.2,0.1
			s-3-0.1-3-0.1V19c0,0,0.6,0,1,0.6c0.5,0.6,0.5,1.1,0.5,2c0,0.9,0.1,2.3,0.1,3.2c0,0.1,0,4.8,0,4.9c0,0.1,0,0.1,0,0.2
			c0,1,0,2.1-0.1,3.1c0,0.9,0,1.4-0.5,2c-0.5,0.6-1,0.6-1,0.6v0.2c0,0,0.6-0.1,3.2-0.1c2.5,0,3,0.1,3,0.1v-0.2c0,0-0.6,0-1-0.6
			c-0.5-0.6-0.5-1.1-0.5-2c0-0.9-0.1-2.1-0.1-3.1c0-0.1,0-0.1,0-0.2c0-0.1,0-2.2,0-2.2l3.1,3.3l4.4,4.7c0.1,0.1,0.2,0.1,0.3,0.1h4.6
			v-0.2C87.8,35.5,87.3,35.5,86.5,35z"/>
	</g>
	<g>
		<path style="fill:#00205B;" d="M16,31.6c-0.3,0-0.6,0.3-0.6,0.6c0,0.2,0.4,0.4,0.6,0.4C16.8,32.5,16.8,31.6,16,31.6z"/>
		<polygon style="fill:#00205B;" points="15.3,34.7 14.8,34.7 14.1,35.7 14.1,35.7 14.1,34.7 13.6,34.7 13.6,37.2 14.1,37.2 
			14.1,36.4 14.3,36.1 14.8,37.2 15.4,37.2 14.6,35.7 		"/>
		<polygon style="fill:#00205B;" points="16.5,35.6 16.5,35.6 16.2,34.7 15.6,34.7 16.3,36.2 16.3,37.2 16.8,37.2 16.8,36.2 
			17.4,34.7 16.9,34.7 		"/>
		<path style="fill:#00205B;" d="M19.2,35c-0.1-0.1-0.1-0.2-0.3-0.3c-0.1-0.1-0.3-0.1-0.4-0.1c-0.2,0-0.3,0-0.5,0.1
			c-0.1,0.1-0.2,0.2-0.3,0.3c-0.1,0.1-0.1,0.3-0.1,0.4c0,0.2,0,0.3,0,0.5c0,0.2,0,0.4,0,0.5c0,0.2,0.1,0.3,0.1,0.4
			c0.1,0.1,0.2,0.2,0.3,0.3c0.1,0.1,0.3,0.1,0.5,0.1c0.2,0,0.3,0,0.4-0.1c0.1-0.1,0.2-0.1,0.3-0.3c0.1-0.1,0.1-0.3,0.1-0.4
			c0-0.1,0-0.3,0-0.5c0-0.2,0-0.4,0-0.5C19.3,35.2,19.3,35.1,19.2,35z M18.9,36.3c0,0.1,0,0.2,0,0.3c0,0.1-0.1,0.1-0.1,0.2
			c-0.1,0-0.1,0.1-0.2,0.1c-0.1,0-0.1,0-0.2-0.1c0,0-0.1-0.1-0.1-0.2c0-0.1,0-0.2-0.1-0.3c0-0.1,0-0.3,0-0.4c0-0.2,0-0.3,0-0.4
			c0-0.1,0-0.2,0.1-0.3c0-0.1,0.1-0.1,0.1-0.2c0.1,0,0.1,0,0.2,0c0.1,0,0.1,0,0.2,0c0,0,0.1,0.1,0.1,0.2c0,0.1,0,0.2,0,0.3
			c0,0.1,0,0.3,0,0.4C18.9,36.1,18.9,36.2,18.9,36.3z"/>
		<polygon style="fill:#00205B;" points="19.6,35.1 20.2,35.1 20.2,37.2 20.7,37.2 20.7,35.1 21.3,35.1 21.3,34.7 19.6,34.7 		"/>
		<path style="fill:#00205B;" d="M23,35c-0.1-0.1-0.1-0.2-0.3-0.3c-0.1-0.1-0.3-0.1-0.5-0.1c-0.2,0-0.3,0-0.5,0.1
			c-0.1,0.1-0.2,0.2-0.2,0.3c-0.1,0.1-0.1,0.3-0.1,0.4c0,0.2,0,0.3,0,0.5c0,0.2,0,0.4,0,0.5c0,0.2,0.1,0.3,0.1,0.4
			c0.1,0.1,0.1,0.2,0.2,0.3c0.1,0.1,0.3,0.1,0.5,0.1c0.2,0,0.3,0,0.5-0.1c0.1-0.1,0.2-0.1,0.3-0.3c0.1-0.1,0.1-0.3,0.1-0.4
			c0-0.1,0-0.3,0-0.5c0-0.2,0-0.4,0-0.5C23.1,35.2,23.1,35.1,23,35z M22.6,36.3c0,0.1,0,0.2,0,0.3c0,0.1-0.1,0.1-0.1,0.2
			c0,0-0.1,0.1-0.2,0.1c-0.1,0-0.2,0-0.2-0.1c0,0-0.1-0.1-0.1-0.2c0-0.1,0-0.2,0-0.3c0-0.1,0-0.3,0-0.4c0-0.2,0-0.3,0-0.4
			c0-0.1,0-0.2,0-0.3c0-0.1,0.1-0.1,0.1-0.2c0,0,0.1,0,0.2,0c0.1,0,0.1,0,0.2,0c0.1,0,0.1,0.1,0.1,0.2c0,0.1,0,0.2,0,0.3
			c0,0.1,0,0.3,0,0.4C22.6,36.1,22.6,36.2,22.6,36.3z"/>
		<path style="fill:#00205B;" d="M32.6,36.4c0,0.1,0,0.2,0,0.3c0,0.1-0.1,0.1-0.2,0.1c-0.1,0-0.2,0-0.2-0.1c0-0.1,0-0.2,0-0.3v-0.1
			h-0.5v0.1c0,0.1,0,0.2,0,0.3c0,0.1,0.1,0.2,0.1,0.2c0,0.1,0.1,0.1,0.2,0.1c0.1,0,0.2,0.1,0.3,0.1c0.3,0,0.4-0.1,0.6-0.2
			c0.1-0.1,0.2-0.3,0.2-0.6v-1.8h-0.5V36.4z"/>
		<path style="fill:#00205B;" d="M34.1,34.7l-0.7,2.5h0.5l0.1-0.5h0.7l0.1,0.5h0.5l-0.7-2.5H34.1z M34.1,36.2l0.2-1.1l0,0l0.3,1.1
			H34.1z"/>
		<path style="fill:#00205B;" d="M37.2,35.1c0-0.1-0.1-0.2-0.1-0.2c-0.1-0.1-0.1-0.1-0.2-0.2c-0.1,0-0.2-0.1-0.3-0.1h-0.9v2.5h0.5
			v-1h0.3c0.1,0,0.2,0,0.3,0c0.1,0,0.2-0.1,0.3-0.1c0.1-0.1,0.1-0.1,0.2-0.2c0-0.1,0.1-0.2,0.1-0.3C37.2,35.3,37.2,35.2,37.2,35.1z
			 M36.6,35.7c-0.1,0.1-0.1,0.1-0.2,0.1h-0.2V35h0.2c0.1,0,0.2,0,0.3,0.1c0.1,0.1,0.1,0.2,0.1,0.3S36.7,35.6,36.6,35.7z"/>
		<path style="fill:#00205B;" d="M37.9,34.7l-0.7,2.5h0.5l0.1-0.5h0.7l0.1,0.5h0.5l-0.7-2.5H37.9z M38,36.2l0.2-1.1h0l0.2,1.1H38z"
			/>
		<polygon style="fill:#00205B;" points="40.7,36.4 40.7,36.4 40,34.7 39.5,34.7 39.5,37.2 39.9,37.2 39.9,35.4 39.9,35.4 
			40.5,37.2 41.1,37.2 41.1,34.7 40.7,34.7 		"/>
		<path style="fill:#00205B;" d="M24.9,37.1c0.1,0,0.2-0.1,0.2-0.2v-1.6h1.3v1.6c0,0.1,0.1,0.2,0.2,0.2c0.1,0,0.2-0.1,0.2-0.2v-1.6
			h1.5v1.6c0,0.1,0.1,0.2,0.2,0.2c0.1,0,0.2-0.1,0.2-0.2v-1.6H30v1.6c0,0.1,0.1,0.2,0.2,0.2c0.1,0,0.2-0.1,0.2-0.2v-1.7
			c0-0.1-0.1-0.2-0.2-0.2h-2.4v-0.8c0-0.1-0.1-0.2-0.2-0.2s-0.2,0.1-0.2,0.2V35h-2.4c-0.1,0-0.2,0.1-0.2,0.2v1.7
			C24.7,37,24.8,37.1,24.9,37.1z"/>
		<path style="fill:#00205B;" d="M24.9,39.8H26c0.1,0,0.2-0.1,0.2-0.2c0-0.1-0.1-0.2-0.2-0.2h-0.9v-0.4H26c0.1,0,0.2-0.1,0.2-0.2
			c0-0.1-0.1-0.2-0.2-0.2h-0.9v-0.4H26c0.1,0,0.2-0.1,0.2-0.2c0-0.1-0.1-0.2-0.2-0.2h-0.9v-0.3c0-0.1-0.1-0.2-0.2-0.2
			c-0.1,0-0.2,0.1-0.2,0.2v2C24.7,39.8,24.8,39.8,24.9,39.8z"/>
		<path style="fill:#00205B;" d="M30.2,37.5c-0.1,0-0.2,0.1-0.2,0.2v0.3h-0.9c-0.1,0-0.2,0.1-0.2,0.2c0,0.1,0.1,0.2,0.2,0.2H30v0.4
			h-0.9c-0.1,0-0.2,0.1-0.2,0.2c0,0.1,0.1,0.2,0.2,0.2H30v0.4h-0.9c-0.1,0-0.2,0.1-0.2,0.2c0,0.1,0.1,0.2,0.2,0.2h1.1
			c0.1,0,0.2-0.1,0.2-0.2v-2C30.3,37.6,30.2,37.5,30.2,37.5z"/>
		<path style="fill:#00205B;" d="M28.5,38.7c0-0.1,0-0.1-0.1-0.2l-0.6-0.4l0.6-0.4c0.1-0.1,0.1-0.2,0-0.2c-0.1-0.1-0.2-0.1-0.2-0.1
			l-0.7,0.5l-0.7-0.5c-0.1-0.1-0.2,0-0.3,0.1c0,0.1,0,0.2,0.1,0.2l0.5,0.4l-0.5,0.4c-0.1,0-0.1,0.1-0.1,0.2c0,0.1,0,0.1,0.1,0.1
			l0.6,0.4l-0.6,0.4c-0.1,0.1-0.1,0.2-0.1,0.2c0,0.1,0.1,0.1,0.2,0.1c0,0,0.1,0,0.1,0l0.7-0.5l0.7,0.5c0,0,0.1,0,0.1,0
			c0.1,0,0.1,0,0.2-0.1c0.1-0.1,0-0.2,0-0.2l-0.6-0.4l0.6-0.4C28.4,38.8,28.5,38.7,28.5,38.7z M27.5,39l-0.5-0.3l0.5-0.3l0.5,0.3
			L27.5,39z"/>
		<path style="fill:#00205B;" d="M30.1,40.4h-5.2c-0.1,0-0.2,0.1-0.2,0.2v3c0,0.1,0.1,0.2,0.2,0.2c0.1,0,0.2-0.1,0.2-0.2v-2.8H30
			v2.8c0,0.1,0.1,0.2,0.2,0.2c0.1,0,0.2-0.1,0.2-0.2v-3C30.3,40.5,30.2,40.4,30.1,40.4z"/>
		<path style="fill:#00205B;" d="M29.4,41.1c-0.1,0-0.2,0.1-0.2,0.2v1.4h-1.6v-0.4h1c0.1,0,0.2-0.1,0.2-0.2v-0.8
			c0-0.1-0.1-0.2-0.2-0.2h-2.4c-0.1,0-0.2,0.1-0.2,0.2V42c0,0.1,0.1,0.2,0.2,0.2h1v0.4h-1.6v-1.4c0-0.1-0.1-0.2-0.2-0.2
			c-0.1,0-0.2,0.1-0.2,0.2v1.6c0,0.1,0.1,0.2,0.2,0.2h1.8v0.4h-1.8c-0.1,0-0.2,0.1-0.2,0.2c0,0.1,0.1,0.2,0.2,0.2h2
			c0.1,0,0.2-0.1,0.2-0.2V43h1.8c0.1,0,0.2-0.1,0.2-0.2v-1.6C29.6,41.1,29.5,41.1,29.4,41.1z M26.5,41.8v-0.4h2.1v0.4H26.5z"/>
		<path style="fill:#00205B;" d="M27.3,0C12.2,0,0,12.2,0,27.3c0,15,12.2,27.3,27.3,27.3c15,0,27.2-12.2,27.2-27.3
			C54.5,12.2,42.3,0,27.3,0z M46.1,46.1c-4.8,4.8-11.5,7.8-18.8,7.8c-7.4,0-14-3-18.8-7.8c-4.8-4.8-7.8-11.5-7.8-18.8
			c0-7.4,3-14,7.8-18.8c4.8-4.8,11.5-7.8,18.8-7.8c7.4,0,14,3,18.8,7.8c4.8,4.8,7.8,11.5,7.8,18.8C53.9,34.6,50.9,41.3,46.1,46.1z"
			/>
		<path style="fill:#00205B;" d="M27.2,1.4C13,1.4,1.4,13,1.4,27.3c0,14.3,11.6,25.8,25.8,25.8c14.3,0,25.8-11.6,25.8-25.8
			C53.1,13,41.5,1.4,27.2,1.4z M45.2,45.2c-4.6,4.6-11,7.5-18,7.5c-7,0-13.4-2.9-18-7.5c-4.6-4.6-7.4-10.9-7.4-18s2.8-13.4,7.4-18
			c4.6-4.6,11-7.5,18-7.5c7,0,13.4,2.8,18,7.5c4.6,4.6,7.4,10.9,7.4,18S49.8,40.6,45.2,45.2z"/>
		<polygon style="fill:#00205B;" points="7.5,26.6 6.1,26.5 5.5,25.8 7.7,24.4 7.7,23.7 5.1,25.3 3.6,23.4 3.5,24.2 5.4,26.4 
			3.4,26.3 3.3,26.8 7.4,27.1 		"/>
		<polygon style="fill:#00205B;" points="8.3,21.8 8.4,21.3 6.8,20.8 4.9,18.6 4.7,19.2 6.3,20.9 4,21.5 3.8,22.1 6.7,21.3 		"/>
		<path style="fill:#00205B;" d="M7.3,18.3c0.6,0.3,1.1,0.4,1.6,0.3c0.6-0.1,1-0.4,1.3-1c0.3-0.6,0.4-1.2,0.2-1.7
			c-0.2-0.5-0.6-0.9-1.1-1.2c-0.5-0.3-1-0.4-1.4-0.3c-0.6,0.1-1.1,0.4-1.4,1.1C6,16,6,16.6,6.3,17.2C6.5,17.6,6.8,18,7.3,18.3z
			 M6.8,15.6C7,15.2,7.3,15,7.7,14.9c0.4-0.1,0.8,0,1.2,0.2c0.4,0.2,0.7,0.5,0.9,0.9c0.2,0.4,0.2,0.8-0.1,1.2
			c-0.3,0.4-0.6,0.7-1,0.8c-0.4,0.1-0.8,0-1.2-0.3c-0.5-0.3-0.8-0.6-0.9-1C6.6,16.4,6.6,16,6.8,15.6z"/>
		<polygon style="fill:#00205B;" points="9.7,11.8 12.4,14.2 12.8,13.8 10.1,11.4 11,10.3 10.7,10 8.4,12.5 8.8,12.8 		"/>
		<path style="fill:#00205B;" d="M14.2,11.7c0.5,0.1,1.1,0,1.6-0.4c0.6-0.4,0.8-0.9,0.9-1.5c0-0.5-0.2-1-0.5-1.5
			c-0.3-0.5-0.7-0.8-1.1-0.9c-0.6-0.2-1.1-0.1-1.7,0.4c-0.6,0.4-0.8,0.9-0.8,1.5c0,0.5,0.2,1,0.5,1.4C13.2,11.3,13.7,11.6,14.2,11.7
			z M13.5,8.2c0.4-0.3,0.7-0.3,1.1-0.2c0.4,0.1,0.7,0.3,1,0.7c0.3,0.4,0.4,0.8,0.4,1.2c0,0.4-0.2,0.8-0.6,1.1
			c-0.4,0.3-0.8,0.4-1.2,0.3c-0.4-0.1-0.7-0.4-1-0.7C13,10,12.9,9.5,12.9,9.1C13,8.7,13.2,8.4,13.5,8.2z"/>
		<path style="fill:#00205B;" d="M20,8.1c0.4,0.4,0.9,0.5,1.6,0.3c0.7-0.2,1.1-0.6,1.2-1.1c0-0.3,0-0.7-0.2-1.2l-0.7-2.2l-0.6,0.2
			l0.8,2.5c0.1,0.3,0.1,0.5,0.1,0.7c-0.1,0.4-0.3,0.6-0.8,0.8c-0.4,0.1-0.7,0.1-0.9-0.2c-0.2-0.2-0.3-0.4-0.4-0.7l-0.7-2.5l-0.6,0.2
			l0.7,2.2C19.6,7.6,19.8,7.9,20,8.1z"/>
		<polygon style="fill:#00205B;" points="25.1,7.6 24.9,4.3 27.2,7.5 27.8,7.5 27.6,3.3 27.1,3.3 27.2,6.7 25,3.5 24.3,3.5 
			24.6,7.6 		"/>
		<polygon style="fill:#00205B;" points="30.5,3.6 29.9,3.5 29.4,7.6 30,7.7 		"/>
		<polygon style="fill:#00205B;" points="33.2,8.4 35.8,4.9 35.2,4.7 33.1,7.8 33,4 32.4,3.9 32.6,8.3 		"/>
		<polygon style="fill:#00205B;" points="38.3,10.8 38.5,10.4 36.3,9.1 37,7.9 39,9 39.2,8.6 37.2,7.5 37.8,6.4 40,7.6 40.2,7.1 
			37.6,5.7 35.6,9.3 		"/>
		<path style="fill:#00205B;" d="M39.8,12l1.2-1.3l0.9,0.8c0.2,0.2,0.3,0.3,0.3,0.4c0.1,0.2,0,0.4-0.1,0.6L41.7,13
			c-0.1,0.1-0.2,0.2-0.2,0.3c0,0.1-0.1,0.1-0.1,0.1l0.5,0.5l0.1-0.1c0-0.1,0-0.2,0-0.3c0-0.1,0.1-0.2,0.2-0.3l0.4-0.4
			c0.2-0.2,0.2-0.3,0.2-0.5c0-0.1,0-0.3-0.1-0.4c0.2,0.1,0.4,0.1,0.6,0c0.2,0,0.4-0.2,0.5-0.4c0.3-0.4,0.4-0.7,0.2-1.1
			c-0.1-0.2-0.3-0.4-0.5-0.6l-1.4-1.3l-2.8,3.1L39.8,12z M42.3,9.3l1,0.9c0.1,0.1,0.2,0.2,0.3,0.4c0.1,0.2,0,0.4-0.2,0.7
			c-0.2,0.2-0.4,0.3-0.5,0.3c-0.2,0-0.4-0.1-0.6-0.3l-0.9-0.8L42.3,9.3z"/>
		<path style="fill:#00205B;" d="M43.9,15.9c-0.3-0.4-0.3-0.7-0.2-1c0.1-0.2,0.2-0.3,0.4-0.5L43.7,14c-0.4,0.2-0.6,0.6-0.6,0.9
			c-0.1,0.4,0,0.8,0.3,1.2c0.2,0.4,0.5,0.6,0.9,0.8c0.4,0.2,0.7,0.1,1.1-0.1c0.3-0.2,0.5-0.5,0.5-0.8c0-0.2,0-0.4-0.1-0.7l-0.2-0.5
			c-0.1-0.4-0.2-0.6-0.2-0.7c0-0.2,0.1-0.3,0.2-0.5c0.1-0.1,0.3-0.1,0.5-0.1c0.2,0,0.4,0.2,0.6,0.4c0.2,0.3,0.3,0.6,0.2,0.9
			c0,0.1-0.2,0.3-0.3,0.4l0.3,0.4c0.4-0.3,0.6-0.6,0.6-0.9c0-0.4-0.1-0.7-0.3-1.1c-0.3-0.4-0.6-0.6-0.9-0.7c-0.3-0.1-0.7,0-1,0.2
			c-0.3,0.2-0.4,0.4-0.4,0.8c0,0.2,0.1,0.4,0.2,0.8l0.2,0.5c0.1,0.3,0.2,0.5,0.2,0.7s-0.1,0.3-0.3,0.4c-0.2,0.2-0.5,0.2-0.8,0
			C44.1,16.2,44,16.1,43.9,15.9z"/>
		<polygon style="fill:#00205B;" points="45.3,19.3 49.1,17.6 48.9,17.1 45.1,18.8 		"/>
		<polygon style="fill:#00205B;" points="46.2,21.7 46.4,22.2 49.9,21.2 50.3,22.6 50.7,22.5 49.8,19.2 49.4,19.3 49.7,20.7 		"/>
		<polygon style="fill:#00205B;" points="47,25.6 47,26.2 48.7,26.1 51.2,27.5 51.2,26.8 49.1,25.8 51,24.4 51,23.8 48.6,25.5 		"/>
		<polygon style="fill:#00205B;" points="8.1,37.5 7.3,35.6 8.4,35.1 9.4,37.2 9.9,37 8.7,34.4 4.9,36.1 5.1,36.6 6.8,35.9 
			7.7,37.7 		"/>
		<path style="fill:#00205B;" d="M11.6,39.3c-0.4-0.6-0.9-0.8-1.6-0.8c-0.5,0-1,0.2-1.4,0.5c-0.5,0.4-0.8,0.8-0.9,1.3
			c-0.1,0.5,0,1.1,0.4,1.6c0.4,0.5,0.9,0.8,1.5,0.8c0.5,0,1-0.2,1.5-0.6c0.5-0.3,0.7-0.7,0.9-1.2C12.2,40.5,12,39.9,11.6,39.3z
			 M11.5,40.7c-0.1,0.4-0.3,0.7-0.7,1c-0.4,0.3-0.8,0.4-1.2,0.5c-0.4,0-0.8-0.1-1.1-0.5c-0.3-0.4-0.4-0.8-0.3-1.2
			c0.1-0.4,0.3-0.7,0.7-1c0.5-0.3,0.9-0.5,1.3-0.5c0.4,0,0.7,0.2,1,0.6C11.5,40,11.6,40.3,11.5,40.7z"/>
		<path style="fill:#00205B;" d="M15.7,43.5l-1.6,2c-0.2,0.2-0.4,0.4-0.6,0.5c-0.3,0.1-0.7,0.1-1.1-0.2c-0.3-0.2-0.4-0.5-0.4-0.9
			c0-0.2,0.1-0.5,0.3-0.7l1.6-2l-0.5-0.4l-1.5,1.8c-0.3,0.4-0.5,0.7-0.6,1c-0.1,0.6,0.1,1.1,0.6,1.5c0.6,0.4,1.1,0.5,1.6,0.3
			c0.3-0.1,0.6-0.4,0.9-0.8l1.5-1.8L15.7,43.5z"/>
		<polygon style="fill:#00205B;" points="18.3,48.7 17.8,44.8 17.2,44.5 15.5,48.2 15.9,48.5 17.4,45.5 17.8,49.4 18.4,49.7 
			20.2,45.9 19.7,45.7 		"/>
		<path style="fill:#00205B;" d="M23.1,46.7l-1.6-0.3l-0.9,4l1.6,0.4c0.7,0.1,1.2-0.1,1.6-0.6c0.2-0.3,0.4-0.7,0.5-1.1
			c0.1-0.6,0.1-1-0.1-1.5C24.1,47.1,23.7,46.8,23.1,46.7z M23.8,49c0,0.1-0.1,0.3-0.1,0.4c-0.1,0.2-0.2,0.4-0.4,0.6
			c-0.2,0.2-0.4,0.3-0.6,0.3c-0.1,0-0.3,0-0.5,0l-1-0.2l0.7-3.1l1,0.2c0.4,0.1,0.7,0.3,0.8,0.6C23.9,48.1,23.9,48.5,23.8,49z"/>
		<polygon style="fill:#00205B;" points="26.7,50.8 26.7,49.4 29,49.4 29,48.9 26.7,48.9 26.7,47.7 29.1,47.6 29.1,47.1 26.1,47.2 
			26.2,51.3 29.2,51.2 29.2,50.8 		"/>
		<path style="fill:#00205B;" d="M33.4,46.8c-0.4-0.3-0.9-0.4-1.4-0.3l-1.6,0.4l1,4l1.6-0.4c0.7-0.2,1.1-0.6,1.2-1.3
			c0.1-0.4,0.1-0.8,0-1.2C34,47.5,33.8,47.1,33.4,46.8z M33.6,49.4c-0.1,0.2-0.2,0.4-0.4,0.5c-0.1,0.1-0.2,0.1-0.4,0.2l-1,0.2
			l-0.8-3.1l0.9-0.2c0.4-0.1,0.8,0,1,0.2s0.5,0.6,0.6,1.1c0,0.1,0.1,0.3,0.1,0.4C33.7,49,33.7,49.3,33.6,49.4z"/>
		<path style="fill:#00205B;" d="M38.2,44c0.1,0.3,0.1,0.5,0.1,0.7c-0.1,0.2-0.3,0.3-0.6,0.6l0.2,0.3l0.8-0.5l1.6,2.4l0.5-0.3
			l-2.2-3.4L38.2,44z"/>
		<path style="fill:#00205B;" d="M43.4,42.4c-0.1,0-0.3,0-0.5,0.1c0-0.2,0.1-0.3,0.1-0.4c0-0.2-0.1-0.4-0.3-0.6
			c-0.2-0.2-0.4-0.3-0.7-0.3c-0.3,0-0.6,0.1-0.9,0.4c-0.3,0.3-0.4,0.6-0.4,0.9c0,0.3,0.1,0.6,0.3,0.8c0.2,0.2,0.4,0.3,0.6,0.3
			c0.1,0,0.2,0,0.4-0.1c-0.1,0.2-0.1,0.5-0.1,0.7c0,0.2,0.1,0.4,0.3,0.6c0.3,0.3,0.6,0.4,0.9,0.4c0.3,0,0.7-0.2,0.9-0.5
			c0.3-0.3,0.5-0.6,0.5-1c0-0.3-0.1-0.6-0.4-0.9C43.9,42.5,43.7,42.4,43.4,42.4z M41.8,43.1c-0.2,0-0.3,0-0.5-0.2
			c-0.1-0.1-0.2-0.3-0.2-0.4c0-0.2,0.1-0.3,0.2-0.5c0.2-0.2,0.4-0.3,0.5-0.2c0.2,0,0.3,0.1,0.4,0.2c0.1,0.1,0.2,0.3,0.2,0.5
			c0,0.2-0.1,0.3-0.2,0.5C42.2,43,42,43.1,41.8,43.1z M43.7,44.3c-0.2,0.2-0.4,0.3-0.6,0.3c-0.2,0-0.4-0.1-0.5-0.2
			c-0.2-0.2-0.3-0.4-0.2-0.6c0-0.2,0.1-0.4,0.3-0.6c0.2-0.2,0.4-0.3,0.6-0.3s0.4,0.1,0.6,0.3c0.2,0.2,0.2,0.4,0.2,0.6
			C44,43.9,43.9,44.1,43.7,44.3z"/>
		<path style="fill:#00205B;" d="M45.9,38.7c-0.4-0.2-0.7-0.4-1-0.5c-0.6-0.1-1,0.1-1.3,0.6c-0.3,0.4-0.3,0.7-0.2,1
			c0.1,0.3,0.3,0.6,0.6,0.8c0.3,0.2,0.6,0.3,1,0.3c0.3-0.1,0.6-0.2,0.8-0.5c0.1-0.2,0.2-0.3,0.2-0.5c0.1-0.2,0-0.4-0.1-0.6
			c0.5,0.4,0.7,0.7,0.8,1c0.1,0.3,0,0.5-0.1,0.7c-0.1,0.1-0.2,0.2-0.3,0.2c-0.2,0.1-0.4,0.1-0.7-0.1l-0.3,0.4
			c0.3,0.2,0.5,0.2,0.8,0.2c0.3-0.1,0.5-0.2,0.8-0.6c0.3-0.5,0.3-1-0.1-1.6C46.7,39.3,46.4,39,45.9,38.7z M45.4,40
			c-0.1,0.2-0.3,0.4-0.5,0.4c-0.2,0-0.4,0-0.6-0.2c-0.2-0.2-0.4-0.3-0.4-0.6c-0.1-0.2,0-0.4,0.1-0.6c0.1-0.2,0.3-0.3,0.5-0.3
			c0.2,0,0.4,0,0.7,0.2c0.3,0.2,0.4,0.4,0.4,0.6C45.6,39.7,45.6,39.9,45.4,40z"/>
		<path style="fill:#00205B;" d="M47.7,35.9c-0.3-0.3-0.5-0.6-0.7-0.9c-0.2-0.3-0.3-0.6-0.4-0.7l-0.4-0.2L45,36.7l0.5,0.2l0.9-2
			c0.2,0.4,0.4,0.8,0.7,1.2c0.5,0.7,1.1,1.3,1.8,1.7l0.2-0.5c-0.4-0.2-0.6-0.4-0.7-0.6C48.1,36.5,47.9,36.2,47.7,35.9z"/>
		<path style="fill:#00205B;" d="M45.4,24.8c-0.1-0.4-0.1-0.9-0.2-1.3c0,0,0,0,0-0.1c-0.1-0.6-0.3-1.1-0.4-1.6
			c-2.3-7.5-9.3-12.9-17.5-12.9c-10.1,0-18.3,8.2-18.3,18.3c0,0.3,0,0.6,0,0.8c0.4,9.7,8.5,17.5,18.3,17.5
			c10.1,0,18.3-8.2,18.3-18.3c0-0.4,0-0.8-0.1-1.2c0-0.2,0-0.3,0-0.5C45.5,25.4,45.4,25.1,45.4,24.8z M44.9,25.6
			c0.3,0.1,0.2,0.4,0.1,0.5c-0.1,0.1-0.4,0-0.4-0.2C44.6,25.7,44.7,25.5,44.9,25.6z M44.6,24.6c0.5,0.7-0.7,0.2-0.8-0.1
			C43.7,24.2,44.3,24.2,44.6,24.6z M44.5,26.8c0.1,0.2-0.4,0.3-0.5,0C43.9,26.5,44.3,26.2,44.5,26.8z M43.8,26
			c-0.3,0.2-0.7-0.1-0.6-0.4c0.1-0.3,0.3-0.6,0.6-0.4C44.2,25.6,44.1,25.8,43.8,26z M44.3,23.8c-0.3,0-0.6-0.2-0.7-0.7
			c-0.1-0.5,0.4-0.4,0.7-0.1C44.5,23.3,44.6,23.7,44.3,23.8z M43.4,19.7c0.3,0.1,0.2,0.4,0.1,0.5c-0.1,0.1-0.4,0-0.4-0.2
			C43.1,19.8,43.2,19.7,43.4,19.7z M43.4,21.3c0.1-0.4,0.2-0.6,0.4-0.2c0.2,0.4,0.5,0.5,0.2,0.9c-0.2,0.3-0.5,0.3-0.9,0.1
			C42.9,22,43.3,21.7,43.4,21.3z M42.9,22.7c0.1,0.2,0,0.4,0,0.7c-0.1,0.2,0,0.4,0.1,0.7c0.1,0.3-0.1,0.4-0.2,0.2
			c-0.1-0.1-0.3-0.2-0.4-0.2c-0.1-0.1-0.2-0.2-0.1-0.5c0.1-0.2,0-0.4-0.1-0.6c-0.1-0.2,0.1-0.5,0.3-0.5
			C42.7,22.4,42.9,22.5,42.9,22.7z M43,25.2c-0.1,0.2-0.2,0.3-0.5,0.2c-0.4-0.1-0.5-0.6-0.1-0.7C42.7,24.5,43,24.9,43,25.2z
			 M42.7,21.1c-0.2,0.4-0.6,0.2-0.8,0.1c-0.2,0-0.3-0.4-0.1-0.6c0.1-0.2,0.3-0.3,0.6-0.3C42.6,20.4,42.9,20.7,42.7,21.1z M41.1,24
			c-0.4,0.2-0.5-0.1-0.5-0.7c0-0.7,0.7-0.5,0.9-0.1C41.7,23.6,41.5,23.8,41.1,24z M41.3,24.8c-0.2,0.1-0.6,0.2-0.6-0.1
			c0-0.3,0.3-0.5,0.6-0.4C41.8,24.5,41.5,24.8,41.3,24.8z M32.2,24.9c-0.4,0-1-0.3-1-0.3c-0.3-0.3-0.5-0.7-0.5-1.2
			c0-0.4,0-0.9,0-1.2c0,0,0,0,0,0c0.1-0.2,0.2-0.3,0.5-0.3c0,0,0.4-0.1,0.5,0.4c0,0.1,0.1,0.3,0.1,0.4c-0.2,0.2-0.3,0.6-0.2,0.8
			c0.1,0.2,0.4,0.2,0.6-0.2c0.1-0.1,0.1-0.3,0.1-0.4c0,0,0,0,0.1,0c0.5-0.1,0.6-0.2,0.8,0.1c0.2,0.4,0.4,0.4,0.7,0.4
			c0.1,0,0.2,0,0.3,0c-0.1,0.1-0.1,0.2-0.2,0.3c-0.3,0.7-0.4,0.7-0.7,0.9C33,24.9,32.4,24.9,32.2,24.9z M33.2,25.7
			c0,0.2-0.2,0.2-0.3,0.2c-0.1,0.1-0.2,0.2-0.5,0.2c-0.3,0-0.3-0.4-0.2-0.5c0-0.1,0.2-0.2,0.5-0.2C32.7,25.4,33.2,25.5,33.2,25.7z
			 M25.4,24.6c0.1,0.1,0.1,0.3,0,0.4c-0.1,0.1-0.2,0.2-0.1,0.3c0,0.1,0.1,0.2,0,0.3c-0.1,0.1,0,0.3,0.1,0.4s0.2,0.5,0,0.5
			c-0.2,0.1-0.3,0.4-0.2,0.5c0.1,0.1,0.1,0.3,0,0.4c-0.1,0.1-0.1,0.2,0,0.4c0,0.2,0.1,0.6-0.2,0.6c-0.3-0.1-0.2-0.4-0.4-0.5
			c-0.2-0.2-0.4-0.1-0.6-0.4c-0.1-0.2-0.2-0.5,0.1-0.8c0.3-0.2,0.5-0.1,0.5-0.4c0-0.3-0.2-0.5-0.4-0.4c-0.2,0.1-0.5-0.3-0.8,0
			c-0.1,0.1-0.7,0.5-1-0.3c-0.2-0.8,0.4-1.2,0.6-1c0,0,0.3,0.2,0.5,0.2c0.2-0.1,0.3-0.1,0.6,0.1c0.3,0.2,0.7,0,0.7-0.3
			c0-0.3,0.2-0.4,0.1-0.7c0-0.3,0.2-0.4,0.4-0.3c0.2,0.1,0.3,0.4,0.2,0.6C25.3,24.4,25.3,24.5,25.4,24.6z M21,24.8
			c0.1-0.4,0.5-0.4,0.6-0.3c0.1,0.1,0.1,0.2,0,0.5c-0.2,0.3,0,0.6-0.3,0.7C21,25.7,20.8,25.2,21,24.8z M20.9,23.3
			c0.1-0.1,0.2,0,0.4,0.1c0.3,0.2-0.1,0.5-0.2,0.3C21,23.6,20.8,23.4,20.9,23.3z M21.4,22.8c-0.3-0.1-1,0.1-1,0.1s-0.3,0.2-0.1,0.5
			c0.1,0.2,0.2,0.3,0.2,0.5c-0.1,0-0.5-0.2-0.6-0.2c-0.1-0.1-0.3-0.1-0.5-0.2c0-0.1,0-0.1,0-0.2c0-0.3-0.1-0.9,0.2-1.2
			c0.3-0.3,0.6-0.4,0.7-0.2c0,0,0,0.1,0.1,0.1c0,0-0.1,0-0.1,0c-0.3,0.2-0.5,0.7-0.2,0.8c0.2,0,0.5-0.1,0.7-0.4
			c0.1,0.1,0.3,0.2,0.5,0.2c0.7,0,0.9-0.3,1-0.5c0.2-0.2,0.5-0.3,0.7,0c0,0,0,0,0.1,0.1h0c0,0,0.1,0.2,0.1,0.4c0,0.2,0,0.4,0.2,0.5
			c0.1,0.1,0.5,0.1,0.6-0.1v0c0,0,0.3-0.2,0.4,0c0,0.2,0,0.4,0,0.5c0,0.1,0,0.1,0,0.2c0,0,0,0,0,0c-0.1,0.4-0.1,0.5-0.5,0.6
			c-0.3,0-0.9-0.2-1.4-0.4v0c0,0-0.4-0.1-0.5-0.4C21.7,23.1,21.6,22.8,21.4,22.8z M20.2,25c-0.1,0-0.6-0.1-0.6-0.3
			c0-0.2,0.2-0.3,0.4-0.2C20.7,24.7,20.5,25,20.2,25z M15.7,23.7c-0.2,0.2-0.2,0.4-0.3,0.5c-0.1,0.1-0.3,0.1-0.4,0
			c0-0.1-0.1-0.1-0.3-0.1c-0.2,0-0.3,0-0.3-0.2c-0.1-0.1-0.1-0.3,0.1-0.4c0.1-0.1,0.3-0.1,0.4-0.1c0.2,0,0.4-0.1,0.5-0.2
			c0.2-0.1,0.3-0.2,0.5,0C16,23.4,15.9,23.5,15.7,23.7z M15.7,25.4c-0.1,0.2-0.4,0.2-0.6,0c-0.2-0.2,0.1-0.5,0.3-0.6
			c0.2-0.1,0.3-0.1,0.5,0.1C16,25,15.9,25.3,15.7,25.4z M12.6,22.1c0.1,0.1-0.1,0.2-0.1,0.2c-0.1,0-0.2,0.1-0.2,0.2
			c-0.1,0.1-0.2,0.1-0.3,0.1c-0.1,0-0.1-0.1-0.2-0.2c-0.1-0.1-0.1-0.3,0-0.4c0.1-0.1,0.2-0.1,0.3-0.1C12.2,21.8,12.5,22,12.6,22.1z
			 M12.6,21.2c0.1,0.1,0,0.4-0.2,0.4c-0.3,0-0.3-0.3-0.3-0.4C12,21,12.2,20.8,12.6,21.2z M12,23.2c0.2,0,0.3-0.1,0.5-0.2
			c0.2-0.2,0.3,0,0.2,0.1c0,0.1-0.1,0.2-0.1,0.3c0,0.1-0.2,0.2-0.3,0.2c-0.2,0-0.3,0.1-0.5,0.2c-0.2,0.1-0.4,0-0.4-0.1
			c-0.1-0.1,0-0.2,0.1-0.3C11.7,23.3,11.8,23.2,12,23.2z M12.3,24.5c-0.1,0.2-0.3,0.3-0.4,0.3c-0.2,0-0.3-0.1-0.2-0.3
			c0.1-0.2,0.2-0.2,0.4-0.2C12.1,24.2,12.3,24.3,12.3,24.5z M11.5,26.5c0.1-0.1,0.2-0.2,0.3-0.2c0.2,0,0.3,0,0.3,0
			c0.1,0.1,0,0.3-0.1,0.4c-0.1,0.1-0.4,0.1-0.5,0.1C11.4,26.8,11.4,26.5,11.5,26.5z M12,25.7c-0.1,0-0.4,0-0.4-0.1
			c-0.1-0.2,0-0.3,0.1-0.3c0.1-0.1,0.3-0.1,0.4-0.1c0.1-0.1,0.2-0.2,0.3-0.2c0.1-0.1,0.3-0.1,0.4-0.1c0.1,0,0.2,0.1,0.1,0.3
			c0,0.1-0.1,0.2-0.3,0.4C12.5,25.7,12.2,25.7,12,25.7z M12.7,26c0-0.1,0.1-0.2,0.4-0.1c0.2,0,0.3,0,0.3-0.1c0,0,0.2-0.1,0.2,0.1
			c0,0.2-0.2,0.3-0.3,0.4c-0.1,0.1-0.4,0.2-0.5,0.1C12.6,26.3,12.7,26.1,12.7,26z M13.4,24.4c-0.3,0.1-0.4-0.1-0.6-0.2
			c-0.1-0.1-0.1-0.3,0-0.4c0.1-0.1,0.2-0.2,0.3-0.3c0.1-0.1,0.3-0.2,0.5-0.1c0.1,0,0.2,0.3,0.2,0.5C13.8,24.1,13.7,24.3,13.4,24.4z
			 M13.1,22c0-0.2,0.1-0.3,0.2-0.3c0,0,0.5,0.1,0.7,0.2c0.2,0.1,0.1,0.3,0,0.6c-0.1,0.2-0.4,0.1-0.6,0.2c-0.3,0-0.2-0.2-0.2-0.4
			C13.3,22.2,13.2,22.2,13.1,22z M14.1,21.1c-0.1,0.2-0.3,0.1-0.5,0.1c-0.1,0-0.2-0.2-0.1-0.4c0.1-0.1,0.2-0.2,0.3-0.2
			C14.1,20.7,14.2,20.9,14.1,21.1z M13.7,18.6c-0.3,0.1-0.4-0.1-0.4-0.3c0-0.2,0.1-0.4,0.4-0.3C14.1,18.1,14,18.5,13.7,18.6z
			 M13.4,19.7c0,0.1,0.1,0.1,0,0.3c0,0.2-0.2,0.1-0.4,0c-0.2-0.1-0.3-0.4-0.2-0.6c0.1-0.2,0.2-0.2,0.3-0.1
			C13.3,19.3,13.4,19.6,13.4,19.7z M13.7,25c0.1-0.3,0.2-0.4,0.5-0.5c0.2,0,0.3,0.1,0.4,0.2c0,0.2-0.2,0.6-0.5,0.7
			C13.8,25.5,13.6,25.3,13.7,25z M14.7,20.6c0-0.1,0.1-0.3,0.4-0.1c0.2,0.3,0.3,0.5,0.6,0.7c0.2,0.2,0.1,0.6-0.2,0.6
			c-0.2,0-0.5,0-0.6-0.2c-0.1-0.1-0.1-0.2-0.2-0.3c-0.1-0.1-0.1-0.2-0.1-0.3C14.7,20.8,14.7,20.7,14.7,20.6z M15.7,19.3
			c0,0,0.3,0.1,0.5,0.2c0.2,0.1,0.2,0.3-0.1,0.6c-0.2,0.2-0.2,0.4-0.3,0.5c-0.2,0.1-0.3-0.2-0.2-0.3c0-0.1,0-0.3-0.1-0.6
			C15.4,19.5,15.6,19.3,15.7,19.3z M14.6,22.6c0.1,0,0.4-0.1,0.5-0.2c0.2-0.1,0.3,0,0.3,0.1c0,0.1-0.1,0.2-0.3,0.2
			c-0.2,0-0.2,0.1-0.3,0.2c-0.1,0.2-0.3,0.1-0.4,0C14.4,22.8,14.4,22.6,14.6,22.6z M16,22.2c0.2-0.1,0.3-0.3,0.4-0.4
			c0-0.1,0.1-0.4,0.3-0.2c0.3,0.2,0,0.7,0,0.7c-0.1,0.2,0,0.4-0.2,0.5c-0.2,0-0.4,0-0.5-0.1C15.8,22.5,15.8,22.4,16,22.2z M17.3,21
			c-0.2,0.1-0.5,0-0.5,0c-0.2-0.1-0.3-0.2-0.3-0.3c0-0.1,0-0.2,0.2-0.3c0.2-0.1,0.3-0.2,0.4,0C17.2,20.7,17.5,20.8,17.3,21z
			 M17.6,21.8c0.2,0.1,0.1,0.5-0.1,0.6c-0.3,0-0.3-0.3-0.2-0.4C17.3,21.7,17.5,21.8,17.6,21.8z M16.4,23.9c0.1-0.1,0.4-0.1,0.5,0
			c0.2,0.1,0.2,0.1,0.2,0.2c0,0.1-0.3,0.1-0.4,0.2c-0.1,0.1-0.2,0.1-0.3,0.2s-0.2,0-0.2-0.2C16.3,24.1,16.3,24,16.4,23.9z M16.9,23
			c0.1-0.1,0.2-0.1,0.4-0.1c0.2,0,0.5,0.2,0.6,0.3c0,0.1-0.1,0.2-0.6,0.2C16.8,23.4,16.8,23,16.9,23z M17.6,20
			c0-0.1,0.2-0.2,0.4-0.2c0,0,0.5,0.1,0.5,0.2c0,0.1-0.2,0.2-0.3,0.2c-0.1,0.1-0.2,0.2-0.4,0.2C17.6,20.4,17.6,20.1,17.6,20z
			 M17.8,17.1c0.1-0.2,0.2-0.2,0.4-0.1c0.2,0.1,0.2,0.7,0.2,0.9c0,0.2-0.3,0.4-0.6,0.2C17.4,17.8,17.7,17.3,17.8,17.1z M18.2,22.1
			c0.2-0.1,0.4-0.1,0.4,0.1c0,0.1,0,0.2,0,0.2c0,0.2,0,0.4-0.2,0.5c-0.2,0.1-0.3,0.1-0.4,0c0-0.1,0-0.2,0-0.3
			C18,22.3,18,22.2,18.2,22.1z M18.2,23.6c0.2-0.1,0.4-0.3,0.4-0.5s0.2-0.2,0.3-0.1c0.1,0.2,0,0.5-0.1,0.6c-0.1,0.2-0.2,0.3-0.5,0.3
			S18,24,17.9,23.9C17.8,23.8,18,23.7,18.2,23.6z M18.6,21.3c-0.2,0.1-0.4-0.1-0.4-0.2c-0.1-0.1,0-0.2,0.1-0.4
			c0.1-0.1,0.2-0.2,0.3-0.1c0,0,0.3,0.1,0.5,0.2c0.2,0,0.1,0.2-0.1,0.2C18.8,21.1,18.8,21.2,18.6,21.3z M18.5,19.3
			c0-0.4,0.2-0.7,0.6-0.6c0.5,0.1,0.5,0.4,0.2,0.7C19,19.6,18.4,19.7,18.5,19.3z M19.2,16.5c0.3,0.1,0.3,0.4,0,0.7
			c-0.2,0.3-0.4,0-0.4-0.4C18.8,16.5,19,16.5,19.2,16.5z M19.3,15.1c0.3-0.4,0.9,0.1,1.1,0.4c0.2,0.3,0,0.5-0.7,0.5
			C18.9,16.1,19,15.5,19.3,15.1z M20,17.4c0.4,0,0.2,0.4,0.1,0.8c-0.3,1.2-0.6,0.1-0.6,0.1C19,17.8,19.6,17.4,20,17.4z M19.6,20.9
			c0.1-0.2,0.2-0.2,0.4-0.1c0.2,0.1,0.3,0.4,0.1,0.5C19.8,21.4,19.6,21.1,19.6,20.9z M21.8,16.6c-0.1,0.2-0.4,0.4-0.7,0.2
			c-0.3-0.2,0-0.5,0-0.7c0.1-0.2,0.4-0.2,0.6,0C21.9,16.3,21.9,16.4,21.8,16.6z M21.9,20c0,0.4-0.4,0.4-0.6,0.2
			c-0.2-0.2-0.1-0.8-0.1-1.1c0-0.3,0.2-0.3,0.4-0.1C22,19.2,21.9,19.6,21.9,20z M21.5,17.5c0.3,0.1,0.3,0.3,0.2,0.5
			c-0.1,0.2-0.4,0.2-0.5,0C20.8,17.7,21.2,17.4,21.5,17.5z M21.4,21.2c0.3-0.1,0.5,0.1,0.5,0.4c0,0.3-0.2,0.3-0.4,0.4
			c-0.2,0.1-0.5,0-0.5-0.3C20.9,21.5,21.1,21.3,21.4,21.2z M22.6,17.9c-0.3,0.1-0.4-0.6-0.2-1c0.1-0.4,0.5-0.4,0.6-0.1
			C23.3,17.4,22.9,17.8,22.6,17.9z M22.5,20.2c-0.2-0.1-0.1-0.5,0.1-0.6c0.2,0,0.3,0,0.3,0.2C23,20.1,22.7,20.3,22.5,20.2z
			 M26.2,16.9c0.4,0.6-0.3,0.9-0.7,0.9c-0.4,0,0-0.5,0-0.9C25.7,16.7,26,16.6,26.2,16.9z M25.9,15.2c0.3-0.2,0.5,0.2,0.6,0.5
			c0.1,0.4,0.1,0.4-0.3,0.4c-0.4,0-0.4-0.1-0.4-0.4C25.7,15.5,25.6,15.4,25.9,15.2z M25.5,18.2c0.1,0,0.3,0.2,0.2,0.3
			c-0.1,0.2-0.2,0.2-0.4,0.2c-0.2,0-0.2-0.2-0.2-0.4C25.2,18.1,25.4,18.2,25.5,18.2z M24.4,16.7c-0.5,0.1,0-0.8,0.2-1.1
			s0.4-0.1,0.5,0.2C25.4,16.5,24.9,16.6,24.4,16.7z M24.9,17.8c-0.1,0.3-0.4,0.3-0.8-0.1c-0.4-0.4,0.5-0.7,0.8-0.6
			C25.1,17.2,25.1,17.5,24.9,17.8z M24.7,19.6c-0.3,0.1-0.5-0.1-0.4-0.3s0.2-0.4,0.4-0.3C25.1,19.1,25,19.5,24.7,19.6z M23.9,20.8
			c0.4,0.1,0.2,0.5,0.1,0.6c-0.2,0.1-0.5,0-0.5-0.3C23.5,20.8,23.6,20.7,23.9,20.8z M23.6,19.2c0.1,0,0.3,0,0.3,0.2
			c0.1,0.3-0.2,0.5-0.4,0.4C23.3,19.7,23.4,19.3,23.6,19.2z M23.9,18.5c-0.2,0-0.3-0.1-0.3-0.2c0-0.2,0.1-0.2,0.3-0.2
			c0.2,0,0.3,0.2,0.3,0.3C24.2,18.5,24.1,18.5,23.9,18.5z M23.9,14.8c-0.6-0.1-0.5-0.4-0.3-0.7c0.2-0.3,0.5-0.5,0.8-0.3
			C25,14.4,24.5,15,23.9,14.8z M23.7,15.3c0.2,0,0.3,0.1,0.4,0.3c0.1,0.2-0.1,0.4-0.3,0.5c-0.2,0.1-0.4,0-0.5-0.2
			c-0.1-0.2,0-0.4,0.1-0.5C23.4,15.4,23.5,15.3,23.7,15.3z M25.4,22.9c-0.2,0.1-0.3-0.1-0.3-0.2c0-0.1,0.1-0.3,0.2-0.3
			C25.6,22.5,25.6,22.8,25.4,22.9z M25.4,21.1c-0.1-0.2,0-0.5,0.2-0.4c0.3,0.2,0.2,0.6,0.1,0.7C25.6,21.5,25.5,21.3,25.4,21.1z
			 M25.7,20.1c-0.4,0.1-0.5-0.3-0.4-0.5c0.1-0.3,0.2-0.4,0.4-0.3c0.1,0,0.1,0.1,0.4,0.2C26.4,19.6,26.2,20.1,25.7,20.1z M26.4,18.3
			c0.2-0.3,0.5-0.2,0.6,0c0.2,0.5-0.3,0.8-0.7,0.8C25.9,18.9,26.2,18.6,26.4,18.3z M29.7,16.2c0.1,0.4,0,0.7-0.2,0.8
			c-0.1,0.1-0.2-0.1-0.3-0.4v0c0,0-0.1-0.4-0.5-0.3c-0.4,0.2-0.5-0.5-0.5-0.9c0-0.4,0.2-0.6,0.5-0.5c0.4,0.1,0.3,0.6,0.3,0.7
			c0.1,0.2,0.3,0.1,0.3,0.1v0C29.2,15.8,29.6,15.7,29.7,16.2z M39.9,18.1c0.2,0.2,0.2,0.4,0.1,0.6c-0.1,0.2-0.4,0.2-0.6,0.1
			c-0.2-0.1-0.4-0.4-0.2-0.7C39.3,17.7,39.8,17.9,39.9,18.1z M39.5,16.5c0.1-0.1,0.3-0.1,0.3,0.1c0.1,0.2,0,0.3-0.2,0.4
			c0,0-0.2,0.1-0.3,0C39.3,16.9,39.4,16.6,39.5,16.5z M39.4,20.4c0.1-0.2,0.3-0.2,0.4,0c0.2,0.4,0,0.7-0.3,0.6S39.2,20.6,39.4,20.4z
			 M39.2,19.9c-0.5,0.3-0.7,0-0.7-0.5c0-0.4,0.2-0.4,0.5-0.4C39.5,19.1,39.6,19.5,39.2,19.9z M38.8,17.1c-0.1,0.5-0.4,0.1-0.7,0
			c-0.3-0.1-0.2-0.4,0-0.7c0.2-0.4,0.6-0.5,0.9-0.1C39.4,16.6,39,16.6,38.8,17.1z M37.9,15.9c-0.2,0.1-0.5-0.1-0.4-0.3
			c0.1-0.2,0.2-0.2,0.4-0.1C38,15.6,38.1,15.8,37.9,15.9z M37.8,17.6c0.3,0,0.4,0.1,0.5,0.4c0,0,0.1,0.3-0.2,0.3
			c-0.3,0-0.6-0.2-0.6-0.4C37.4,17.8,37.5,17.6,37.8,17.6z M36.9,20.4c-0.2-0.2,0-0.5,0.2-0.5c0.6,0.2,0.9,0.6,0.6,1.3
			c-0.3,0.6-0.6,0.4-0.5,0.1C37.2,21,37.1,20.6,36.9,20.4z M36.6,22.8c0.1-0.1,0.3-0.1,0.4,0c0.1,0.3-0.1,0.4-0.3,0.3
			C36.5,23.1,36.6,22.9,36.6,22.8z M36.5,22.4c-0.2-0.1,0-0.3,0.1-0.3c0.1-0.1,0.3,0,0.3,0.1C36.9,22.4,36.7,22.5,36.5,22.4z
			 M37.5,19c0,0.4-0.3,0.5-0.8,0.3c-0.6-0.2,0.1-0.9,0.3-1C37.3,18.2,37.4,18.5,37.5,19z M36.5,20.8c0.3,0.5,0,0.9-0.5,1
			c-0.5,0.1-0.5-0.3-0.4-0.4c0.2-0.1,0.2-0.2,0.4-0.5C36.3,20.6,36.5,20.7,36.5,20.8z M35.8,19.4c0,0.2-0.2,0.3-0.6,0.1
			c-0.4-0.2-0.5-0.5-0.4-0.8c0.1-0.3,0.3-0.4,0.6-0.4C35.9,18.6,35.8,19.2,35.8,19.4z M34.8,17.7c-0.1,0.1-0.4,0.1-0.5,0.2
			C34.1,18,34,18.2,34,18.2c-0.1,0.1-0.3,0.2-0.4,0.2c-0.1,0-0.2-0.1-0.2-0.3c0-0.1,0.1-0.3,0.3-0.5c0.2-0.2,0.6-0.3,0.7-0.3
			c0.2,0,0.4,0,0.5,0.1C35,17.5,34.9,17.6,34.8,17.7z M33.6,15.7c0.2-0.2,0.4,0,0.4,0.2c0,0,0.3,0.6-0.2,0.9s-0.3-0.2-0.3-0.2
			C33.6,16.2,33.3,15.9,33.6,15.7z M33.4,15.1c-0.4-0.3,0-0.5,0.2-0.7c0.3-0.2,0.4-0.1,0.6,0.1C34.8,15,33.8,15.4,33.4,15.1z
			 M33.6,14C33,14,33,13.8,33.3,13.2c0.3-0.5,0.6-0.3,0.8-0.1C34.6,13.5,34.2,13.9,33.6,14z M33.3,20.8c0.3,0.3-0.1,0.8-0.4,0.8
			c-0.3-0.1-0.3-0.5-0.1-0.7S33.1,20.6,33.3,20.8z M31.5,21.2c-0.4-0.3,0.6-1,0.8-1.2c0.3-0.3,0.5,0,0.3,0.2
			c-0.2,0.2-0.4,0.3-0.3,0.6C32.4,21.4,31.8,21.5,31.5,21.2z M31.2,17.5c-0.3-0.3,0.1-0.5,0.3-0.6c0.3-0.1,0.5,0,0.7,0.1
			s0.2,0.4-0.1,0.6C31.8,17.9,31.5,17.8,31.2,17.5z M32.1,19.2c-0.3,0.1-0.5-0.3-0.4-0.6c0.1-0.3,0.3-0.3,0.5-0.4
			c0.3-0.1,0.3,0,0.5,0.2c0.3,0.2,0.3,0.6,0,0.6C32.5,19,32.4,19.1,32.1,19.2z M32.9,16.6c-0.2,0.1-0.4-0.1-0.5-0.2
			c-0.1-0.1,0.1-0.3,0.1-0.5c0.1-0.2,0.4-0.2,0.5,0C33.1,16.2,33.1,16.4,32.9,16.6z M32.1,13.4c-0.4-0.1-0.3-0.6-0.2-0.9
			c0.1-0.3,0.3-0.3,0.7-0.2c0.3,0.1,0.4,0.2,0.4,0.6C32.8,13.3,32.5,13.5,32.1,13.4z M32.1,14.2c0.4,0,0.7-0.2,0.5,0.5
			c-0.1,0.7-0.4,0.6-0.7,0.3c-0.3-0.2-0.6-0.4-0.6-0.7C31.5,14,31.8,14.2,32.1,14.2z M31.6,15.3c0,0,0.3,0.1,0.3,0.5
			c0,0.4-0.2,0.6-0.4,0.8c-0.3,0.1-0.3-0.5-0.3-0.9C31.2,15.4,31.3,15.2,31.6,15.3z M31,13.9c-0.3,0-0.5-0.1-0.3-0.5
			c0.2-0.4,0.5-0.4,0.5-0.2C31.6,13.9,31,13.9,31,13.9z M30.7,15.1c0,0.3,0,0.5-0.4,0.5c-0.3-0.1-0.5-0.1-0.5-0.4
			c0-0.2,0.2-0.2,0.3-0.5c0-0.2,0-0.6,0.3-0.4C30.8,14.4,30.7,15,30.7,15.1z M30.6,17.1c-0.2,0.2-0.5-0.3-0.4-0.7
			c0.1-0.4,0.3-0.5,0.4-0.4C30.9,16.3,30.9,16.9,30.6,17.1z M29.8,13.8c-0.3-0.1-0.4-0.7-0.2-0.8c0.2-0.2,0.3-0.1,0.5,0.1
			C30.3,13.4,30.1,13.9,29.8,13.8z M29.7,18.6c-0.2,0.1-0.3,0.4-0.6,0.5c-0.3,0.1-0.1-0.6,0.1-1c0.2-0.4,0.5-0.2,0.6,0
			C29.8,18.2,29.9,18.5,29.7,18.6z M28.3,17.7c0.1-0.1,0.2-0.1,0.3,0.1c0,0,0.1,0.1-0.1,0.4c-0.1,0.3-0.4,0.5-0.6,0.5
			c-0.3,0-0.2-0.4,0-0.6C28.1,17.9,28.2,17.8,28.3,17.7z M27.2,17.6c-0.4,0-0.4-0.5-0.2-0.7c0.2-0.2,0.3-0.2,0.6-0.1
			c0.2,0.1,0.4,0.2,0.4,0.5C28,17.5,27.6,17.6,27.2,17.6z M27.1,14.8c0.2-0.2,0.4-0.1,0.4-0.1c0.1,0.1,0.3,0.6,0.1,0.9
			c-0.2,0.3-0.5,0.2-0.6-0.1C26.9,15.3,26.9,15,27.1,14.8z M27,14.2c-0.5,0.2-0.5-0.2-0.4-0.7c0.2-0.5,0.2-0.4,0.7-0.5
			c0.4-0.1,0.4,0.1,0.5,0.5C27.9,13.9,27.5,14,27,14.2z M26.4,21.1c0-0.2,0.1-0.1,0.3-0.1c0.1,0,0.2,0.2,0.2,0.4
			c0,0.3-0.2,0.5-0.3,0.5c-0.2,0-0.2-0.2-0.2-0.3C26.4,21.4,26.4,21.3,26.4,21.1z M26.7,19.6c-0.2-0.2,0.1-0.3,0.3-0.4
			c0.2-0.1,0.3-0.1,0.4,0.1c0.3,0.3,0.3,0.4,0.3,0.6c0,0.1-0.2,0.1-0.6,0.2C26.9,20.1,26.9,19.8,26.7,19.6z M27.4,20.9
			c0-0.2,0.1-0.2,0.3-0.3c0.2-0.1,0.3,0,0.4,0.1c0.1,0.1,0.2,0.3,0.3,0.3c0.2,0.1,0.3,0,0.3,0.2c0,0.2-0.4,0.3-0.5,0.3
			c-0.2,0-0.4-0.1-0.6-0.2C27.3,21.3,27.3,21.1,27.4,20.9z M28.2,20.1c-0.1-0.3,0-0.6,0.3-0.5c0.3,0.1,0.3,0.2,0.6,0.2
			c0.3,0,0.4,0.2,0.3,0.3c-0.1,0.1-0.2,0.1-0.5,0.3C28.6,20.5,28.4,20.4,28.2,20.1z M29.2,21.4c0.2-0.3,0.1-0.7,0.4-0.8
			c0.4-0.2,0.6,0.1,0.7,0.4c0.1,0.3,0.2,0.5-0.4,0.8C29.4,22.2,29,21.7,29.2,21.4z M30,19.9c-0.3-0.3-0.3-0.7-0.1-0.9
			c0.2-0.2,0.3-0.1,0.4,0.1c0,0,0.1,0.3,0.2,0.6C30.6,20.1,30.4,20.2,30,19.9z M30.4,17.7c0.2-0.3,0.5,0.1,0.6,0.4
			c0,0,0.1,0.4,0.1,0.7c0,0.3-0.1,0.4-0.4,0.1C30.4,18.6,30.2,18,30.4,17.7z M30.7,20.4c0.1-0.1,0.2-0.3,0.3-0.5
			c0-0.2,0.2-0.3,0.3-0.2c0.2,0.3-0.1,0.7-0.3,0.9C30.7,20.7,30.6,20.5,30.7,20.4z M34,24.9c0.2,0,0.4,0.2,0.2,0.4
			c-0.2,0.2-0.5,0.1-0.6-0.1C33.6,25,33.7,24.9,34,24.9z M33.6,22.6c-0.1-0.2-0.1-0.4,0-0.8c0.1-0.4,0.3-0.6,0.6-0.3
			c0.3,0.3,0.1,1,0.1,1C34.2,22.8,33.7,22.8,33.6,22.6z M33.8,20.1c0-0.4,0.2-0.6,0.4-0.5c0.7,0.2,0.6,0.7,0.2,1
			S33.8,20.5,33.8,20.1z M34.9,20.6c0.1-0.2,0.3-0.2,0.4-0.1c0.7,0.6,0,0.9-0.4,0.8C34.5,21.2,34.7,20.8,34.9,20.6z M34.9,21.6
			c0.3,0.1,0.2,0.3,0.1,0.5c-0.2,0.1-0.3-0.1-0.3-0.2C34.7,21.7,34.8,21.5,34.9,21.6z M34.8,25c0,0,0.3-1,0.6-1.3c0,0,0-0.1,0.1-0.1
			c0.1,0,0.3,0,0.4-0.1c0.5-0.1,0.6-0.2,0.8,0.2c0.2,0.4,0.6,0.8,1.1,0.6h0c-0.1,0-0.2,0.1-0.3,0.1c-0.8,0.3-0.8,0.3-1.4,0.5
			C35.6,25,35.8,25,35,25C34.9,25,34.8,25,34.8,25L34.8,25z M37.4,23.4c0.1-0.3,0.6-0.4,0.8-0.2c0,0,0.1,0.2,0,0.4
			C38,23.9,37.2,23.8,37.4,23.4z M38.1,22.3c-0.3,0.1-0.5-0.1-0.5-0.3c0-0.2,0.2-0.4,0.5-0.3C38.5,21.8,38.3,22.2,38.1,22.3z
			 M38.2,20.9c-0.2-0.2,0-0.6,0.4-0.3c0.8,0.7,0.3,1.2,0.1,1.1C38.5,21.6,38.4,21.1,38.2,20.9z M38.9,22.2c0.3-0.2,0.3-0.4,0.6-0.4
			c0.2,0,0.3,0.2,0.4,0.4c0.2,0.2,0,0.4-0.4,0.4c-0.4,0-0.7,0.1-0.9,0C38.5,22.5,38.6,22.4,38.9,22.2z M39.9,23.3
			c0.4,0.1,0.5,0.5,0,0.5c-0.5,0-0.9,0-0.9-0.2C39.1,23.3,39.5,23.2,39.9,23.3z M39.7,24.2c0,0,0.4-0.1,0.5,0.2
			c0.1,0.3-0.1,0.4-0.5,0.4C39.3,24.7,39.5,24.3,39.7,24.2z M40.2,17.6c0-0.3-0.1-0.9,0.3-0.6c0.4,0.3,0.9,1.4,0.1,1.2
			C40.3,18.1,40.2,17.9,40.2,17.6z M40.8,20.9c0.4,0.5,0.3,1.1-0.1,1.2c-0.4,0.1-0.4-0.6-0.5-1C40.2,20.7,40.6,20.7,40.8,20.9z
			 M40.7,19.8c0.2-0.1,0.3-0.1,0.5,0.1c0.2,0.3,0,0.8-0.3,0.7C40.6,20.5,40.5,19.9,40.7,19.8z M41.3,22c0-0.4,0.2-0.3,0.4-0.2
			c0.3,0.1,0.3,0.4,0,0.7C41.5,22.7,41.4,22.4,41.3,22z M42.2,17.4c0.3,0.1,0.3,0.5,0,0.6c-0.3,0.1-0.7-0.2-0.6-0.5
			C41.7,17.2,41.9,17.2,42.2,17.4z M42.7,19.1c0.2,0.3,0,0.5-0.5,0.3c-0.2-0.1-0.5-0.1-1.1-0.1c-0.6,0-0.5-0.4-0.3-0.5
			c0.3-0.1,0.5-0.1,0.7-0.2C42.3,18.4,42.5,18.8,42.7,19.1z M41.1,16.3c0.1,0,0.3,0,0.3,0.2c0.1,0.3-0.2,0.5-0.4,0.4
			C40.9,16.8,40.9,16.4,41.1,16.3z M38.8,14.5c0.7-0.1,0.8,0.1,0.7,0.3c0,0.2-0.5,0.1-0.4,0.3c0,0.2,0.4,0.5,0.6,0.3
			c0.2-0.2,0.7-0.3,0.8,0c0.2,0.3-0.4,0.7-0.8,0.6c-0.2-0.1-0.3-0.2-0.9-0.4C38.2,15.3,38.1,14.6,38.8,14.5z M37.4,14
			c0.1-0.1,0.1-0.3,0.1-0.4c0-0.1,0.2-0.3,0.4-0.3c0.2,0,0.3,0.2,0.4,0.4c0.1,0.2,0.1,0.5-0.1,0.7c-0.2,0.2-0.4,0.2-0.6,0.1
			C37.4,14.3,37.3,14.1,37.4,14z M36.9,17.1c-0.4-0.1-0.7-0.3-0.5-0.5c0.2-0.1,0.5-0.3,0.8-0.1C37.8,16.9,37.3,17.2,36.9,17.1z
			 M37,14.4c0,0.1,0.2,0.3,0.2,0.4c0.1,0.1,0.1,0.3-0.1,0.4c-0.2,0.2-0.2,0.3-0.2,0.6c0,0.2-0.3,0.4-0.4,0.3c-0.1,0-0.3-0.1-0.2-0.3
			c0-0.2,0.1-0.4,0.3-0.6c0.1-0.2,0.2-0.4,0.1-0.6C36.7,14.3,36.9,14.3,37,14.4z M36.1,12.6c0.2-0.4,0.5-0.6,0.6-0.4
			c0.2,0.4-0.3,1.1-0.3,1.1C36.1,13.9,35.9,13,36.1,12.6z M36.5,17.5c0.4,0.2,0.3,0.8-0.2,0.8c-0.5,0-0.7-0.5-0.5-0.7
			C36,17.3,36.1,17.3,36.5,17.5z M35.6,11.8c0.1,0.1,0.3,0.5,0,0.8c-0.3,0.3-0.7,0-0.7-0.4C34.9,11.8,35.2,11.5,35.6,11.8z
			 M35.2,13.4c0.3-0.1,0.4,0,0.5,0.1c0.1,0.2,0.1,0.8-0.2,1c-0.3,0.2-0.6,0.1-0.6-0.3C34.8,13.8,34.9,13.6,35.2,13.4z M35.4,15.9
			c0.2,0.5-0.2,0.5-0.5,0.8c-0.2,0.3-0.6,0.2-0.5-0.1c0.1-0.2,0.1-0.5,0.1-0.7c-0.1-0.2-0.1-0.4,0.1-0.5
			C34.9,15.2,35.1,15.4,35.4,15.9z M34,11c0.3-0.2,0.5-0.1,0.6,0.1c0.1,0.2,0.1,0.9-0.3,1.2c-0.4,0.3-0.7,0.1-0.7-0.3
			C33.5,11.5,33.6,11.2,34,11z M32.8,10.5c0,0,0.1-0.1,0.3-0.1s0.3,0.1,0.3,0.3c0.1,0.2-0.1,0.4-0.2,0.4c-0.2,0.1-0.4,0-0.5-0.2
			C32.6,10.8,32.7,10.6,32.8,10.5z M32.5,11.4c0.1,0.1,0.2,0.3,0,0.4c-0.2,0.1-0.3,0.1-0.5-0.1c0,0-0.2-0.1,0-0.3
			C32.2,11.3,32.4,11.3,32.5,11.4z M31.5,10.1c0.4,0,0.6,0,0.7,0.3c0,0.3,0,0.4-0.3,0.6c-0.3,0.2-0.6,0.5-0.8,0.1
			C31.1,10.7,31.2,10,31.5,10.1z M31.2,11.7c0.3,0.4,0.1,0.6-0.2,0.9c-0.3,0.3-0.5-0.1-0.6-0.4c-0.2-0.3-0.2-0.5,0.2-0.7
			C30.9,11.4,31,11.4,31.2,11.7z M30.2,9.8c0.2,0,0.3,0.1,0.5,0.2c0.2,0.2,0,0.4-0.1,0.3c-0.2-0.1-0.4,0.1-0.6,0.2
			c-0.2,0-0.2-0.1-0.3-0.3C29.6,10,30,9.8,30.2,9.8z M29.8,10.9c0.2,0.1,0.2,0.2,0.2,0.4c0,0.2-0.2,0.3-0.3,0.5
			c-0.1,0.2,0,0.3-0.1,0.4c0,0.2-0.2,0.3-0.3,0.4c-0.1,0-0.2,0-0.3-0.1c-0.1-0.1-0.1-0.3-0.1-0.6c0-0.3,0.3-0.6,0.4-0.7
			C29.4,11,29.7,10.9,29.8,10.9z M28.8,9.7c0.1-0.1,0.3-0.1,0.3,0.1c0,0.2,0,0.3-0.2,0.4c0,0-0.2,0.1-0.3,0
			C28.6,10,28.7,9.8,28.8,9.7z M28.6,13.9c0.1-0.3,0.3-0.5,0.5-0.3c0.5,0.4,0.2,0.9-0.1,1C28.6,14.6,28.5,14.2,28.6,13.9z
			 M27.3,11.5c0,0,0.8-0.4,0.5-0.5c-0.3-0.1-0.2-0.9-0.1-1.3c0.1-0.4,0.4-0.3,0.5-0.2s0.1,0.6,0.1,0.9c0,0.3,0,0.4-0.1,0.6
			c-0.1,0.2-0.1,0.2,0.2,0.3c0.3,0.1-0.1,0.6-0.3,0.8c-0.2,0.1-0.3,0.7-0.7,0.4C27,12.1,27.1,11.7,27.3,11.5z M26.5,9.6
			c0.2-0.3,0.5-0.2,0.6,0.1c0.1,0.3,0.1,0.5-0.1,0.7c-0.2,0.2-0.3,0.1-0.4,0C26.5,10.3,26.4,9.8,26.5,9.6z M26.5,10.9
			c0,0.1,0.1,0.3-0.1,0.6c-0.2,0.3-0.2,0.4-0.1,0.9s-0.1,0.8-0.5,0.5c-0.4-0.3-0.5-0.7-0.3-0.9c0.2-0.2,0.2-0.6,0.4-0.9
			C26.1,10.8,26.4,10.6,26.5,10.9z M25.4,9.5c0.3-0.2,0.4,0.3,0.4,0.6c0.1,0.3-0.1,0.3-0.2,0.3C24.8,10.4,25.1,9.7,25.4,9.5z
			 M25.7,13.4c0.4,0.5,0.3,0.7-0.2,0.6c-0.5-0.1-1-0.3-0.6-0.6S25.6,13.2,25.7,13.4z M24.8,12.4c-0.1,0.1-0.2,0.4-0.4,0.6
			c-0.1,0.2-0.2,0.2-0.4,0.1c-0.2-0.1-0.1-0.3,0.1-0.4c0.2-0.1,0.1-0.3,0.2-0.4c0-0.3,0.2-0.4,0.4-0.3C24.8,12,25.1,12.2,24.8,12.4z
			 M24.5,9.7c0.2,0.1,0.2,0.2,0.2,0.4c0,0,0,0.2-0.2,0.2c-0.2-0.1-0.3-0.3-0.3-0.4C24.2,9.7,24.4,9.6,24.5,9.7z M24.3,11.1
			c0.4,0.1,0.3,0.5,0.1,0.6c-0.2,0.2-0.3-0.1-0.4-0.2C23.9,11.3,24.1,11,24.3,11.1z M23.8,12.6c-0.1,0.1-0.4,0-0.4-0.2
			c0-0.2,0.1-0.3,0.3-0.2C24,12.2,23.9,12.5,23.8,12.6z M23.2,10.1c0.1-0.2,0.4-0.3,0.5,0.1c0,0.2,0.2,0.6,0,0.6
			c-0.2,0.1-0.4,0-0.5-0.1C23.2,10.6,23.1,10.3,23.2,10.1z M22.2,10.1c0.3-0.2,0.5,0.2,0.5,0.4c0,0,0.1,0.4,0,0.7
			c0,0.3-0.2,0.4-0.4,0C22.1,10.9,22,10.3,22.2,10.1z M22.6,12.5c0,0,0.1,0.2,0.5,0.4c0.4,0.3-0.1,0.6-0.4,0.6
			c-0.2-0.1-0.4-0.1-0.6,0.1c-0.3,0.2-0.7,0.3-0.7-0.2c0-0.6,0.4-0.6,0.6-0.8C22.1,12.4,22.6,12.2,22.6,12.5z M21.6,10.8
			c0.6,1.2-0.2,1.5-0.2,1.1c0-0.3-0.2-0.9-0.3-1.2C21.1,10.4,21.4,10.3,21.6,10.8z M20.8,15c0.1-0.4,0.2-0.4,0.4-0.4
			c0.4-0.2,0.8-0.2,1.1,0.1c0.3,0.2-0.1,0.4-0.3,0.7c-0.2,0.3-0.3,0-0.8,0.1C20.8,15.6,20.7,15.4,20.8,15z M20.6,19.9
			c-0.3,0.5-0.8,0.2-0.9-0.1c-0.1-0.3,0.2-0.7,0.6-0.6C20.7,19.3,20.9,19.6,20.6,19.9z M20.2,11.1c0-0.1,0.2-0.2,0.4-0.1
			c0.1,0.1,0.1,0.3,0.1,0.5c0,0-0.1,0.2-0.2,0.1C20.2,11.4,20.2,11.2,20.2,11.1z M20.1,12.4c0.1-0.2,0.3-0.1,0.4,0.1
			c0,0,0.2,0.6,0.2,0.8c0,0.2-0.2,0.3-0.5,0.3c-0.3,0-0.4-0.2-0.5-0.5c-0.2-0.2,0-0.3,0.2-0.4C20,12.6,20,12.5,20.1,12.4z
			 M19.7,11.3c0.1,0.2,0.1,0.6-0.1,0.7c-0.2,0.2-0.6-0.3-0.6-0.5C19,11.4,19.5,11.1,19.7,11.3z M19.3,13.7c0.4,0.1,0.6,0.4,0.3,0.8
			c-0.3,0.3-0.4-0.1-0.5-0.3C18.9,14,19,13.6,19.3,13.7z M18.2,12c0.6-0.1,0.9,0.7,0.6,1c-0.3,0.3-0.6,0.4-0.7,0
			C18,12.7,17.6,12.1,18.2,12z M18.1,15.6c0,0.3-0.2,0.6-0.6,0.7c-0.3,0.1-0.3-0.2-0.3-0.5c-0.1-0.3,0-0.5,0.2-0.8
			c0.1-0.2,0.2-0.2,0.4-0.2C18.4,14.8,18.2,15.3,18.1,15.6z M17.4,12.9c0.3,0.4,0.5,0.9,0,0.9c-0.5,0-0.6-0.3-0.6-0.6
			C16.9,12.6,17.1,12.5,17.4,12.9z M17,18.3c0.2,0.1,0.3,0.8-0.1,0.6c-0.3-0.1-0.5,0.1-0.7,0c-0.2-0.1-0.1-0.3,0.2-0.5
			C16.8,18.1,16.9,18.2,17,18.3z M16.7,17.4c0,0.2,0,0.3-0.4,0.4c-0.4,0.1-0.1-0.5-0.1-0.8c0.1-0.3,0.3-0.2,0.4-0.1
			C16.6,17,16.7,17.2,16.7,17.4z M15.7,13.9c0.1-0.2,0.3-0.3,0.6-0.1c0.4,0.2,0.3,0.9-0.1,0.9C15.9,14.8,15.6,14.2,15.7,13.9z
			 M16.3,15.5c0.2,0.1,0.4,0.5,0,0.8c-0.4,0.3-0.7,0-0.7-0.4C15.6,15.5,15.9,15.2,16.3,15.5z M15.2,14.5c0.3,0.1,0.2,0.4,0.1,0.5
			c-0.1,0.1-0.4,0-0.4-0.2C14.9,14.5,15,14.4,15.2,14.5z M14.8,17.6c0-0.2,0.2-0.4,0.1-0.8c-0.1-0.4-0.1-0.5,0.2-0.2
			c0.3,0.3,0.4,0.6,0.4,0.6c0.1,0.3,0.1,0.5-0.3,0.6C14.8,17.8,14.7,17.7,14.8,17.6z M14.7,18.6c0.2,0,0.2,0.2,0.2,0.5
			c0,0.3-0.1,0.3-0.3,0.5c-0.3,0.2-0.3-0.1-0.4-0.3c-0.1-0.2,0-0.3,0.1-0.5C14.4,18.7,14.5,18.7,14.7,18.6z M13.5,16
			c0.1-0.2,0.3-0.2,0.5-0.1c0.3,0.2,0.3,0.8-0.1,0.8C13.6,16.7,13.4,16.2,13.5,16z M12.8,16.9c0.2-0.2,0.3-0.2,0.5-0.1
			c0.1,0.1,0.2,0.2,0.2,0.4c0,0.3-0.1,0.4-0.3,0.3c-0.2,0-0.3,0.1-0.5,0C12.4,17.4,12.6,17.1,12.8,16.9z M12.4,18.2
			c0.2,0.1,0.3,0.5,0,0.6c-0.3,0.1-0.7-0.2-0.6-0.4C11.9,18.1,12.1,18,12.4,18.2z M11.3,19.3c0.1-0.1,0.3,0,0.4,0.2
			c0.1,0.2,0.4,0.4,0.7,0.6c0.2,0.2,0.3,0.2,0.3,0.4c0,0.2-0.3,0.2-0.4-0.1c-0.2-0.2-0.4-0.2-0.5-0.2c-0.1,0-0.4-0.1-0.5-0.3
			C11.1,19.7,11.2,19.4,11.3,19.3z M10.7,20.8c0.1-0.2,0.4-0.2,0.7,0c0.3,0.2,0.4,0.5,0.1,0.5c-0.2,0.1-0.2,0.3-0.3,0.4
			c-0.1,0.1-0.4-0.1-0.5-0.3C10.5,21.3,10.6,20.9,10.7,20.8z M10.6,25.4c-0.2-0.1-0.3-0.2-0.2-0.5c0.1-0.3,0.3-0.5,0.4-0.6
			c0.1-0.1,0.2-0.1,0.3,0c0,0,0.1,0.2,0.1,0.2c0,0.1,0,0.2-0.1,0.3c-0.1,0.1,0,0.2,0,0.3C11,25.5,10.8,25.5,10.6,25.4z M10.8,26.6
			c-0.1,0.2-0.4,0.4-0.6,0.5c-0.2,0.1-0.5,0.3-0.6,0.2c-0.2-0.2-0.1-0.5,0.2-0.6c0.3-0.1,0.3-0.4,0.5-0.5C10.6,26,11,26.2,10.8,26.6
			z M10.1,22.3c0-0.2,0.1-0.3,0.4,0c0.2,0.2,0.3,0.2,0.3,0.3c0.1,0.1,0.1,0.2,0.1,0.3S10.7,23,10.5,23c-0.2,0-0.4-0.1-0.5-0.3
			C10,22.5,10.2,22.4,10.1,22.3z M9.8,23.7c0.1-0.1,0.2-0.1,0.5-0.1c0.2,0,0.3,0.2,0.1,0.3c-0.2,0.1-0.2,0.3-0.3,0.5
			c-0.1,0.1-0.2,0.1-0.4,0C9.4,24.3,9.6,23.9,9.8,23.7z M9.5,25.5c0.1-0.2,0.1-0.2,0.3-0.2c0.2,0,0.2,0.1,0.2,0.2
			c0,0.1,0.1,0.1,0.1,0.2c0,0.1,0,0.1-0.1,0.2c0,0-0.1,0.1-0.3,0.1C9.5,25.9,9.4,25.7,9.5,25.5z M45.2,27.6
			c-0.1,4.8-2.1,9.1-5.2,12.3c-3.2,3.2-7.7,5.2-12.7,5.2s-9.4-2-12.7-5.2c-3-3.1-5-7.2-5.2-11.8c0,0,0-0.1,0-0.1
			c0.3-0.1,0.7-0.2,1-0.4c0.5-0.4,0.8-0.4,1.1-0.3c0.4,0.1,0.7,0,0.9-0.2c0.2-0.2,0.4-0.3,0.6-0.3c0.3,0,0.6-0.2,0.8-0.4
			c0.3-0.2,0.6-0.5,0.9-0.4c0.3,0.1,0.7,0.2,0.9,0.1c0.2-0.1,0.6-0.3,0.7-0.6c0.1-0.2,0.4-0.6,0.8-0.7c0.2,0,0.5-0.1,0.8-0.1
			c0.5,0.1,0.8,0.5,1.4,0.8c0.6,0.3,1.1,0.6,1.7,0.8c0.5,0.2,1,0.3,1.5,0.5c0.5,0.2,0.2,0.1,0.5,0.3c0,0,0.4,0.2,0.3,0.4
			c0,0.1,0,0.4,0,0.4c-0.1,0.5-0.1,0.9-0.1,1.1c-0.1,0.2-0.1,0.3-0.1,0.6c0,0.3-0.1,0.4-0.1,0.6c0,0.2-0.2,0.4-0.2,0.5
			c-0.1,0.1-0.1,0.5-0.3,0.6c-0.2,0.1-0.5,0.2-0.7,0.2c-0.2,0-0.5,0.1-0.7,0.1c-0.2,0.1-0.4,0.2-0.7,0.3c-0.3,0-0.6,0.1-0.9,0.1
			c-0.3,0-0.3,0.1-0.7,0.1c-0.3,0-0.6-0.1-0.8-0.1c-0.2,0-0.4,0-0.6,0.1c-0.2,0.1-0.2,0.3-0.1,0.4c0.1,0.1,0.2,0.3,0.5,0.3
			c0.4,0,0.5,0.1,0.8,0.1c0.2,0,0.7,0,1,0c0.3,0,0.8,0,1.1-0.1c0.3-0.1,0.7-0.2,1-0.3c0,0,0.3-0.1,0.5,0c0.2,0,0.5,0.1,0.6,0.2
			c0.1,0,0.7,0.1,1,0.1c0.3,0,0.7,0,0.9,0l1.3-0.1c0.7,0,0.6-0.5,0.3-0.6c-0.1-0.1-0.5,0.1-0.6,0.1c0,0-0.7,0.1-1-0.2
			c-0.1-0.1-0.1-0.3,0-0.7c0.1-0.3,0.1-0.6,0-0.9c-0.1-0.2-0.1-0.4-0.1-0.5c0-0.2,0.1-0.3,0.2-0.4c0.3-0.3,0.5-0.3,0.7-0.2
			c0,0,0.2,0.2,0.2,0.4c-0.1,0.3-0.2,0.3-0.2,0.4c0,0.2,0,0.2,0.1,0.4c0.1,0.2,0.1,0.3,0,0.5c-0.3,0.3-0.1,0.5,0.1,0.5
			c0,0,0.5,0,0.7-0.1c0.2-0.1,0.3-0.3,0.3-0.5c0-0.2-0.2-0.3,0-0.5c0.3-0.3,0.2-0.6,0.2-0.8c0-0.2,0.1-0.2,0.1-0.5
			c0.1-0.3-0.1-0.5-0.3-0.3c-0.1,0.2-0.2-0.6-0.1-0.7c0.1-0.1,0.2-0.2,0.3-0.4s0.1-0.1,0-0.4c-0.1-0.3-0.2-0.1-0.3-0.2
			c-0.3-0.1-0.2-0.6-0.1-1c0.1-0.4,0.3,0,0.5,0.4c0.2,0.3,0.2-0.4,0.2-0.7c-0.1-0.3,0.1-0.9,0-1.2c-0.1-0.3-0.1-0.6,0-0.9
			c0.1-0.2,0.1-0.7,0.1-1.1c0.2-0.2,0.3-0.3,0.8-0.3c0,0.1,0,0.3,0,0.4c0,0.2-0.1,0.4-0.2,0.6c-0.1,0.2,0,0.6,0.1,0.6
			c0.1,0,0.1,0.2,0,0.3c-0.1,0.1-0.1,0.3,0,0.4c0.1,0.1,0,0.1,0,0.4c0,0.3,0,0.2,0,0.5c-0.1,0.3-0.1,0.6,0.1,0.6
			c0.2,0,0.4-0.1,0.5,0.1c0.1,0.2,0.2,0.6,0.3,0.5c0.2-0.1,0.3-0.3,0.3-0.6s-0.2-0.6-0.2-1.1c0-0.5,0-0.5,0.1-0.9
			c0.1-0.4,0.1-0.4,0-0.8c0-0.2-0.1-0.3-0.1-0.5c0.2,0.1,0.4,0.2,0.9,0.2l0,0c0,0,0,0.1,0,0.1c-0.2,0.3-0.2,0.4-0.1,0.7
			c0.1,0.2,0.4,0.3,0.2,0.6c-0.2,0.2-0.1,0.6,0.3,0.5c0.4-0.1,0.6,0,0.5,0.3c-0.1,0.3,0.2,0.4,0.4,0.4c0.9,0,0.8,1,0.3,1.1
			c-0.5,0.1-0.5,0.2-0.8,0.3c-0.3,0.1-0.3,0.6-0.2,0.8c0.1,0.2,0.2,0.3,0.1,0.6c-0.2,0.2-0.2,0.4-0.1,0.6c0.1,0.2,0.2,0.5,0,0.7
			c-0.2,0.2-0.3,0.7-0.1,1c0.2,0.3,0.3,0.6,0.1,0.8c-0.2,0.2-0.2,0.1-0.5,0s-0.5,0.1-0.6-0.2c-0.1-0.3,0.2-0.2,0.2-0.6
			c0-0.3,0,0,0-0.3c0-0.3,0.3-0.6,0.2-1c-0.1-0.4,0.2-0.5,0.1-0.8c-0.1-0.3-0.4-0.4-0.5-0.7c0-0.3-0.1-0.5-0.4-0.5
			c-0.3,0-0.1,1.5-0.1,2c-0.1,0.5-0.1,0.7,0,1c0.1,0.2,0.1,0.3,0.1,0.6c0,0.4-0.2,0.5-0.1,0.7c0.1,0.2,0,0.3-0.3,0.4
			c-0.3,0-0.6,0.1-0.6,0.4s0.3,0.2,0.5,0.2c0.3-0.1,0.7-0.2,0.9-0.1c0,0,0.4,0.3,0.8,0.3c0.4,0,0.9,0.1,1.2,0.1c0.3,0,1.3,0,1.9-0.1
			c0.6-0.1,1.3-0.3,1.7-0.1c0,0,0.9,0.4,1.2,0.4c0.3,0,1.1,0,1.4,0c0.3,0,1.2,0.2,1.6,0.1c0.3,0,0.6-0.1,0.5-0.3
			c-0.1-0.2-0.3-0.2-0.7-0.4c-0.4-0.2-0.4-0.3-1.1-0.3c-0.7,0-0.8,0.2-1.1,0.1c-0.3,0-0.6-0.2-1-0.4c-0.4-0.2-0.9-0.4-1.2-0.3
			c-0.3,0-1.2,0.2-1.5,0.1c-0.3-0.1-0.9-0.3-1.1-0.7c-0.2-0.4-0.2-0.6-0.2-1c0.2-0.7,0-1.6,0-1.6s0-0.4,0.1-0.5
			c0.1-0.1,0.2-0.5,0.4-0.6c0.3-0.1,0.4-0.2,0.8-0.2c0.4,0,0.8-0.1,1.2-0.2c0.4,0,2.1-0.3,2.6-0.5c0.5-0.2,0.9-0.4,1.3-0.5
			c0.3-0.1,0.7-0.2,1.1-0.3c0.1,0.3,0.6,0.5,1.4,0.2c0.9-0.4,1.1-0.3,1.5,0.2c0.4,0.5,0.6,0.7,1.1,0.7c0.5,0.1,0.8,0,0.9,0.4
			c0.2,0.4,0.3,0.7,0.8,0.7C44.7,27.4,45,27.5,45.2,27.6C45.2,27.6,45.2,27.6,45.2,27.6z"/>
	</g>
</g>
</svg>
